<svg width="1261" height="302" viewBox="0 0 1261 302" fill="none" xmlns="http://www.w3.org/2000/svg">
<g clip-path="url(#clip0)">
<rect width="1261" height="302" fill="#F9F9F9"/>
<circle cx="758.5" cy="142.5" r="116.5" fill="#5CA880"/>
<path d="M744.249 97.1385V99.8555L735.755 119H731.414L739.627 100.574H731.039V104.29H727.26V97.1385H744.249ZM753.988 105.602C757.069 105.602 759.349 106.206 760.827 107.413C762.306 108.6 763.045 110.224 763.045 112.285C763.045 113.597 762.722 114.784 762.077 115.846C761.431 116.908 760.463 117.751 759.172 118.375C757.881 119 756.288 119.312 754.394 119.312C752.832 119.312 751.323 119.094 749.865 118.656C748.408 118.198 747.179 117.574 746.18 116.783L747.898 113.628C748.71 114.295 749.678 114.825 750.802 115.221C751.947 115.596 753.124 115.783 754.331 115.783C755.768 115.783 756.892 115.492 757.704 114.909C758.537 114.305 758.953 113.483 758.953 112.442C758.953 111.317 758.506 110.474 757.611 109.912C756.736 109.329 755.227 109.037 753.082 109.037H747.804L748.928 97.1385H761.764V100.543H752.364L751.895 105.602H753.988ZM770.89 108.912C769.329 108.912 768.069 108.361 767.112 107.257C766.154 106.154 765.675 104.707 765.675 102.916C765.675 101.126 766.154 99.6786 767.112 98.5751C768.069 97.4716 769.329 96.9198 770.89 96.9198C772.452 96.9198 773.712 97.4716 774.669 98.5751C775.648 99.6577 776.137 101.105 776.137 102.916C776.137 104.728 775.648 106.185 774.669 107.288C773.712 108.371 772.452 108.912 770.89 108.912ZM784.007 97.1385H787.068L772.14 119H769.079L784.007 97.1385ZM770.89 106.726C771.744 106.726 772.4 106.393 772.858 105.727C773.337 105.061 773.576 104.124 773.576 102.916C773.576 101.709 773.337 100.772 772.858 100.105C772.4 99.4391 771.744 99.106 770.89 99.106C770.078 99.106 769.423 99.4495 768.923 100.137C768.444 100.803 768.205 101.729 768.205 102.916C768.205 104.103 768.444 105.04 768.923 105.727C769.423 106.393 770.078 106.726 770.89 106.726ZM785.225 119.219C783.664 119.219 782.404 118.667 781.446 117.563C780.489 116.46 780.01 115.013 780.01 113.222C780.01 111.432 780.489 109.985 781.446 108.881C782.404 107.778 783.664 107.226 785.225 107.226C786.787 107.226 788.047 107.778 789.004 108.881C789.983 109.985 790.472 111.432 790.472 113.222C790.472 115.013 789.983 116.46 789.004 117.563C788.047 118.667 786.787 119.219 785.225 119.219ZM785.225 117.032C786.058 117.032 786.714 116.699 787.193 116.033C787.672 115.346 787.911 114.409 787.911 113.222C787.911 112.036 787.672 111.109 787.193 110.443C786.714 109.756 786.058 109.412 785.225 109.412C784.393 109.412 783.737 109.745 783.258 110.412C782.779 111.078 782.54 112.015 782.54 113.222C782.54 114.43 782.779 115.367 783.258 116.033C783.737 116.699 784.393 117.032 785.225 117.032ZM665.932 137.135C668.389 137.135 670.263 137.729 671.554 138.916C672.865 140.081 673.521 141.851 673.521 144.225V154H669.836V151.97C669.357 152.699 668.67 153.261 667.775 153.656C666.9 154.031 665.838 154.219 664.589 154.219C663.34 154.219 662.247 154.01 661.31 153.594C660.373 153.157 659.644 152.563 659.124 151.814C658.624 151.043 658.374 150.179 658.374 149.222C658.374 147.723 658.926 146.525 660.029 145.63C661.154 144.714 662.913 144.256 665.307 144.256H669.617V144.006C669.617 142.84 669.263 141.945 668.555 141.32C667.868 140.696 666.838 140.383 665.464 140.383C664.527 140.383 663.6 140.529 662.684 140.821C661.789 141.112 661.029 141.518 660.404 142.039L658.874 139.197C659.748 138.53 660.8 138.02 662.028 137.666C663.257 137.312 664.558 137.135 665.932 137.135ZM665.401 151.377C666.38 151.377 667.244 151.158 667.993 150.721C668.764 150.263 669.305 149.617 669.617 148.784V146.848H665.588C663.34 146.848 662.216 147.587 662.216 149.066C662.216 149.773 662.497 150.336 663.059 150.752C663.621 151.168 664.402 151.377 665.401 151.377ZM688.712 137.135C690.336 137.135 691.783 137.489 693.054 138.197C694.344 138.905 695.354 139.905 696.083 141.195C696.812 142.486 697.176 143.975 697.176 145.661C697.176 147.348 696.812 148.847 696.083 150.159C695.354 151.449 694.344 152.449 693.054 153.157C691.783 153.865 690.336 154.219 688.712 154.219C687.567 154.219 686.516 154.021 685.558 153.625C684.621 153.23 683.83 152.636 683.185 151.845V154H679.468V130.827H683.372V139.353C684.038 138.624 684.819 138.072 685.714 137.698C686.63 137.323 687.63 137.135 688.712 137.135ZM688.275 150.877C689.712 150.877 690.888 150.398 691.804 149.44C692.741 148.483 693.21 147.223 693.21 145.661C693.21 144.1 692.741 142.84 691.804 141.882C690.888 140.925 689.712 140.446 688.275 140.446C687.338 140.446 686.495 140.664 685.746 141.102C684.996 141.518 684.403 142.122 683.965 142.913C683.528 143.704 683.31 144.62 683.31 145.661C683.31 146.702 683.528 147.619 683.965 148.41C684.403 149.201 684.996 149.815 685.746 150.252C686.495 150.669 687.338 150.877 688.275 150.877ZM707.973 137.135C710.43 137.135 712.303 137.729 713.594 138.916C714.906 140.081 715.562 141.851 715.562 144.225V154H711.877V151.97C711.398 152.699 710.711 153.261 709.815 153.656C708.941 154.031 707.879 154.219 706.63 154.219C705.381 154.219 704.288 154.01 703.351 153.594C702.414 153.157 701.685 152.563 701.164 151.814C700.665 151.043 700.415 150.179 700.415 149.222C700.415 147.723 700.967 146.525 702.07 145.63C703.194 144.714 704.954 144.256 707.348 144.256H711.658V144.006C711.658 142.84 711.304 141.945 710.596 141.32C709.909 140.696 708.878 140.383 707.504 140.383C706.567 140.383 705.641 140.529 704.725 140.821C703.83 141.112 703.07 141.518 702.445 142.039L700.915 139.197C701.789 138.53 702.841 138.02 704.069 137.666C705.297 137.312 706.599 137.135 707.973 137.135ZM707.442 151.377C708.42 151.377 709.284 151.158 710.034 150.721C710.804 150.263 711.346 149.617 711.658 148.784V146.848H707.629C705.381 146.848 704.256 147.587 704.256 149.066C704.256 149.773 704.537 150.336 705.1 150.752C705.662 151.168 706.442 151.377 707.442 151.377ZM730.972 137.135C733.075 137.135 734.761 137.75 736.031 138.978C737.301 140.206 737.936 142.028 737.936 144.443V154H734.032V144.943C734.032 143.486 733.689 142.393 733.002 141.664C732.315 140.914 731.336 140.54 730.066 140.54C728.63 140.54 727.495 140.977 726.662 141.851C725.829 142.705 725.413 143.944 725.413 145.568V154H721.509V137.323H725.225V139.478C725.871 138.707 726.683 138.124 727.661 137.729C728.64 137.333 729.743 137.135 730.972 137.135ZM760.312 130.827V154H756.564V151.845C755.919 152.636 755.117 153.23 754.159 153.625C753.222 154.021 752.181 154.219 751.036 154.219C749.433 154.219 747.986 153.865 746.695 153.157C745.425 152.449 744.426 151.449 743.697 150.159C742.968 148.847 742.604 147.348 742.604 145.661C742.604 143.975 742.968 142.486 743.697 141.195C744.426 139.905 745.425 138.905 746.695 138.197C747.986 137.489 749.433 137.135 751.036 137.135C752.14 137.135 753.149 137.323 754.066 137.698C754.982 138.072 755.762 138.634 756.408 139.384V130.827H760.312ZM751.505 150.877C752.442 150.877 753.285 150.669 754.034 150.252C754.784 149.815 755.377 149.201 755.814 148.41C756.252 147.619 756.47 146.702 756.47 145.661C756.47 144.62 756.252 143.704 755.814 142.913C755.377 142.122 754.784 141.518 754.034 141.102C753.285 140.664 752.442 140.446 751.505 140.446C750.568 140.446 749.724 140.664 748.975 141.102C748.225 141.518 747.632 142.122 747.195 142.913C746.758 143.704 746.539 144.62 746.539 145.661C746.539 146.702 746.758 147.619 747.195 148.41C747.632 149.201 748.225 149.815 748.975 150.252C749.724 150.669 750.568 150.877 751.505 150.877ZM773.851 154.219C772.164 154.219 770.645 153.854 769.291 153.126C767.938 152.397 766.876 151.387 766.106 150.096C765.356 148.784 764.981 147.306 764.981 145.661C764.981 144.017 765.356 142.549 766.106 141.258C766.876 139.967 767.938 138.957 769.291 138.228C770.645 137.5 772.164 137.135 773.851 137.135C775.558 137.135 777.089 137.5 778.442 138.228C779.795 138.957 780.847 139.967 781.596 141.258C782.367 142.549 782.752 144.017 782.752 145.661C782.752 147.306 782.367 148.784 781.596 150.096C780.847 151.387 779.795 152.397 778.442 153.126C777.089 153.854 775.558 154.219 773.851 154.219ZM773.851 150.877C775.288 150.877 776.474 150.398 777.411 149.44C778.348 148.483 778.817 147.223 778.817 145.661C778.817 144.1 778.348 142.84 777.411 141.882C776.474 140.925 775.288 140.446 773.851 140.446C772.414 140.446 771.228 140.925 770.291 141.882C769.375 142.84 768.916 144.1 768.916 145.661C768.916 147.223 769.375 148.483 770.291 149.44C771.228 150.398 772.414 150.877 773.851 150.877ZM796.885 137.135C798.987 137.135 800.674 137.75 801.944 138.978C803.214 140.206 803.849 142.028 803.849 144.443V154H799.945V144.943C799.945 143.486 799.602 142.393 798.915 141.664C798.228 140.914 797.249 140.54 795.979 140.54C794.542 140.54 793.408 140.977 792.575 141.851C791.742 142.705 791.326 143.944 791.326 145.568V154H787.422V137.323H791.138V139.478C791.784 138.707 792.596 138.124 793.574 137.729C794.553 137.333 795.656 137.135 796.885 137.135ZM816.109 137.135C818.566 137.135 820.44 137.729 821.731 138.916C823.043 140.081 823.698 141.851 823.698 144.225V154H820.013V151.97C819.534 152.699 818.847 153.261 817.952 153.656C817.077 154.031 816.016 154.219 814.766 154.219C813.517 154.219 812.424 154.01 811.487 153.594C810.55 153.157 809.822 152.563 809.301 151.814C808.801 151.043 808.551 150.179 808.551 149.222C808.551 147.723 809.103 146.525 810.207 145.63C811.331 144.714 813.09 144.256 815.485 144.256H819.795V144.006C819.795 142.84 819.441 141.945 818.733 141.32C818.046 140.696 817.015 140.383 815.641 140.383C814.704 140.383 813.777 140.529 812.861 140.821C811.966 141.112 811.206 141.518 810.581 142.039L809.051 139.197C809.926 138.53 810.977 138.02 812.205 137.666C813.434 137.312 814.735 137.135 816.109 137.135ZM815.578 151.377C816.557 151.377 817.421 151.158 818.171 150.721C818.941 150.263 819.482 149.617 819.795 148.784V146.848H815.766C813.517 146.848 812.393 147.587 812.393 149.066C812.393 149.773 812.674 150.336 813.236 150.752C813.798 151.168 814.579 151.377 815.578 151.377ZM850.695 137.135C852.798 137.135 854.463 137.75 855.692 138.978C856.92 140.186 857.535 142.007 857.535 144.443V154H853.631V144.943C853.631 143.486 853.308 142.393 852.663 141.664C852.017 140.914 851.091 140.54 849.883 140.54C848.571 140.54 847.52 140.977 846.729 141.851C845.937 142.705 845.542 143.933 845.542 145.536V154H841.638V144.943C841.638 143.486 841.315 142.393 840.67 141.664C840.024 140.914 839.098 140.54 837.89 140.54C836.558 140.54 835.496 140.966 834.705 141.82C833.934 142.674 833.549 143.912 833.549 145.536V154H829.645V137.323H833.362V139.446C833.987 138.697 834.767 138.124 835.704 137.729C836.641 137.333 837.682 137.135 838.827 137.135C840.077 137.135 841.18 137.375 842.138 137.854C843.116 138.312 843.887 138.999 844.449 139.915C845.136 139.04 846.021 138.364 847.103 137.885C848.186 137.385 849.383 137.135 850.695 137.135ZM700.036 172.135C702.493 172.135 704.367 172.729 705.658 173.916C706.97 175.081 707.625 176.851 707.625 179.225V189H703.94V186.97C703.461 187.699 702.774 188.261 701.879 188.656C701.005 189.031 699.943 189.219 698.693 189.219C697.444 189.219 696.351 189.01 695.414 188.594C694.477 188.157 693.749 187.563 693.228 186.814C692.728 186.043 692.479 185.179 692.479 184.222C692.479 182.723 693.03 181.525 694.134 180.63C695.258 179.714 697.017 179.256 699.412 179.256H703.722V179.006C703.722 177.84 703.368 176.945 702.66 176.32C701.973 175.696 700.942 175.383 699.568 175.383C698.631 175.383 697.705 175.529 696.788 175.821C695.893 176.112 695.133 176.518 694.509 177.039L692.978 174.197C693.853 173.53 694.904 173.02 696.133 172.666C697.361 172.312 698.662 172.135 700.036 172.135ZM699.505 186.377C700.484 186.377 701.348 186.158 702.098 185.721C702.868 185.263 703.409 184.617 703.722 183.784V181.848H699.693C697.444 181.848 696.32 182.587 696.32 184.066C696.32 184.773 696.601 185.336 697.163 185.752C697.725 186.168 698.506 186.377 699.505 186.377ZM738.818 180.755C738.818 181.026 738.798 181.411 738.756 181.911H725.67C725.899 183.139 726.493 184.118 727.45 184.846C728.429 185.554 729.637 185.908 731.073 185.908C732.905 185.908 734.415 185.304 735.602 184.097L737.694 186.502C736.945 187.397 735.997 188.073 734.852 188.532C733.707 188.99 732.416 189.219 730.98 189.219C729.147 189.219 727.534 188.854 726.139 188.126C724.744 187.397 723.661 186.387 722.891 185.096C722.141 183.784 721.766 182.306 721.766 180.661C721.766 179.037 722.131 177.58 722.86 176.289C723.609 174.977 724.64 173.957 725.951 173.228C727.263 172.5 728.741 172.135 730.386 172.135C732.01 172.135 733.457 172.5 734.727 173.228C736.018 173.936 737.017 174.946 737.725 176.258C738.454 177.549 738.818 179.048 738.818 180.755ZM730.386 175.258C729.137 175.258 728.075 175.633 727.201 176.383C726.347 177.111 725.826 178.09 725.639 179.318H735.102C734.935 178.111 734.425 177.132 733.572 176.383C732.718 175.633 731.656 175.258 730.386 175.258ZM748.658 189.219C747.305 189.219 745.983 189.042 744.692 188.688C743.401 188.334 742.371 187.886 741.6 187.345L743.099 184.378C743.849 184.878 744.744 185.284 745.785 185.596C746.847 185.887 747.888 186.033 748.908 186.033C751.24 186.033 752.406 185.419 752.406 184.19C752.406 183.607 752.104 183.201 751.5 182.972C750.917 182.743 749.97 182.525 748.658 182.317C747.284 182.108 746.16 181.869 745.285 181.598C744.432 181.328 743.682 180.859 743.037 180.193C742.412 179.506 742.1 178.559 742.1 177.351C742.1 175.769 742.756 174.509 744.067 173.572C745.4 172.614 747.19 172.135 749.439 172.135C750.584 172.135 751.729 172.271 752.874 172.541C754.02 172.791 754.957 173.135 755.685 173.572L754.186 176.539C752.77 175.706 751.178 175.29 749.408 175.29C748.263 175.29 747.388 175.467 746.784 175.821C746.202 176.154 745.91 176.601 745.91 177.164C745.91 177.788 746.222 178.236 746.847 178.506C747.492 178.756 748.481 178.996 749.814 179.225C751.146 179.433 752.239 179.672 753.093 179.943C753.947 180.214 754.675 180.672 755.279 181.317C755.904 181.963 756.216 182.879 756.216 184.066C756.216 185.627 755.54 186.876 754.186 187.813C752.833 188.75 750.99 189.219 748.658 189.219ZM768.167 189.219C766.438 189.219 764.887 188.854 763.513 188.126C762.139 187.397 761.067 186.387 760.296 185.096C759.526 183.784 759.141 182.306 759.141 180.661C759.141 179.017 759.526 177.549 760.296 176.258C761.067 174.967 762.129 173.957 763.482 173.228C764.856 172.5 766.418 172.135 768.167 172.135C769.811 172.135 771.248 172.469 772.476 173.135C773.726 173.801 774.663 174.759 775.287 176.008L772.289 177.757C771.81 176.987 771.206 176.414 770.478 176.039C769.77 175.644 768.989 175.446 768.135 175.446C766.678 175.446 765.47 175.925 764.513 176.882C763.555 177.819 763.076 179.079 763.076 180.661C763.076 182.244 763.544 183.514 764.481 184.472C765.439 185.408 766.657 185.877 768.135 185.877C768.989 185.877 769.77 185.69 770.478 185.315C771.206 184.919 771.81 184.336 772.289 183.566L775.287 185.315C774.642 186.564 773.694 187.532 772.445 188.219C771.217 188.885 769.791 189.219 768.167 189.219ZM786.85 189.219C785.164 189.219 783.644 188.854 782.29 188.126C780.937 187.397 779.875 186.387 779.105 185.096C778.355 183.784 777.981 182.306 777.981 180.661C777.981 179.017 778.355 177.549 779.105 176.258C779.875 174.967 780.937 173.957 782.29 173.228C783.644 172.5 785.164 172.135 786.85 172.135C788.557 172.135 790.088 172.5 791.441 173.228C792.794 173.957 793.846 174.967 794.595 176.258C795.366 177.549 795.751 179.017 795.751 180.661C795.751 182.306 795.366 183.784 794.595 185.096C793.846 186.387 792.794 187.397 791.441 188.126C790.088 188.854 788.557 189.219 786.85 189.219ZM786.85 185.877C788.287 185.877 789.474 185.398 790.41 184.44C791.347 183.483 791.816 182.223 791.816 180.661C791.816 179.1 791.347 177.84 790.41 176.882C789.474 175.925 788.287 175.446 786.85 175.446C785.414 175.446 784.227 175.925 783.29 176.882C782.374 177.84 781.916 179.1 781.916 180.661C781.916 182.223 782.374 183.483 783.29 184.44C784.227 185.398 785.414 185.877 786.85 185.877ZM800.421 165.827H804.325V189H800.421V165.827ZM816.757 172.135C819.213 172.135 821.087 172.729 822.378 173.916C823.69 175.081 824.346 176.851 824.346 179.225V189H820.66V186.97C820.181 187.699 819.494 188.261 818.599 188.656C817.725 189.031 816.663 189.219 815.414 189.219C814.164 189.219 813.071 189.01 812.134 188.594C811.197 188.157 810.469 187.563 809.948 186.814C809.449 186.043 809.199 185.179 809.199 184.222C809.199 182.723 809.75 181.525 810.854 180.63C811.978 179.714 813.738 179.256 816.132 179.256H820.442V179.006C820.442 177.84 820.088 176.945 819.38 176.32C818.693 175.696 817.662 175.383 816.288 175.383C815.351 175.383 814.425 175.529 813.509 175.821C812.613 176.112 811.853 176.518 811.229 177.039L809.698 174.197C810.573 173.53 811.624 173.02 812.853 172.666C814.081 172.312 815.382 172.135 816.757 172.135ZM816.226 186.377C817.204 186.377 818.068 186.158 818.818 185.721C819.588 185.263 820.129 184.617 820.442 183.784V181.848H816.413C814.164 181.848 813.04 182.587 813.04 184.066C813.04 184.773 813.321 185.336 813.883 185.752C814.445 186.168 815.226 186.377 816.226 186.377Z" fill="white"/>
<path d="M41.6 30.8C44.2667 31.4667 46 33.6 46.8 37.2C42.9333 39.3333 39 42.5333 35 46.8C31 51.0667 28.2 55.7333 26.6 60.8H27.2C32.2667 60.8 36.2 62.1333 39 64.8C41.9333 67.3333 43.4 70.6667 43.4 74.8C43.4 78.6667 41.9333 81.9333 39 84.6C36.2 87.2667 32.8 88.6 28.8 88.6C24 88.6 20.2 86.9333 17.4 83.6C14.6 80.1333 13.2 76 13.2 71.2C13.2 63.0667 15.8 55.8 21 49.4C26.2 43 33.0667 36.8 41.6 30.8ZM81.6 30.8C84.2667 31.4667 86 33.6 86.8 37.2C82.9333 39.3333 79 42.5333 75 46.8C71 51.0667 68.2 55.7333 66.6 60.8H67.2C72.2667 60.8 76.2 62.1333 79 64.8C81.9333 67.3333 83.4 70.6667 83.4 74.8C83.4 78.6667 81.9333 81.9333 79 84.6C76.2 87.2667 72.8 88.6 68.8 88.6C64 88.6 60.2 86.9333 57.4 83.6C54.6 80.1333 53.2 76 53.2 71.2C53.2 63.0667 55.8 55.8 61 49.4C66.2 43 73.0667 36.8 81.6 30.8Z" fill="#C6DAD0"/>
<path d="M139.512 79.4C135.645 79.4 132.632 78.32 130.472 76.16C128.312 73.9733 127.232 70.8533 127.232 66.8V51H132.432V66.6C132.432 72.0933 134.805 74.84 139.552 74.84C144.272 74.84 146.632 72.0933 146.632 66.6V51H151.752V66.8C151.752 70.8533 150.672 73.9733 148.512 76.16C146.378 78.32 143.378 79.4 139.512 79.4ZM186.714 57.4C189.408 57.4 191.541 58.1867 193.114 59.76C194.688 61.3067 195.474 63.64 195.474 66.76V79H190.474V67.4C190.474 65.5333 190.061 64.1333 189.234 63.2C188.408 62.24 187.221 61.76 185.674 61.76C183.994 61.76 182.648 62.32 181.634 63.44C180.621 64.5333 180.114 66.1067 180.114 68.16V79H175.114V67.4C175.114 65.5333 174.701 64.1333 173.874 63.2C173.048 62.24 171.861 61.76 170.314 61.76C168.608 61.76 167.248 62.3067 166.234 63.4C165.248 64.4933 164.754 66.08 164.754 68.16V79H159.754V57.64H164.514V60.36C165.314 59.4 166.314 58.6667 167.514 58.16C168.714 57.6533 170.048 57.4 171.514 57.4C173.114 57.4 174.528 57.7067 175.754 58.32C177.008 58.9067 177.994 59.7867 178.714 60.96C179.594 59.84 180.728 58.9733 182.114 58.36C183.501 57.72 185.034 57.4 186.714 57.4ZM211.224 57.4C214.37 57.4 216.77 58.16 218.424 59.68C220.104 61.1733 220.944 63.44 220.944 66.48V79H216.224V76.4C215.61 77.3333 214.73 78.0533 213.584 78.56C212.464 79.04 211.104 79.28 209.504 79.28C207.904 79.28 206.504 79.0133 205.304 78.48C204.104 77.92 203.17 77.16 202.504 76.2C201.864 75.2133 201.544 74.1067 201.544 72.88C201.544 70.96 202.25 69.4267 203.664 68.28C205.104 67.1067 207.357 66.52 210.424 66.52H215.944V66.2C215.944 64.7067 215.49 63.56 214.584 62.76C213.704 61.96 212.384 61.56 210.624 61.56C209.424 61.56 208.237 61.7467 207.064 62.12C205.917 62.4933 204.944 63.0133 204.144 63.68L202.184 60.04C203.304 59.1867 204.65 58.5333 206.224 58.08C207.797 57.6267 209.464 57.4 211.224 57.4ZM210.544 75.64C211.797 75.64 212.904 75.36 213.864 74.8C214.85 74.2133 215.544 73.3867 215.944 72.32V69.84H210.784C207.904 69.84 206.464 70.7867 206.464 72.68C206.464 73.5867 206.824 74.3067 207.544 74.84C208.264 75.3733 209.264 75.64 210.544 75.64ZM260.895 68.44C260.895 68.7867 260.868 69.28 260.815 69.92H244.055C244.348 71.4933 245.108 72.7467 246.335 73.68C247.588 74.5867 249.135 75.04 250.975 75.04C253.322 75.04 255.255 74.2667 256.775 72.72L259.455 75.8C258.495 76.9467 257.282 77.8133 255.815 78.4C254.348 78.9867 252.695 79.28 250.855 79.28C248.508 79.28 246.442 78.8133 244.655 77.88C242.868 76.9467 241.482 75.6533 240.495 74C239.535 72.32 239.055 70.4267 239.055 68.32C239.055 66.24 239.522 64.3733 240.455 62.72C241.415 61.04 242.735 59.7333 244.415 58.8C246.095 57.8667 247.988 57.4 250.095 57.4C252.175 57.4 254.028 57.8667 255.655 58.8C257.308 59.7067 258.588 61 259.495 62.68C260.428 64.3333 260.895 66.2533 260.895 68.44ZM250.095 61.4C248.495 61.4 247.135 61.88 246.015 62.84C244.922 63.7733 244.255 65.0267 244.015 66.6H256.135C255.922 65.0533 255.268 63.8 254.175 62.84C253.082 61.88 251.722 61.4 250.095 61.4ZM293.858 57.4C296.551 57.4 298.685 58.1867 300.258 59.76C301.831 61.3067 302.618 63.64 302.618 66.76V79H297.618V67.4C297.618 65.5333 297.205 64.1333 296.378 63.2C295.551 62.24 294.365 61.76 292.818 61.76C291.138 61.76 289.791 62.32 288.778 63.44C287.765 64.5333 287.258 66.1067 287.258 68.16V79H282.258V67.4C282.258 65.5333 281.845 64.1333 281.018 63.2C280.191 62.24 279.005 61.76 277.458 61.76C275.751 61.76 274.391 62.3067 273.378 63.4C272.391 64.4933 271.898 66.08 271.898 68.16V79H266.898V57.64H271.658V60.36C272.458 59.4 273.458 58.6667 274.658 58.16C275.858 57.6533 277.191 57.4 278.658 57.4C280.258 57.4 281.671 57.7067 282.898 58.32C284.151 58.9067 285.138 59.7867 285.858 60.96C286.738 59.84 287.871 58.9733 289.258 58.36C290.645 57.72 292.178 57.4 293.858 57.4ZM332.262 79.28C330.049 79.28 328.062 78.8133 326.302 77.88C324.542 76.9467 323.169 75.6533 322.182 74C321.195 72.32 320.702 70.4267 320.702 68.32C320.702 66.2133 321.195 64.3333 322.182 62.68C323.169 61.0267 324.529 59.7333 326.262 58.8C328.022 57.8667 330.022 57.4 332.262 57.4C334.369 57.4 336.209 57.8267 337.782 58.68C339.382 59.5333 340.582 60.76 341.382 62.36L337.542 64.6C336.929 63.6133 336.155 62.88 335.222 62.4C334.315 61.8933 333.315 61.64 332.222 61.64C330.355 61.64 328.809 62.2533 327.582 63.48C326.355 64.68 325.742 66.2933 325.742 68.32C325.742 70.3467 326.342 71.9733 327.542 73.2C328.769 74.4 330.329 75 332.222 75C333.315 75 334.315 74.76 335.222 74.28C336.155 73.7733 336.929 73.0267 337.542 72.04L341.382 74.28C340.555 75.88 339.342 77.12 337.742 78C336.169 78.8533 334.342 79.28 332.262 79.28ZM355.064 57.4C358.211 57.4 360.611 58.16 362.264 59.68C363.944 61.1733 364.784 63.44 364.784 66.48V79H360.064V76.4C359.451 77.3333 358.571 78.0533 357.424 78.56C356.304 79.04 354.944 79.28 353.344 79.28C351.744 79.28 350.344 79.0133 349.144 78.48C347.944 77.92 347.011 77.16 346.344 76.2C345.704 75.2133 345.384 74.1067 345.384 72.88C345.384 70.96 346.091 69.4267 347.504 68.28C348.944 67.1067 351.198 66.52 354.264 66.52H359.784V66.2C359.784 64.7067 359.331 63.56 358.424 62.76C357.544 61.96 356.224 61.56 354.464 61.56C353.264 61.56 352.078 61.7467 350.904 62.12C349.758 62.4933 348.784 63.0133 347.984 63.68L346.024 60.04C347.144 59.1867 348.491 58.5333 350.064 58.08C351.638 57.6267 353.304 57.4 355.064 57.4ZM354.384 75.64C355.638 75.64 356.744 75.36 357.704 74.8C358.691 74.2133 359.384 73.3867 359.784 72.32V69.84H354.624C351.744 69.84 350.304 70.7867 350.304 72.68C350.304 73.5867 350.664 74.3067 351.384 74.84C352.104 75.3733 353.104 75.64 354.384 75.64ZM393.516 49.32V79H388.716V76.24C387.89 77.2533 386.863 78.0133 385.636 78.52C384.436 79.0267 383.103 79.28 381.636 79.28C379.583 79.28 377.73 78.8267 376.076 77.92C374.45 77.0133 373.17 75.7333 372.236 74.08C371.303 72.4 370.836 70.48 370.836 68.32C370.836 66.16 371.303 64.2533 372.236 62.6C373.17 60.9467 374.45 59.6667 376.076 58.76C377.73 57.8533 379.583 57.4 381.636 57.4C383.05 57.4 384.343 57.64 385.516 58.12C386.69 58.6 387.69 59.32 388.516 60.28V49.32H393.516ZM382.236 75C383.436 75 384.516 74.7333 385.476 74.2C386.436 73.64 387.196 72.8533 387.756 71.84C388.316 70.8267 388.596 69.6533 388.596 68.32C388.596 66.9867 388.316 65.8133 387.756 64.8C387.196 63.7867 386.436 63.0133 385.476 62.48C384.516 61.92 383.436 61.64 382.236 61.64C381.036 61.64 379.956 61.92 378.996 62.48C378.036 63.0133 377.276 63.7867 376.716 64.8C376.156 65.8133 375.876 66.9867 375.876 68.32C375.876 69.6533 376.156 70.8267 376.716 71.84C377.276 72.8533 378.036 73.64 378.996 74.2C379.956 74.7333 381.036 75 382.236 75ZM409.417 57.4C412.564 57.4 414.964 58.16 416.617 59.68C418.297 61.1733 419.137 63.44 419.137 66.48V79H414.417V76.4C413.804 77.3333 412.924 78.0533 411.777 78.56C410.657 79.04 409.297 79.28 407.697 79.28C406.097 79.28 404.697 79.0133 403.497 78.48C402.297 77.92 401.364 77.16 400.697 76.2C400.057 75.2133 399.737 74.1067 399.737 72.88C399.737 70.96 400.444 69.4267 401.857 68.28C403.297 67.1067 405.551 66.52 408.617 66.52H414.137V66.2C414.137 64.7067 413.684 63.56 412.777 62.76C411.897 61.96 410.577 61.56 408.817 61.56C407.617 61.56 406.431 61.7467 405.257 62.12C404.111 62.4933 403.137 63.0133 402.337 63.68L400.377 60.04C401.497 59.1867 402.844 58.5333 404.417 58.08C405.991 57.6267 407.657 57.4 409.417 57.4ZM408.737 75.64C409.991 75.64 411.097 75.36 412.057 74.8C413.044 74.2133 413.737 73.3867 414.137 72.32V69.84H408.977C406.097 69.84 404.657 70.7867 404.657 72.68C404.657 73.5867 405.017 74.3067 405.737 74.84C406.457 75.3733 407.457 75.64 408.737 75.64ZM446.249 61.84C450.196 61.84 453.116 62.6133 455.009 64.16C456.902 65.68 457.849 67.76 457.849 70.4C457.849 72.08 457.436 73.6 456.609 74.96C455.782 76.32 454.542 77.4 452.889 78.2C451.236 79 449.196 79.4 446.769 79.4C444.769 79.4 442.836 79.12 440.969 78.56C439.102 77.9733 437.529 77.1733 436.249 76.16L438.449 72.12C439.489 72.9733 440.729 73.6533 442.169 74.16C443.636 74.64 445.142 74.88 446.689 74.88C448.529 74.88 449.969 74.5067 451.009 73.76C452.076 72.9867 452.609 71.9333 452.609 70.6C452.609 69.16 452.036 68.08 450.889 67.36C449.769 66.6133 447.836 66.24 445.089 66.24H438.329L439.769 51H456.209V55.36H444.169L443.569 61.84H446.249ZM180.57 124.28C178.357 124.28 176.37 123.813 174.61 122.88C172.85 121.947 171.477 120.653 170.49 119C169.503 117.32 169.01 115.427 169.01 113.32C169.01 111.213 169.503 109.333 170.49 107.68C171.477 106.027 172.837 104.733 174.57 103.8C176.33 102.867 178.33 102.4 180.57 102.4C182.677 102.4 184.517 102.827 186.09 103.68C187.69 104.533 188.89 105.76 189.69 107.36L185.85 109.6C185.237 108.613 184.463 107.88 183.53 107.4C182.623 106.893 181.623 106.64 180.53 106.64C178.663 106.64 177.117 107.253 175.89 108.48C174.663 109.68 174.05 111.293 174.05 113.32C174.05 115.347 174.65 116.973 175.85 118.2C177.077 119.4 178.637 120 180.53 120C181.623 120 182.623 119.76 183.53 119.28C184.463 118.773 185.237 118.027 185.85 117.04L189.69 119.28C188.863 120.88 187.65 122.12 186.05 123C184.477 123.853 182.65 124.28 180.57 124.28ZM199.972 105.76C201.412 103.52 203.945 102.4 207.572 102.4V107.16C207.145 107.08 206.759 107.04 206.412 107.04C204.465 107.04 202.945 107.613 201.852 108.76C200.759 109.88 200.212 111.507 200.212 113.64V124H195.212V102.64H199.972V105.76ZM213.014 102.64H218.014V124H213.014V102.64ZM215.534 99.12C214.627 99.12 213.867 98.84 213.254 98.28C212.64 97.6933 212.334 96.9733 212.334 96.12C212.334 95.2667 212.64 94.56 213.254 94C213.867 93.4133 214.627 93.12 215.534 93.12C216.44 93.12 217.2 93.4 217.814 93.96C218.427 94.4933 218.734 95.1733 218.734 96C218.734 96.88 218.427 97.6267 217.814 98.24C217.227 98.8267 216.467 99.12 215.534 99.12ZM233.936 102.4C237.083 102.4 239.483 103.16 241.136 104.68C242.816 106.173 243.656 108.44 243.656 111.48V124H238.936V121.4C238.323 122.333 237.443 123.053 236.296 123.56C235.176 124.04 233.816 124.28 232.216 124.28C230.616 124.28 229.216 124.013 228.016 123.48C226.816 122.92 225.883 122.16 225.216 121.2C224.576 120.213 224.256 119.107 224.256 117.88C224.256 115.96 224.963 114.427 226.376 113.28C227.816 112.107 230.069 111.52 233.136 111.52H238.656V111.2C238.656 109.707 238.203 108.56 237.296 107.76C236.416 106.96 235.096 106.56 233.336 106.56C232.136 106.56 230.949 106.747 229.776 107.12C228.629 107.493 227.656 108.013 226.856 108.68L224.896 105.04C226.016 104.187 227.363 103.533 228.936 103.08C230.509 102.627 232.176 102.4 233.936 102.4ZM233.256 120.64C234.509 120.64 235.616 120.36 236.576 119.8C237.563 119.213 238.256 118.387 238.656 117.32V114.84H233.496C230.616 114.84 229.176 115.787 229.176 117.68C229.176 118.587 229.536 119.307 230.256 119.84C230.976 120.373 231.976 120.64 233.256 120.64ZM263.393 102.4C266.086 102.4 268.246 103.187 269.873 104.76C271.5 106.333 272.313 108.667 272.313 111.76V124H267.313V112.4C267.313 110.533 266.873 109.133 265.993 108.2C265.113 107.24 263.86 106.76 262.233 106.76C260.393 106.76 258.94 107.32 257.873 108.44C256.806 109.533 256.273 111.12 256.273 113.2V124H251.273V102.64H256.033V105.4C256.86 104.413 257.9 103.667 259.153 103.16C260.406 102.653 261.82 102.4 263.393 102.4ZM289.851 124.28C287.638 124.28 285.651 123.813 283.891 122.88C282.131 121.947 280.758 120.653 279.771 119C278.784 117.32 278.291 115.427 278.291 113.32C278.291 111.213 278.784 109.333 279.771 107.68C280.758 106.027 282.118 104.733 283.851 103.8C285.611 102.867 287.611 102.4 289.851 102.4C291.958 102.4 293.798 102.827 295.371 103.68C296.971 104.533 298.171 105.76 298.971 107.36L295.131 109.6C294.518 108.613 293.744 107.88 292.811 107.4C291.904 106.893 290.904 106.64 289.811 106.64C287.944 106.64 286.398 107.253 285.171 108.48C283.944 109.68 283.331 111.293 283.331 113.32C283.331 115.347 283.931 116.973 285.131 118.2C286.358 119.4 287.918 120 289.811 120C290.904 120 291.904 119.76 292.811 119.28C293.744 118.773 294.518 118.027 295.131 117.04L298.971 119.28C298.144 120.88 296.931 122.12 295.331 123C293.758 123.853 291.931 124.28 289.851 124.28ZM287.771 133.12C286.331 133.12 285.104 132.84 284.091 132.28L285.011 129.92C285.838 130.347 286.744 130.56 287.731 130.56C289.144 130.56 289.851 130.08 289.851 129.12C289.851 128.72 289.678 128.4 289.331 128.16C288.984 127.92 288.451 127.8 287.731 127.8H286.491L287.571 123.72H290.291L289.731 125.96C290.878 126.093 291.744 126.453 292.331 127.04C292.918 127.653 293.211 128.413 293.211 129.32C293.211 130.467 292.718 131.387 291.731 132.08C290.744 132.773 289.424 133.12 287.771 133.12ZM312.653 102.4C315.8 102.4 318.2 103.16 319.853 104.68C321.533 106.173 322.373 108.44 322.373 111.48V124H317.653V121.4C317.04 122.333 316.16 123.053 315.013 123.56C313.893 124.04 312.533 124.28 310.933 124.28C309.333 124.28 307.933 124.013 306.733 123.48C305.533 122.92 304.6 122.16 303.933 121.2C303.293 120.213 302.973 119.107 302.973 117.88C302.973 115.96 303.68 114.427 305.093 113.28C306.533 112.107 308.787 111.52 311.853 111.52H317.373V111.2C317.373 109.707 316.92 108.56 316.013 107.76C315.133 106.96 313.813 106.56 312.053 106.56C310.853 106.56 309.667 106.747 308.493 107.12C307.347 107.493 306.373 108.013 305.573 108.68L303.613 105.04C304.733 104.187 306.08 103.533 307.653 103.08C309.227 102.627 310.893 102.4 312.653 102.4ZM311.973 120.64C313.227 120.64 314.333 120.36 315.293 119.8C316.28 119.213 316.973 118.387 317.373 117.32V114.84H312.213C309.333 114.84 307.893 115.787 307.893 117.68C307.893 118.587 308.253 119.307 308.973 119.84C309.693 120.373 310.693 120.64 311.973 120.64ZM336.59 124.28C334.857 124.28 333.163 124.053 331.51 123.6C329.857 123.147 328.537 122.573 327.55 121.88L329.47 118.08C330.43 118.72 331.577 119.24 332.91 119.64C334.27 120.013 335.603 120.2 336.91 120.2C339.897 120.2 341.39 119.413 341.39 117.84C341.39 117.093 341.003 116.573 340.23 116.28C339.483 115.987 338.27 115.707 336.59 115.44C334.83 115.173 333.39 114.867 332.27 114.52C331.177 114.173 330.217 113.573 329.39 112.72C328.59 111.84 328.19 110.627 328.19 109.08C328.19 107.053 329.03 105.44 330.71 104.24C332.417 103.013 334.71 102.4 337.59 102.4C339.057 102.4 340.523 102.573 341.99 102.92C343.457 103.24 344.657 103.68 345.59 104.24L343.67 108.04C341.857 106.973 339.817 106.44 337.55 106.44C336.083 106.44 334.963 106.667 334.19 107.12C333.443 107.547 333.07 108.12 333.07 108.84C333.07 109.64 333.47 110.213 334.27 110.56C335.097 110.88 336.363 111.187 338.07 111.48C339.777 111.747 341.177 112.053 342.27 112.4C343.363 112.747 344.297 113.333 345.07 114.16C345.87 114.987 346.27 116.16 346.27 117.68C346.27 119.68 345.403 121.28 343.67 122.48C341.937 123.68 339.577 124.28 336.59 124.28ZM376.151 102.4C378.844 102.4 381.004 103.187 382.631 104.76C384.257 106.333 385.071 108.667 385.071 111.76V124H380.071V112.4C380.071 110.533 379.631 109.133 378.751 108.2C377.871 107.24 376.617 106.76 374.991 106.76C373.151 106.76 371.697 107.32 370.631 108.44C369.564 109.533 369.031 111.12 369.031 113.2V124H364.031V102.64H368.791V105.4C369.617 104.413 370.657 103.667 371.911 103.16C373.164 102.653 374.577 102.4 376.151 102.4ZM402.409 124.28C400.249 124.28 398.302 123.813 396.569 122.88C394.836 121.947 393.476 120.653 392.489 119C391.529 117.32 391.049 115.427 391.049 113.32C391.049 111.213 391.529 109.333 392.489 107.68C393.476 106.027 394.836 104.733 396.569 103.8C398.302 102.867 400.249 102.4 402.409 102.4C404.596 102.4 406.556 102.867 408.289 103.8C410.022 104.733 411.369 106.027 412.329 107.68C413.316 109.333 413.809 111.213 413.809 113.32C413.809 115.427 413.316 117.32 412.329 119C411.369 120.653 410.022 121.947 408.289 122.88C406.556 123.813 404.596 124.28 402.409 124.28ZM402.409 120C404.249 120 405.769 119.387 406.969 118.16C408.169 116.933 408.769 115.32 408.769 113.32C408.769 111.32 408.169 109.707 406.969 108.48C405.769 107.253 404.249 106.64 402.409 106.64C400.569 106.64 399.049 107.253 397.849 108.48C396.676 109.707 396.089 111.32 396.089 113.32C396.089 115.32 396.676 116.933 397.849 118.16C399.049 119.387 400.569 120 402.409 120ZM146.957 154.44C148.504 154.947 149.73 155.8 150.637 157C151.544 158.173 151.997 159.64 151.997 161.4C151.997 163.827 151.064 165.707 149.197 167.04C147.33 168.347 144.61 169 141.037 169H127.117V141H140.237C143.544 141 146.09 141.653 147.877 142.96C149.664 144.24 150.557 146.013 150.557 148.28C150.557 149.667 150.237 150.893 149.597 151.96C148.957 153.027 148.077 153.853 146.957 154.44ZM132.317 145.08V152.8H139.677C141.49 152.8 142.877 152.48 143.837 151.84C144.824 151.173 145.317 150.213 145.317 148.96C145.317 147.68 144.824 146.72 143.837 146.08C142.877 145.413 141.49 145.08 139.677 145.08H132.317ZM140.717 164.92C144.744 164.92 146.757 163.573 146.757 160.88C146.757 158.187 144.744 156.84 140.717 156.84H132.317V164.92H140.717ZM163.027 150.76C164.467 148.52 167 147.4 170.627 147.4V152.16C170.2 152.08 169.813 152.04 169.467 152.04C167.52 152.04 166 152.613 164.907 153.76C163.813 154.88 163.267 156.507 163.267 158.64V169H158.267V147.64H163.027V150.76ZM184.111 147.4C187.258 147.4 189.658 148.16 191.311 149.68C192.991 151.173 193.831 153.44 193.831 156.48V169H189.111V166.4C188.498 167.333 187.618 168.053 186.471 168.56C185.351 169.04 183.991 169.28 182.391 169.28C180.791 169.28 179.391 169.013 178.191 168.48C176.991 167.92 176.058 167.16 175.391 166.2C174.751 165.213 174.431 164.107 174.431 162.88C174.431 160.96 175.138 159.427 176.551 158.28C177.991 157.107 180.244 156.52 183.311 156.52H188.831V156.2C188.831 154.707 188.378 153.56 187.471 152.76C186.591 151.96 185.271 151.56 183.511 151.56C182.311 151.56 181.124 151.747 179.951 152.12C178.804 152.493 177.831 153.013 177.031 153.68L175.071 150.04C176.191 149.187 177.538 148.533 179.111 148.08C180.684 147.627 182.351 147.4 184.111 147.4ZM183.431 165.64C184.684 165.64 185.791 165.36 186.751 164.8C187.738 164.213 188.431 163.387 188.831 162.32V159.84H183.671C180.791 159.84 179.351 160.787 179.351 162.68C179.351 163.587 179.711 164.307 180.431 164.84C181.151 165.373 182.151 165.64 183.431 165.64ZM208.048 169.28C206.315 169.28 204.621 169.053 202.968 168.6C201.315 168.147 199.995 167.573 199.008 166.88L200.928 163.08C201.888 163.72 203.035 164.24 204.368 164.64C205.728 165.013 207.061 165.2 208.368 165.2C211.355 165.2 212.848 164.413 212.848 162.84C212.848 162.093 212.461 161.573 211.688 161.28C210.941 160.987 209.728 160.707 208.048 160.44C206.288 160.173 204.848 159.867 203.728 159.52C202.635 159.173 201.675 158.573 200.848 157.72C200.048 156.84 199.648 155.627 199.648 154.08C199.648 152.053 200.488 150.44 202.168 149.24C203.875 148.013 206.168 147.4 209.048 147.4C210.515 147.4 211.981 147.573 213.448 147.92C214.915 148.24 216.115 148.68 217.048 149.24L215.128 153.04C213.315 151.973 211.275 151.44 209.008 151.44C207.541 151.44 206.421 151.667 205.648 152.12C204.901 152.547 204.528 153.12 204.528 153.84C204.528 154.64 204.928 155.213 205.728 155.56C206.555 155.88 207.821 156.187 209.528 156.48C211.235 156.747 212.635 157.053 213.728 157.4C214.821 157.747 215.755 158.333 216.528 159.16C217.328 159.987 217.728 161.16 217.728 162.68C217.728 164.68 216.861 166.28 215.128 167.48C213.395 168.68 211.035 169.28 208.048 169.28ZM223.234 147.64H228.234V169H223.234V147.64ZM225.754 144.12C224.847 144.12 224.087 143.84 223.474 143.28C222.861 142.693 222.554 141.973 222.554 141.12C222.554 140.267 222.861 139.56 223.474 139C224.087 138.413 224.847 138.12 225.754 138.12C226.661 138.12 227.421 138.4 228.034 138.96C228.647 139.493 228.954 140.173 228.954 141C228.954 141.88 228.647 142.627 228.034 143.24C227.447 143.827 226.687 144.12 225.754 144.12ZM235.996 139.32H240.996V169H235.996V139.32ZM281.094 158.44C281.094 158.787 281.067 159.28 281.014 159.92H264.254C264.547 161.493 265.307 162.747 266.534 163.68C267.787 164.587 269.334 165.04 271.174 165.04C273.52 165.04 275.454 164.267 276.974 162.72L279.654 165.8C278.694 166.947 277.48 167.813 276.014 168.4C274.547 168.987 272.894 169.28 271.054 169.28C268.707 169.28 266.64 168.813 264.854 167.88C263.067 166.947 261.68 165.653 260.694 164C259.734 162.32 259.254 160.427 259.254 158.32C259.254 156.24 259.72 154.373 260.654 152.72C261.614 151.04 262.934 149.733 264.614 148.8C266.294 147.867 268.187 147.4 270.294 147.4C272.374 147.4 274.227 147.867 275.854 148.8C277.507 149.707 278.787 151 279.694 152.68C280.627 154.333 281.094 156.253 281.094 158.44ZM270.294 151.4C268.694 151.4 267.334 151.88 266.214 152.84C265.12 153.773 264.454 155.027 264.214 156.6H276.334C276.12 155.053 275.467 153.8 274.374 152.84C273.28 151.88 271.92 151.4 270.294 151.4ZM272.214 139.24H278.094L271.134 144.72H266.814L272.214 139.24ZM308.031 143.08C305.924 143.08 304.871 144.227 304.871 146.52V147.8H310.751V151.8H305.031V169H300.031V151.8H296.511V147.8H300.031V146.44C300.031 144.147 300.698 142.347 302.031 141.04C303.364 139.707 305.244 139.04 307.671 139.04C309.591 139.04 311.098 139.427 312.191 140.2L310.791 143.96C309.938 143.373 309.018 143.08 308.031 143.08ZM317.311 147.64H322.311V169H317.311V147.64ZM319.831 144.12C318.924 144.12 318.164 143.84 317.551 143.28C316.938 142.693 316.631 141.973 316.631 141.12C316.631 140.267 316.938 139.56 317.551 139C318.164 138.413 318.924 138.12 319.831 138.12C320.738 138.12 321.498 138.4 322.111 138.96C322.724 139.493 323.031 140.173 323.031 141C323.031 141.88 322.724 142.627 322.111 143.24C321.524 143.827 320.764 144.12 319.831 144.12ZM330.082 139.32H335.082V169H330.082V139.32ZM354.965 147.4C357.658 147.4 359.818 148.187 361.445 149.76C363.072 151.333 363.885 153.667 363.885 156.76V169H358.885V157.4C358.885 155.533 358.445 154.133 357.565 153.2C356.685 152.24 355.432 151.76 353.805 151.76C351.965 151.76 350.512 152.32 349.445 153.44C348.378 154.533 347.845 156.12 347.845 158.2V169H342.845V139.32H347.845V150.12C348.672 149.24 349.685 148.573 350.885 148.12C352.112 147.64 353.472 147.4 354.965 147.4ZM379.588 147.4C382.734 147.4 385.134 148.16 386.788 149.68C388.468 151.173 389.308 153.44 389.308 156.48V169H384.588V166.4C383.974 167.333 383.094 168.053 381.948 168.56C380.828 169.04 379.468 169.28 377.868 169.28C376.268 169.28 374.868 169.013 373.668 168.48C372.468 167.92 371.534 167.16 370.868 166.2C370.228 165.213 369.908 164.107 369.908 162.88C369.908 160.96 370.614 159.427 372.028 158.28C373.468 157.107 375.721 156.52 378.788 156.52H384.308V156.2C384.308 154.707 383.854 153.56 382.948 152.76C382.068 151.96 380.748 151.56 378.988 151.56C377.788 151.56 376.601 151.747 375.428 152.12C374.281 152.493 373.308 153.013 372.508 153.68L370.548 150.04C371.668 149.187 373.014 148.533 374.588 148.08C376.161 147.627 377.828 147.4 379.588 147.4ZM378.908 165.64C380.161 165.64 381.268 165.36 382.228 164.8C383.214 164.213 383.908 163.387 384.308 162.32V159.84H379.148C376.268 159.84 374.828 160.787 374.828 162.68C374.828 163.587 375.188 164.307 375.908 164.84C376.628 165.373 377.628 165.64 378.908 165.64ZM430.099 139.32V169H425.299V166.24C424.473 167.253 423.446 168.013 422.219 168.52C421.019 169.027 419.686 169.28 418.219 169.28C416.166 169.28 414.313 168.827 412.659 167.92C411.033 167.013 409.753 165.733 408.819 164.08C407.886 162.4 407.419 160.48 407.419 158.32C407.419 156.16 407.886 154.253 408.819 152.6C409.753 150.947 411.033 149.667 412.659 148.76C414.313 147.853 416.166 147.4 418.219 147.4C419.633 147.4 420.926 147.64 422.099 148.12C423.273 148.6 424.273 149.32 425.099 150.28V139.32H430.099ZM418.819 165C420.019 165 421.099 164.733 422.059 164.2C423.019 163.64 423.779 162.853 424.339 161.84C424.899 160.827 425.179 159.653 425.179 158.32C425.179 156.987 424.899 155.813 424.339 154.8C423.779 153.787 423.019 153.013 422.059 152.48C421.099 151.92 420.019 151.64 418.819 151.64C417.619 151.64 416.539 151.92 415.579 152.48C414.619 153.013 413.859 153.787 413.299 154.8C412.739 155.813 412.459 156.987 412.459 158.32C412.459 159.653 412.739 160.827 413.299 161.84C413.859 162.853 414.619 163.64 415.579 164.2C416.539 164.733 417.619 165 418.819 165ZM457.92 158.44C457.92 158.787 457.893 159.28 457.84 159.92H441.08C441.373 161.493 442.133 162.747 443.36 163.68C444.613 164.587 446.16 165.04 448 165.04C450.347 165.04 452.28 164.267 453.8 162.72L456.48 165.8C455.52 166.947 454.307 167.813 452.84 168.4C451.373 168.987 449.72 169.28 447.88 169.28C445.533 169.28 443.467 168.813 441.68 167.88C439.893 166.947 438.507 165.653 437.52 164C436.56 162.32 436.08 160.427 436.08 158.32C436.08 156.24 436.547 154.373 437.48 152.72C438.44 151.04 439.76 149.733 441.44 148.8C443.12 147.867 445.013 147.4 447.12 147.4C449.2 147.4 451.053 147.867 452.68 148.8C454.333 149.707 455.613 151 456.52 152.68C457.453 154.333 457.92 156.253 457.92 158.44ZM447.12 151.4C445.52 151.4 444.16 151.88 443.04 152.84C441.947 153.773 441.28 155.027 441.04 156.6H453.16C452.947 155.053 452.293 153.8 451.2 152.84C450.107 151.88 448.747 151.4 447.12 151.4ZM164.46 192.4C167.153 192.4 169.286 193.187 170.86 194.76C172.433 196.307 173.22 198.64 173.22 201.76V214H168.22V202.4C168.22 200.533 167.806 199.133 166.98 198.2C166.153 197.24 164.966 196.76 163.42 196.76C161.74 196.76 160.393 197.32 159.38 198.44C158.366 199.533 157.86 201.107 157.86 203.16V214H152.86V202.4C152.86 200.533 152.446 199.133 151.62 198.2C150.793 197.24 149.606 196.76 148.06 196.76C146.353 196.76 144.993 197.307 143.98 198.4C142.993 199.493 142.5 201.08 142.5 203.16V214H137.5V192.64H142.26V195.36C143.06 194.4 144.06 193.667 145.26 193.16C146.46 192.653 147.793 192.4 149.26 192.4C150.86 192.4 152.273 192.707 153.5 193.32C154.753 193.907 155.74 194.787 156.46 195.96C157.34 194.84 158.473 193.973 159.86 193.36C161.246 192.72 162.78 192.4 164.46 192.4ZM201.084 203.44C201.084 203.787 201.058 204.28 201.004 204.92H184.244C184.538 206.493 185.298 207.747 186.524 208.68C187.778 209.587 189.324 210.04 191.164 210.04C193.511 210.04 195.444 209.267 196.964 207.72L199.644 210.8C198.684 211.947 197.471 212.813 196.004 213.4C194.538 213.987 192.884 214.28 191.044 214.28C188.698 214.28 186.631 213.813 184.844 212.88C183.058 211.947 181.671 210.653 180.684 209C179.724 207.32 179.244 205.427 179.244 203.32C179.244 201.24 179.711 199.373 180.644 197.72C181.604 196.04 182.924 194.733 184.604 193.8C186.284 192.867 188.178 192.4 190.284 192.4C192.364 192.4 194.218 192.867 195.844 193.8C197.498 194.707 198.778 196 199.684 197.68C200.618 199.333 201.084 201.253 201.084 203.44ZM190.284 196.4C188.684 196.4 187.324 196.88 186.204 197.84C185.111 198.773 184.444 200.027 184.204 201.6H196.324C196.111 200.053 195.458 198.8 194.364 197.84C193.271 196.88 191.911 196.4 190.284 196.4ZM219.207 192.4C221.9 192.4 224.06 193.187 225.687 194.76C227.314 196.333 228.127 198.667 228.127 201.76V214H223.127V202.4C223.127 200.533 222.687 199.133 221.807 198.2C220.927 197.24 219.674 196.76 218.047 196.76C216.207 196.76 214.754 197.32 213.687 198.44C212.62 199.533 212.087 201.12 212.087 203.2V214H207.087V192.64H211.847V195.4C212.674 194.413 213.714 193.667 214.967 193.16C216.22 192.653 217.634 192.4 219.207 192.4ZM235.67 192.64H240.67V214H235.67V192.64ZM238.19 189.12C237.283 189.12 236.523 188.84 235.91 188.28C235.297 187.693 234.99 186.973 234.99 186.12C234.99 185.267 235.297 184.56 235.91 184C236.523 183.413 237.283 183.12 238.19 183.12C239.097 183.12 239.857 183.4 240.47 183.96C241.083 184.493 241.39 185.173 241.39 186C241.39 186.88 241.083 187.627 240.47 188.24C239.883 188.827 239.123 189.12 238.19 189.12ZM260.552 192.4C263.246 192.4 265.406 193.187 267.032 194.76C268.659 196.333 269.472 198.667 269.472 201.76V214H264.472V202.4C264.472 200.533 264.032 199.133 263.152 198.2C262.272 197.24 261.019 196.76 259.392 196.76C257.552 196.76 256.099 197.32 255.032 198.44C253.966 199.533 253.432 201.12 253.432 203.2V214H248.432V192.64H253.192V195.4C254.019 194.413 255.059 193.667 256.312 193.16C257.566 192.653 258.979 192.4 260.552 192.4ZM285.175 192.4C288.322 192.4 290.722 193.16 292.375 194.68C294.055 196.173 294.895 198.44 294.895 201.48V214H290.175V211.4C289.562 212.333 288.682 213.053 287.535 213.56C286.415 214.04 285.055 214.28 283.455 214.28C281.855 214.28 280.455 214.013 279.255 213.48C278.055 212.92 277.122 212.16 276.455 211.2C275.815 210.213 275.495 209.107 275.495 207.88C275.495 205.96 276.202 204.427 277.615 203.28C279.055 202.107 281.308 201.52 284.375 201.52H289.895V201.2C289.895 199.707 289.442 198.56 288.535 197.76C287.655 196.96 286.335 196.56 284.575 196.56C283.375 196.56 282.188 196.747 281.015 197.12C279.868 197.493 278.895 198.013 278.095 198.68L276.135 195.04C277.255 194.187 278.602 193.533 280.175 193.08C281.748 192.627 283.415 192.4 285.175 192.4ZM284.495 210.64C285.748 210.64 286.855 210.36 287.815 209.8C288.802 209.213 289.495 208.387 289.895 207.32V204.84H284.735C281.855 204.84 280.415 205.787 280.415 207.68C280.415 208.587 280.775 209.307 281.495 209.84C282.215 210.373 283.215 210.64 284.495 210.64ZM309.112 214.28C307.379 214.28 305.685 214.053 304.032 213.6C302.379 213.147 301.059 212.573 300.072 211.88L301.992 208.08C302.952 208.72 304.099 209.24 305.432 209.64C306.792 210.013 308.125 210.2 309.432 210.2C312.419 210.2 313.912 209.413 313.912 207.84C313.912 207.093 313.525 206.573 312.752 206.28C312.005 205.987 310.792 205.707 309.112 205.44C307.352 205.173 305.912 204.867 304.792 204.52C303.699 204.173 302.739 203.573 301.912 202.72C301.112 201.84 300.712 200.627 300.712 199.08C300.712 197.053 301.552 195.44 303.232 194.24C304.939 193.013 307.232 192.4 310.112 192.4C311.579 192.4 313.045 192.573 314.512 192.92C315.979 193.24 317.179 193.68 318.112 194.24L316.192 198.04C314.379 196.973 312.339 196.44 310.072 196.44C308.605 196.44 307.485 196.667 306.712 197.12C305.965 197.547 305.592 198.12 305.592 198.84C305.592 199.64 305.992 200.213 306.792 200.56C307.619 200.88 308.885 201.187 310.592 201.48C312.299 201.747 313.699 202.053 314.792 202.4C315.885 202.747 316.819 203.333 317.592 204.16C318.392 204.987 318.792 206.16 318.792 207.68C318.792 209.68 317.925 211.28 316.192 212.48C314.459 213.68 312.099 214.28 309.112 214.28ZM356.633 203.44C356.633 203.787 356.606 204.28 356.553 204.92H339.793C340.086 206.493 340.846 207.747 342.073 208.68C343.326 209.587 344.873 210.04 346.713 210.04C349.059 210.04 350.993 209.267 352.513 207.72L355.193 210.8C354.233 211.947 353.019 212.813 351.553 213.4C350.086 213.987 348.433 214.28 346.593 214.28C344.246 214.28 342.179 213.813 340.393 212.88C338.606 211.947 337.219 210.653 336.233 209C335.273 207.32 334.793 205.427 334.793 203.32C334.793 201.24 335.259 199.373 336.193 197.72C337.153 196.04 338.473 194.733 340.153 193.8C341.833 192.867 343.726 192.4 345.833 192.4C347.913 192.4 349.766 192.867 351.393 193.8C353.046 194.707 354.326 196 355.233 197.68C356.166 199.333 356.633 201.253 356.633 203.44ZM345.833 196.4C344.233 196.4 342.873 196.88 341.753 197.84C340.659 198.773 339.993 200.027 339.753 201.6H351.873C351.659 200.053 351.006 198.8 349.913 197.84C348.819 196.88 347.459 196.4 345.833 196.4ZM374.755 192.4C377.449 192.4 379.609 193.187 381.235 194.76C382.862 196.333 383.675 198.667 383.675 201.76V214H378.675V202.4C378.675 200.533 378.235 199.133 377.355 198.2C376.475 197.24 375.222 196.76 373.595 196.76C371.755 196.76 370.302 197.32 369.235 198.44C368.169 199.533 367.635 201.12 367.635 203.2V214H362.635V192.64H367.395V195.4C368.222 194.413 369.262 193.667 370.515 193.16C371.769 192.653 373.182 192.4 374.755 192.4ZM404.058 212.84C403.472 213.32 402.752 213.68 401.898 213.92C401.072 214.16 400.192 214.28 399.258 214.28C396.912 214.28 395.098 213.667 393.818 212.44C392.538 211.213 391.898 209.427 391.898 207.08V196.8H388.378V192.8H391.898V187.92H396.898V192.8H402.618V196.8H396.898V206.96C396.898 208 397.152 208.8 397.658 209.36C398.165 209.893 398.898 210.16 399.858 210.16C400.978 210.16 401.912 209.867 402.658 209.28L404.058 212.84ZM414.131 195.76C415.571 193.52 418.105 192.4 421.731 192.4V197.16C421.305 197.08 420.918 197.04 420.571 197.04C418.625 197.04 417.105 197.613 416.011 198.76C414.918 199.88 414.371 201.507 414.371 203.64V214H409.371V192.64H414.131V195.76ZM447.058 203.44C447.058 203.787 447.031 204.28 446.978 204.92H430.218C430.511 206.493 431.271 207.747 432.498 208.68C433.751 209.587 435.298 210.04 437.138 210.04C439.484 210.04 441.418 209.267 442.938 207.72L445.618 210.8C444.658 211.947 443.444 212.813 441.978 213.4C440.511 213.987 438.858 214.28 437.018 214.28C434.671 214.28 432.604 213.813 430.818 212.88C429.031 211.947 427.644 210.653 426.658 209C425.698 207.32 425.218 205.427 425.218 203.32C425.218 201.24 425.684 199.373 426.618 197.72C427.578 196.04 428.898 194.733 430.578 193.8C432.258 192.867 434.151 192.4 436.258 192.4C438.338 192.4 440.191 192.867 441.818 193.8C443.471 194.707 444.751 196 445.658 197.68C446.591 199.333 447.058 201.253 447.058 203.44ZM436.258 196.4C434.658 196.4 433.298 196.88 432.178 197.84C431.084 198.773 430.418 200.027 430.178 201.6H442.298C442.084 200.053 441.431 198.8 440.338 197.84C439.244 196.88 437.884 196.4 436.258 196.4ZM177.465 231V259H172.265V235.36H166.345V231H177.465ZM195.899 259.4C193.659 259.4 191.659 258.84 189.899 257.72C188.139 256.573 186.753 254.92 185.739 252.76C184.726 250.573 184.219 247.987 184.219 245C184.219 242.013 184.726 239.44 185.739 237.28C186.753 235.093 188.139 233.44 189.899 232.32C191.659 231.173 193.659 230.6 195.899 230.6C198.139 230.6 200.139 231.173 201.899 232.32C203.686 233.44 205.086 235.093 206.099 237.28C207.113 239.44 207.619 242.013 207.619 245C207.619 247.987 207.113 250.573 206.099 252.76C205.086 254.92 203.686 256.573 201.899 257.72C200.139 258.84 198.139 259.4 195.899 259.4ZM195.899 254.88C197.899 254.88 199.473 254.053 200.619 252.4C201.793 250.747 202.379 248.28 202.379 245C202.379 241.72 201.793 239.253 200.619 237.6C199.473 235.947 197.899 235.12 195.899 235.12C193.926 235.12 192.353 235.947 191.179 237.6C190.033 239.253 189.459 241.72 189.459 245C189.459 248.28 190.033 250.747 191.179 252.4C192.353 254.053 193.926 254.88 195.899 254.88ZM246.188 248.44C246.188 248.787 246.161 249.28 246.108 249.92H229.348C229.641 251.493 230.401 252.747 231.628 253.68C232.881 254.587 234.428 255.04 236.268 255.04C238.615 255.04 240.548 254.267 242.068 252.72L244.748 255.8C243.788 256.947 242.575 257.813 241.108 258.4C239.641 258.987 237.988 259.28 236.148 259.28C233.801 259.28 231.735 258.813 229.948 257.88C228.161 256.947 226.775 255.653 225.788 254C224.828 252.32 224.348 250.427 224.348 248.32C224.348 246.24 224.815 244.373 225.748 242.72C226.708 241.04 228.028 239.733 229.708 238.8C231.388 237.867 233.281 237.4 235.388 237.4C237.468 237.4 239.321 237.867 240.948 238.8C242.601 239.707 243.881 241 244.788 242.68C245.721 244.333 246.188 246.253 246.188 248.44ZM235.388 241.4C233.788 241.4 232.428 241.88 231.308 242.84C230.215 243.773 229.548 245.027 229.308 246.6H241.428C241.215 245.053 240.561 243.8 239.468 242.84C238.375 241.88 237.015 241.4 235.388 241.4ZM272.606 231V259H267.406V235.36H261.486V231H272.606ZM288.8 230.6C292.64 230.6 295.613 231.8 297.72 234.2C299.853 236.6 300.92 240.04 300.92 244.52C300.92 247.667 300.347 250.36 299.2 252.6C298.053 254.813 296.44 256.507 294.36 257.68C292.307 258.827 289.92 259.4 287.2 259.4C285.76 259.4 284.4 259.253 283.12 258.96C281.867 258.64 280.773 258.187 279.84 257.6L281.76 253.68C283.147 254.587 284.92 255.04 287.08 255.04C289.773 255.04 291.88 254.213 293.4 252.56C294.92 250.907 295.68 248.52 295.68 245.4V245.36C294.853 246.32 293.8 247.053 292.52 247.56C291.24 248.04 289.8 248.28 288.2 248.28C286.36 248.28 284.707 247.933 283.24 247.24C281.773 246.52 280.627 245.507 279.8 244.2C278.973 242.893 278.56 241.387 278.56 239.68C278.56 237.867 279.013 236.28 279.92 234.92C280.827 233.533 282.053 232.467 283.6 231.72C285.147 230.973 286.88 230.6 288.8 230.6ZM289.2 244.2C290.88 244.2 292.24 243.747 293.28 242.84C294.347 241.933 294.88 240.787 294.88 239.4C294.88 238.04 294.36 236.92 293.32 236.04C292.307 235.133 290.893 234.68 289.08 234.68C287.453 234.68 286.133 235.12 285.12 236C284.107 236.853 283.6 238 283.6 239.44C283.6 240.907 284.107 242.067 285.12 242.92C286.133 243.773 287.493 244.2 289.2 244.2ZM327.573 237.4C330.719 237.4 333.119 238.16 334.773 239.68C336.453 241.173 337.293 243.44 337.293 246.48V259H332.573V256.4C331.959 257.333 331.079 258.053 329.933 258.56C328.813 259.04 327.453 259.28 325.853 259.28C324.253 259.28 322.853 259.013 321.653 258.48C320.453 257.92 319.519 257.16 318.853 256.2C318.213 255.213 317.893 254.107 317.893 252.88C317.893 250.96 318.599 249.427 320.013 248.28C321.453 247.107 323.706 246.52 326.773 246.52H332.293V246.2C332.293 244.707 331.839 243.56 330.933 242.76C330.053 241.96 328.733 241.56 326.973 241.56C325.773 241.56 324.586 241.747 323.413 242.12C322.266 242.493 321.293 243.013 320.493 243.68L318.533 240.04C319.653 239.187 320.999 238.533 322.573 238.08C324.146 237.627 325.813 237.4 327.573 237.4ZM326.893 255.64C328.146 255.64 329.253 255.36 330.213 254.8C331.199 254.213 331.893 253.387 332.293 252.32V249.84H327.133C324.253 249.84 322.813 250.787 322.813 252.68C322.813 253.587 323.173 254.307 323.893 254.84C324.613 255.373 325.613 255.64 326.893 255.64ZM357.03 237.4C359.723 237.4 361.883 238.187 363.51 239.76C365.136 241.333 365.95 243.667 365.95 246.76V259H360.95V247.4C360.95 245.533 360.51 244.133 359.63 243.2C358.75 242.24 357.496 241.76 355.87 241.76C354.03 241.76 352.576 242.32 351.51 243.44C350.443 244.533 349.91 246.12 349.91 248.2V259H344.91V237.64H349.67V240.4C350.496 239.413 351.536 238.667 352.79 238.16C354.043 237.653 355.456 237.4 357.03 237.4ZM383.288 259.28C381.128 259.28 379.181 258.813 377.448 257.88C375.714 256.947 374.354 255.653 373.368 254C372.408 252.32 371.928 250.427 371.928 248.32C371.928 246.213 372.408 244.333 373.368 242.68C374.354 241.027 375.714 239.733 377.448 238.8C379.181 237.867 381.128 237.4 383.288 237.4C385.474 237.4 387.434 237.867 389.168 238.8C390.901 239.733 392.248 241.027 393.208 242.68C394.194 244.333 394.688 246.213 394.688 248.32C394.688 250.427 394.194 252.32 393.208 254C392.248 255.653 390.901 256.947 389.168 257.88C387.434 258.813 385.474 259.28 383.288 259.28ZM383.288 255C385.128 255 386.648 254.387 387.848 253.16C389.048 251.933 389.648 250.32 389.648 248.32C389.648 246.32 389.048 244.707 387.848 243.48C386.648 242.253 385.128 241.64 383.288 241.64C381.448 241.64 379.928 242.253 378.728 243.48C377.554 244.707 376.968 246.32 376.968 248.32C376.968 250.32 377.554 251.933 378.728 253.16C379.928 254.387 381.448 255 383.288 255ZM407.269 259.28C405.536 259.28 403.842 259.053 402.189 258.6C400.536 258.147 399.216 257.573 398.229 256.88L400.149 253.08C401.109 253.72 402.256 254.24 403.589 254.64C404.949 255.013 406.282 255.2 407.589 255.2C410.576 255.2 412.069 254.413 412.069 252.84C412.069 252.093 411.682 251.573 410.909 251.28C410.162 250.987 408.949 250.707 407.269 250.44C405.509 250.173 404.069 249.867 402.949 249.52C401.856 249.173 400.896 248.573 400.069 247.72C399.269 246.84 398.869 245.627 398.869 244.08C398.869 242.053 399.709 240.44 401.389 239.24C403.096 238.013 405.389 237.4 408.269 237.4C409.736 237.4 411.202 237.573 412.669 237.92C414.136 238.24 415.336 238.68 416.269 239.24L414.349 243.04C412.536 241.973 410.496 241.44 408.229 241.44C406.762 241.44 405.642 241.667 404.869 242.12C404.122 242.547 403.749 243.12 403.749 243.84C403.749 244.64 404.149 245.213 404.949 245.56C405.776 245.88 407.042 246.187 408.749 246.48C410.456 246.747 411.856 247.053 412.949 247.4C414.042 247.747 414.976 248.333 415.749 249.16C416.549 249.987 416.949 251.16 416.949 252.68C416.949 254.68 416.082 256.28 414.349 257.48C412.616 258.68 410.256 259.28 407.269 259.28Z" fill="#414040"/>
<path d="M557.7 131.815C557.7 137.509 556.854 141.742 555.161 144.512C553.468 147.282 550.697 149.36 546.85 150.745C550.697 152.13 553.468 154.208 555.161 156.978C556.854 159.749 557.7 163.981 557.7 169.675V226.697C557.7 239.01 563.548 245.166 575.245 245.166H581.478V258.786H572.937C551.852 258.786 541.309 248.552 541.309 228.082V169.445C541.309 161.595 537.846 157.671 530.921 157.671H523.072V143.819H530.921C537.846 143.819 541.309 139.895 541.309 132.046V73.408C541.309 52.9387 551.852 42.704 572.937 42.704H581.478V56.3246H575.245C563.548 56.3246 557.7 62.4808 557.7 74.7931V131.815Z" fill="#C6DAD0"/>
<circle cx="1054.5" cy="142.5" r="116.5" fill="#5CA880"/>
<path d="M1029.19 89.602C1032.27 89.602 1034.55 90.2058 1036.03 91.4134C1037.51 92.6002 1038.25 94.2242 1038.25 96.2854C1038.25 97.5971 1037.92 98.7838 1037.28 99.8457C1036.63 100.908 1035.66 101.751 1034.37 102.375C1033.08 103 1031.49 103.312 1029.59 103.312C1028.03 103.312 1026.52 103.094 1025.07 102.656C1023.61 102.198 1022.38 101.574 1021.38 100.783L1023.1 97.6283C1023.91 98.2946 1024.88 98.8255 1026 99.2211C1027.15 99.5958 1028.32 99.7832 1029.53 99.7832C1030.97 99.7832 1032.09 99.4917 1032.91 98.9088C1033.74 98.305 1034.15 97.4826 1034.15 96.4415C1034.15 95.3172 1033.71 94.474 1032.81 93.9118C1031.94 93.3289 1030.43 93.0374 1028.28 93.0374H1023.01L1024.13 81.1385H1036.97V84.5426H1027.56L1027.1 89.602H1029.19ZM1055.7 91.5071C1056.85 92.0276 1057.72 92.7355 1058.33 93.6308C1058.95 94.5052 1059.26 95.5358 1059.26 96.7226C1059.26 98.0551 1058.89 99.2211 1058.14 100.22C1057.41 101.22 1056.37 101.99 1055.02 102.532C1053.66 103.052 1052.09 103.312 1050.3 103.312C1048.51 103.312 1046.94 103.052 1045.58 102.532C1044.25 101.99 1043.22 101.22 1042.49 100.22C1041.76 99.2211 1041.4 98.0551 1041.4 96.7226C1041.4 95.5358 1041.7 94.5052 1042.31 93.6308C1042.91 92.7355 1043.77 92.0276 1044.9 91.5071C1044.02 91.0282 1043.35 90.4036 1042.87 89.6332C1042.41 88.8421 1042.18 87.9364 1042.18 86.9162C1042.18 85.6877 1042.51 84.6155 1043.18 83.6994C1043.87 82.7833 1044.82 82.0754 1046.05 81.5757C1047.28 81.076 1048.7 80.8262 1050.3 80.8262C1051.92 80.8262 1053.35 81.076 1054.58 81.5757C1055.81 82.0754 1056.77 82.7833 1057.45 83.6994C1058.14 84.6155 1058.48 85.6877 1058.48 86.9162C1058.48 87.9364 1058.24 88.8316 1057.76 89.602C1057.29 90.3724 1056.6 91.0074 1055.7 91.5071ZM1050.3 84.0117C1049.03 84.0117 1048.02 84.2824 1047.27 84.8237C1046.54 85.365 1046.18 86.125 1046.18 87.1035C1046.18 88.0405 1046.54 88.79 1047.27 89.3522C1048.02 89.8935 1049.03 90.1642 1050.3 90.1642C1051.59 90.1642 1052.61 89.8935 1053.36 89.3522C1054.11 88.79 1054.49 88.0405 1054.49 87.1035C1054.49 86.125 1054.1 85.365 1053.33 84.8237C1052.58 84.2824 1051.57 84.0117 1050.3 84.0117ZM1050.3 100.127C1051.8 100.127 1052.99 99.8145 1053.86 99.1898C1054.74 98.5652 1055.17 97.7012 1055.17 96.5977C1055.17 95.515 1054.74 94.6614 1053.86 94.0368C1052.99 93.4122 1051.8 93.0998 1050.3 93.0998C1048.8 93.0998 1047.62 93.4122 1046.77 94.0368C1045.92 94.6614 1045.49 95.515 1045.49 96.5977C1045.49 97.7012 1045.92 98.5652 1046.77 99.1898C1047.62 99.8145 1048.8 100.127 1050.3 100.127ZM1067.4 92.9125C1065.84 92.9125 1064.58 92.3607 1063.62 91.2572C1062.66 90.1537 1062.19 88.7067 1062.19 86.9162C1062.19 85.1256 1062.66 83.6786 1063.62 82.5751C1064.58 81.4716 1065.84 80.9198 1067.4 80.9198C1068.96 80.9198 1070.22 81.4716 1071.18 82.5751C1072.16 83.6577 1072.65 85.1048 1072.65 86.9162C1072.65 88.7275 1072.16 90.185 1071.18 91.2885C1070.22 92.3711 1068.96 92.9125 1067.4 92.9125ZM1080.52 81.1385H1083.58L1068.65 103H1065.59L1080.52 81.1385ZM1067.4 90.7263C1068.26 90.7263 1068.91 90.3932 1069.37 89.7269C1069.85 89.0607 1070.09 88.1237 1070.09 86.9162C1070.09 85.7086 1069.85 84.7716 1069.37 84.1054C1068.91 83.4391 1068.26 83.106 1067.4 83.106C1066.59 83.106 1065.93 83.4495 1065.43 84.1366C1064.96 84.8029 1064.72 85.7294 1064.72 86.9162C1064.72 88.1029 1064.96 89.0398 1065.43 89.7269C1065.93 90.3932 1066.59 90.7263 1067.4 90.7263ZM1081.74 103.219C1080.17 103.219 1078.92 102.667 1077.96 101.563C1077 100.46 1076.52 99.0129 1076.52 97.2223C1076.52 95.4317 1077 93.9847 1077.96 92.8812C1078.92 91.7777 1080.17 91.226 1081.74 91.226C1083.3 91.226 1084.56 91.7777 1085.52 92.8812C1086.49 93.9847 1086.98 95.4317 1086.98 97.2223C1086.98 99.0129 1086.49 100.46 1085.52 101.563C1084.56 102.667 1083.3 103.219 1081.74 103.219ZM1081.74 101.032C1082.57 101.032 1083.23 100.699 1083.7 100.033C1084.18 99.346 1084.42 98.4091 1084.42 97.2223C1084.42 96.0355 1084.18 95.109 1083.7 94.4428C1083.23 93.7557 1082.57 93.4122 1081.74 93.4122C1080.9 93.4122 1080.25 93.7453 1079.77 94.4115C1079.29 95.0778 1079.05 96.0147 1079.05 97.2223C1079.05 98.4299 1079.29 99.3668 1079.77 100.033C1080.25 100.699 1080.9 101.032 1081.74 101.032ZM967.724 121.135C969.827 121.135 971.514 121.75 972.784 122.978C974.054 124.206 974.689 126.028 974.689 128.443V138H970.785V128.943C970.785 127.486 970.441 126.393 969.754 125.664C969.067 124.914 968.089 124.54 966.819 124.54C965.382 124.54 964.247 124.977 963.414 125.851C962.582 126.705 962.165 127.944 962.165 129.568V138H958.261V121.323H961.978V123.478C962.623 122.707 963.435 122.124 964.414 121.729C965.392 121.333 966.496 121.135 967.724 121.135ZM986.949 121.135C989.406 121.135 991.28 121.729 992.57 122.916C993.882 124.081 994.538 125.851 994.538 128.225V138H990.853V135.97C990.374 136.699 989.687 137.261 988.792 137.656C987.917 138.031 986.855 138.219 985.606 138.219C984.357 138.219 983.264 138.01 982.327 137.594C981.39 137.157 980.661 136.563 980.141 135.814C979.641 135.043 979.391 134.179 979.391 133.222C979.391 131.723 979.943 130.525 981.046 129.63C982.171 128.714 983.93 128.256 986.324 128.256H990.634V128.006C990.634 126.84 990.28 125.945 989.572 125.32C988.885 124.696 987.855 124.383 986.48 124.383C985.544 124.383 984.617 124.529 983.701 124.821C982.806 125.112 982.046 125.518 981.421 126.039L979.891 123.197C980.765 122.53 981.817 122.02 983.045 121.666C984.274 121.312 985.575 121.135 986.949 121.135ZM986.418 135.377C987.397 135.377 988.261 135.158 989.01 134.721C989.781 134.263 990.322 133.617 990.634 132.784V130.848H986.605C984.357 130.848 983.232 131.587 983.232 133.066C983.232 133.773 983.514 134.336 984.076 134.752C984.638 135.168 985.419 135.377 986.418 135.377ZM989.541 119.043C989.021 119.043 988.563 118.939 988.167 118.731C987.792 118.522 987.324 118.21 986.762 117.794C986.428 117.523 986.147 117.325 985.918 117.2C985.71 117.055 985.502 116.982 985.294 116.982C984.856 116.982 984.492 117.148 984.201 117.481C983.93 117.815 983.784 118.273 983.763 118.856H981.671C981.692 117.585 982.004 116.576 982.608 115.826C983.232 115.056 984.044 114.671 985.044 114.671C985.564 114.671 986.012 114.775 986.387 114.983C986.782 115.191 987.261 115.503 987.823 115.92C988.157 116.191 988.427 116.399 988.635 116.544C988.864 116.669 989.083 116.732 989.291 116.732C989.728 116.732 990.082 116.576 990.353 116.263C990.645 115.951 990.801 115.514 990.822 114.952H992.914C992.872 116.18 992.55 117.169 991.946 117.919C991.342 118.668 990.54 119.043 989.541 119.043ZM1008.13 138.219C1006.45 138.219 1004.93 137.854 1003.57 137.126C1002.22 136.397 1001.16 135.387 1000.39 134.096C999.638 132.784 999.263 131.306 999.263 129.661C999.263 128.017 999.638 126.549 1000.39 125.258C1001.16 123.967 1002.22 122.957 1003.57 122.228C1004.93 121.5 1006.45 121.135 1008.13 121.135C1009.84 121.135 1011.37 121.5 1012.72 122.228C1014.08 122.957 1015.13 123.967 1015.88 125.258C1016.65 126.549 1017.03 128.017 1017.03 129.661C1017.03 131.306 1016.65 132.784 1015.88 134.096C1015.13 135.387 1014.08 136.397 1012.72 137.126C1011.37 137.854 1009.84 138.219 1008.13 138.219ZM1008.13 134.877C1009.57 134.877 1010.76 134.398 1011.69 133.44C1012.63 132.483 1013.1 131.223 1013.1 129.661C1013.1 128.1 1012.63 126.84 1011.69 125.882C1010.76 124.925 1009.57 124.446 1008.13 124.446C1006.7 124.446 1005.51 124.925 1004.57 125.882C1003.66 126.84 1003.2 128.1 1003.2 129.661C1003.2 131.223 1003.66 132.483 1004.57 133.44C1005.51 134.398 1006.7 134.877 1008.13 134.877ZM1046.95 129.755C1046.95 130.026 1046.93 130.411 1046.89 130.911H1033.8C1034.03 132.139 1034.62 133.118 1035.58 133.846C1036.56 134.554 1037.77 134.908 1039.2 134.908C1041.04 134.908 1042.55 134.304 1043.73 133.097L1045.83 135.502C1045.08 136.397 1044.13 137.073 1042.98 137.532C1041.84 137.99 1040.55 138.219 1039.11 138.219C1037.28 138.219 1035.66 137.854 1034.27 137.126C1032.87 136.397 1031.79 135.387 1031.02 134.096C1030.27 132.784 1029.9 131.306 1029.9 129.661C1029.9 128.037 1030.26 126.58 1030.99 125.289C1031.74 123.977 1032.77 122.957 1034.08 122.228C1035.39 121.5 1036.87 121.135 1038.52 121.135C1040.14 121.135 1041.59 121.5 1042.86 122.228C1044.15 122.936 1045.15 123.946 1045.86 125.258C1046.59 126.549 1046.95 128.048 1046.95 129.755ZM1038.52 124.258C1037.27 124.258 1036.21 124.633 1035.33 125.383C1034.48 126.111 1033.96 127.09 1033.77 128.318H1043.23C1043.07 127.111 1042.56 126.132 1041.7 125.383C1040.85 124.633 1039.79 124.258 1038.52 124.258ZM1056.79 138.219C1055.44 138.219 1054.11 138.042 1052.82 137.688C1051.53 137.334 1050.5 136.886 1049.73 136.345L1051.23 133.378C1051.98 133.878 1052.88 134.284 1053.92 134.596C1054.98 134.887 1056.02 135.033 1057.04 135.033C1059.37 135.033 1060.54 134.419 1060.54 133.19C1060.54 132.607 1060.24 132.201 1059.63 131.972C1059.05 131.743 1058.1 131.525 1056.79 131.317C1055.42 131.108 1054.29 130.869 1053.42 130.598C1052.56 130.328 1051.81 129.859 1051.17 129.193C1050.54 128.506 1050.23 127.559 1050.23 126.351C1050.23 124.769 1050.89 123.509 1052.2 122.572C1053.53 121.614 1055.32 121.135 1057.57 121.135C1058.72 121.135 1059.86 121.271 1061.01 121.541C1062.15 121.791 1063.09 122.135 1063.82 122.572L1062.32 125.539C1060.9 124.706 1059.31 124.29 1057.54 124.29C1056.39 124.29 1055.52 124.467 1054.92 124.821C1054.33 125.154 1054.04 125.601 1054.04 126.164C1054.04 126.788 1054.35 127.236 1054.98 127.506C1055.62 127.756 1056.61 127.996 1057.95 128.225C1059.28 128.433 1060.37 128.672 1061.22 128.943C1062.08 129.214 1062.81 129.672 1063.41 130.317C1064.04 130.963 1064.35 131.879 1064.35 133.066C1064.35 134.627 1063.67 135.876 1062.32 136.813C1060.96 137.75 1059.12 138.219 1056.79 138.219ZM1078.67 137.094C1078.21 137.469 1077.65 137.75 1076.98 137.938C1076.34 138.125 1075.65 138.219 1074.92 138.219C1073.09 138.219 1071.68 137.74 1070.68 136.782C1069.68 135.824 1069.18 134.429 1069.18 132.597V124.571H1066.43V121.448H1069.18V117.638H1073.08V121.448H1077.55V124.571H1073.08V132.503C1073.08 133.315 1073.28 133.94 1073.67 134.377C1074.07 134.794 1074.64 135.002 1075.39 135.002C1076.27 135.002 1077 134.773 1077.58 134.315L1078.67 137.094ZM1098.97 121.323V138H1095.25V135.876C1094.62 136.626 1093.84 137.209 1092.91 137.625C1091.97 138.021 1090.96 138.219 1089.88 138.219C1087.65 138.219 1085.89 137.604 1084.6 136.376C1083.33 135.127 1082.69 133.284 1082.69 130.848V121.323H1086.6V130.317C1086.6 131.816 1086.93 132.941 1087.6 133.69C1088.28 134.419 1089.25 134.783 1090.5 134.783C1091.9 134.783 1093 134.356 1093.81 133.503C1094.65 132.628 1095.06 131.379 1095.06 129.755V121.323H1098.97ZM1121.35 114.827V138H1117.6V135.845C1116.95 136.636 1116.15 137.23 1115.2 137.625C1114.26 138.021 1113.22 138.219 1112.07 138.219C1110.47 138.219 1109.02 137.865 1107.73 137.157C1106.46 136.449 1105.46 135.449 1104.73 134.159C1104 132.847 1103.64 131.348 1103.64 129.661C1103.64 127.975 1104 126.486 1104.73 125.195C1105.46 123.905 1106.46 122.905 1107.73 122.197C1109.02 121.489 1110.47 121.135 1112.07 121.135C1113.18 121.135 1114.19 121.323 1115.1 121.698C1116.02 122.072 1116.8 122.634 1117.44 123.384V114.827H1121.35ZM1112.54 134.877C1113.48 134.877 1114.32 134.669 1115.07 134.252C1115.82 133.815 1116.41 133.201 1116.85 132.41C1117.29 131.619 1117.51 130.702 1117.51 129.661C1117.51 128.62 1117.29 127.704 1116.85 126.913C1116.41 126.122 1115.82 125.518 1115.07 125.102C1114.32 124.664 1113.48 124.446 1112.54 124.446C1111.6 124.446 1110.76 124.664 1110.01 125.102C1109.26 125.518 1108.67 126.122 1108.23 126.913C1107.79 127.704 1107.58 128.62 1107.58 129.661C1107.58 130.702 1107.79 131.619 1108.23 132.41C1108.67 133.201 1109.26 133.815 1110.01 134.252C1110.76 134.669 1111.6 134.877 1112.54 134.877ZM1133.76 121.135C1136.22 121.135 1138.09 121.729 1139.38 122.916C1140.7 124.081 1141.35 125.851 1141.35 128.225V138H1137.67V135.97C1137.19 136.699 1136.5 137.261 1135.61 137.656C1134.73 138.031 1133.67 138.219 1132.42 138.219C1131.17 138.219 1130.08 138.01 1129.14 137.594C1128.2 137.157 1127.48 136.563 1126.95 135.814C1126.45 135.043 1126.2 134.179 1126.2 133.222C1126.2 131.723 1126.76 130.525 1127.86 129.63C1128.98 128.714 1130.74 128.256 1133.14 128.256H1137.45V128.006C1137.45 126.84 1137.09 125.945 1136.39 125.32C1135.7 124.696 1134.67 124.383 1133.29 124.383C1132.36 124.383 1131.43 124.529 1130.51 124.821C1129.62 125.112 1128.86 125.518 1128.23 126.039L1126.7 123.197C1127.58 122.53 1128.63 122.02 1129.86 121.666C1131.09 121.312 1132.39 121.135 1133.76 121.135ZM1133.23 135.377C1134.21 135.377 1135.07 135.158 1135.82 134.721C1136.59 134.263 1137.14 133.617 1137.45 132.784V130.848H1133.42C1131.17 130.848 1130.05 131.587 1130.05 133.066C1130.05 133.773 1130.33 134.336 1130.89 134.752C1131.45 135.168 1132.23 135.377 1133.23 135.377ZM1148.58 133.034C1149.31 133.034 1149.91 133.274 1150.39 133.753C1150.87 134.231 1151.11 134.856 1151.11 135.626C1151.11 135.96 1151.06 136.314 1150.95 136.688C1150.87 137.042 1150.68 137.584 1150.39 138.312L1148.8 142.716H1146.27L1147.52 137.938C1147.06 137.75 1146.7 137.459 1146.42 137.063C1146.17 136.647 1146.05 136.168 1146.05 135.626C1146.05 134.856 1146.29 134.231 1146.77 133.753C1147.25 133.274 1147.85 133.034 1148.58 133.034ZM1028.2 156.135C1030.3 156.135 1031.99 156.75 1033.26 157.978C1034.53 159.206 1035.16 161.028 1035.16 163.443V173H1031.26V163.943C1031.26 162.486 1030.92 161.393 1030.23 160.664C1029.54 159.914 1028.56 159.54 1027.29 159.54C1025.86 159.54 1024.72 159.977 1023.89 160.851C1023.06 161.705 1022.64 162.944 1022.64 164.568V173H1018.74V156.323H1022.45V158.478C1023.1 157.707 1023.91 157.124 1024.89 156.729C1025.87 156.333 1026.97 156.135 1028.2 156.135ZM1056.88 164.755C1056.88 165.026 1056.86 165.411 1056.82 165.911H1043.74C1043.96 167.139 1044.56 168.118 1045.52 168.846C1046.49 169.554 1047.7 169.908 1049.14 169.908C1050.97 169.908 1052.48 169.304 1053.67 168.097L1055.76 170.502C1055.01 171.397 1054.06 172.073 1052.92 172.532C1051.77 172.99 1050.48 173.219 1049.04 173.219C1047.21 173.219 1045.6 172.854 1044.2 172.126C1042.81 171.397 1041.73 170.387 1040.96 169.096C1040.21 167.784 1039.83 166.306 1039.83 164.661C1039.83 163.037 1040.2 161.58 1040.92 160.289C1041.67 158.977 1042.7 157.957 1044.02 157.228C1045.33 156.5 1046.81 156.135 1048.45 156.135C1050.08 156.135 1051.52 156.5 1052.79 157.228C1054.08 157.936 1055.08 158.946 1055.79 160.258C1056.52 161.549 1056.88 163.048 1056.88 164.755ZM1048.45 159.258C1047.2 159.258 1046.14 159.633 1045.27 160.383C1044.41 161.111 1043.89 162.09 1043.7 163.318H1053.17C1053 162.111 1052.49 161.132 1051.64 160.383C1050.78 159.633 1049.72 159.258 1048.45 159.258ZM1082.62 156.135C1084.72 156.135 1086.39 156.75 1087.62 157.978C1088.85 159.186 1089.46 161.007 1089.46 163.443V173H1085.56V163.943C1085.56 162.486 1085.23 161.393 1084.59 160.664C1083.94 159.914 1083.02 159.54 1081.81 159.54C1080.5 159.54 1079.44 159.977 1078.65 160.851C1077.86 161.705 1077.47 162.933 1077.47 164.536V173H1073.56V163.943C1073.56 162.486 1073.24 161.393 1072.59 160.664C1071.95 159.914 1071.02 159.54 1069.82 159.54C1068.48 159.54 1067.42 159.966 1066.63 160.82C1065.86 161.674 1065.47 162.912 1065.47 164.536V173H1061.57V156.323H1065.29V158.446C1065.91 157.697 1066.69 157.124 1067.63 156.729C1068.57 156.333 1069.61 156.135 1070.75 156.135C1072 156.135 1073.11 156.375 1074.06 156.854C1075.04 157.312 1075.81 157.999 1076.37 158.915C1077.06 158.04 1077.95 157.364 1079.03 156.885C1080.11 156.385 1081.31 156.135 1082.62 156.135ZM996.496 207.094C996.038 207.469 995.476 207.75 994.809 207.938C994.164 208.125 993.477 208.219 992.748 208.219C990.916 208.219 989.5 207.74 988.501 206.782C987.501 205.824 987.002 204.429 987.002 202.597V194.571H984.253V191.448H987.002V187.638H990.906V191.448H995.372V194.571H990.906V202.503C990.906 203.315 991.103 203.94 991.499 204.377C991.895 204.794 992.467 205.002 993.217 205.002C994.091 205.002 994.82 204.773 995.403 204.315L996.496 207.094ZM1004.36 193.759C1005.49 192.01 1007.46 191.135 1010.29 191.135V194.852C1009.96 194.789 1009.66 194.758 1009.39 194.758C1007.87 194.758 1006.68 195.206 1005.83 196.101C1004.97 196.976 1004.55 198.246 1004.55 199.911V208H1000.64V191.323H1004.36V193.759ZM1020.82 191.135C1023.28 191.135 1025.15 191.729 1026.44 192.916C1027.76 194.081 1028.41 195.851 1028.41 198.225V208H1024.73V205.97C1024.25 206.699 1023.56 207.261 1022.67 207.656C1021.79 208.031 1020.73 208.219 1019.48 208.219C1018.23 208.219 1017.14 208.01 1016.2 207.594C1015.26 207.157 1014.53 206.563 1014.01 205.814C1013.51 205.043 1013.26 204.179 1013.26 203.222C1013.26 201.723 1013.82 200.525 1014.92 199.63C1016.04 198.714 1017.8 198.256 1020.2 198.256H1024.51V198.006C1024.51 196.84 1024.15 195.945 1023.45 195.32C1022.76 194.696 1021.73 194.383 1020.35 194.383C1019.42 194.383 1018.49 194.529 1017.57 194.821C1016.68 195.112 1015.92 195.518 1015.29 196.039L1013.76 193.197C1014.64 192.53 1015.69 192.02 1016.92 191.666C1018.15 191.312 1019.45 191.135 1020.82 191.135ZM1020.29 205.377C1021.27 205.377 1022.13 205.158 1022.88 204.721C1023.65 204.263 1024.2 203.617 1024.51 202.784V200.848H1020.48C1018.23 200.848 1017.11 201.587 1017.11 203.066C1017.11 203.773 1017.39 204.336 1017.95 204.752C1018.51 205.168 1019.29 205.377 1020.29 205.377ZM1043.6 191.135C1045.23 191.135 1046.67 191.489 1047.94 192.197C1049.24 192.905 1050.24 193.905 1050.97 195.195C1051.7 196.486 1052.07 197.975 1052.07 199.661C1052.07 201.348 1051.7 202.847 1050.97 204.159C1050.24 205.449 1049.24 206.449 1047.94 207.157C1046.67 207.865 1045.23 208.219 1043.6 208.219C1042.46 208.219 1041.41 208.021 1040.45 207.625C1039.51 207.23 1038.72 206.636 1038.08 205.845V208H1034.36V184.827H1038.26V193.353C1038.93 192.624 1039.71 192.072 1040.6 191.698C1041.52 191.323 1042.52 191.135 1043.6 191.135ZM1043.17 204.877C1044.6 204.877 1045.78 204.398 1046.69 203.44C1047.63 202.483 1048.1 201.223 1048.1 199.661C1048.1 198.1 1047.63 196.84 1046.69 195.882C1045.78 194.925 1044.6 194.446 1043.17 194.446C1042.23 194.446 1041.39 194.664 1040.64 195.102C1039.89 195.518 1039.29 196.122 1038.86 196.913C1038.42 197.704 1038.2 198.62 1038.2 199.661C1038.2 200.702 1038.42 201.619 1038.86 202.41C1039.29 203.201 1039.89 203.815 1040.64 204.252C1041.39 204.669 1042.23 204.877 1043.17 204.877ZM1062.86 191.135C1065.32 191.135 1067.19 191.729 1068.49 192.916C1069.8 194.081 1070.45 195.851 1070.45 198.225V208H1066.77V205.97C1066.29 206.699 1065.6 207.261 1064.71 207.656C1063.83 208.031 1062.77 208.219 1061.52 208.219C1060.27 208.219 1059.18 208.01 1058.24 207.594C1057.3 207.157 1056.58 206.563 1056.06 205.814C1055.56 205.043 1055.31 204.179 1055.31 203.222C1055.31 201.723 1055.86 200.525 1056.96 199.63C1058.09 198.714 1059.84 198.256 1062.24 198.256H1066.55V198.006C1066.55 196.84 1066.19 195.945 1065.49 195.32C1064.8 194.696 1063.77 194.383 1062.4 194.383C1061.46 194.383 1060.53 194.529 1059.62 194.821C1058.72 195.112 1057.96 195.518 1057.34 196.039L1055.81 193.197C1056.68 192.53 1057.73 192.02 1058.96 191.666C1060.19 191.312 1061.49 191.135 1062.86 191.135ZM1062.33 205.377C1063.31 205.377 1064.18 205.158 1064.92 204.721C1065.7 204.263 1066.24 203.617 1066.55 202.784V200.848H1062.52C1060.27 200.848 1059.15 201.587 1059.15 203.066C1059.15 203.773 1059.43 204.336 1059.99 204.752C1060.55 205.168 1061.33 205.377 1062.33 205.377ZM1076.4 184.827H1080.3V208H1076.4V184.827ZM1095.83 191.135C1097.93 191.135 1099.62 191.75 1100.89 192.978C1102.16 194.206 1102.79 196.028 1102.79 198.443V208H1098.89V198.943C1098.89 197.486 1098.54 196.393 1097.86 195.664C1097.17 194.914 1096.19 194.54 1094.92 194.54C1093.48 194.54 1092.35 194.977 1091.52 195.851C1090.68 196.705 1090.27 197.944 1090.27 199.568V208H1086.36V184.827H1090.27V193.259C1090.91 192.572 1091.7 192.051 1092.64 191.698C1093.6 191.323 1094.66 191.135 1095.83 191.135ZM1115.05 191.135C1117.51 191.135 1119.38 191.729 1120.67 192.916C1121.99 194.081 1122.64 195.851 1122.64 198.225V208H1118.96V205.97C1118.48 206.699 1117.79 207.261 1116.89 207.656C1116.02 208.031 1114.96 208.219 1113.71 208.219C1112.46 208.219 1111.37 208.01 1110.43 207.594C1109.49 207.157 1108.76 206.563 1108.24 205.814C1107.74 205.043 1107.49 204.179 1107.49 203.222C1107.49 201.723 1108.05 200.525 1109.15 199.63C1110.27 198.714 1112.03 198.256 1114.43 198.256H1118.74V198.006C1118.74 196.84 1118.38 195.945 1117.68 195.32C1116.99 194.696 1115.96 194.383 1114.58 194.383C1113.65 194.383 1112.72 194.529 1111.8 194.821C1110.91 195.112 1110.15 195.518 1109.52 196.039L1107.99 193.197C1108.87 192.53 1109.92 192.02 1111.15 191.666C1112.38 191.312 1113.68 191.135 1115.05 191.135ZM1114.52 205.377C1115.5 205.377 1116.36 205.158 1117.11 204.721C1117.88 204.263 1118.42 203.617 1118.74 202.784V200.848H1114.71C1112.46 200.848 1111.34 201.587 1111.34 203.066C1111.34 203.773 1111.62 204.336 1112.18 204.752C1112.74 205.168 1113.52 205.377 1114.52 205.377Z" fill="white"/>
</g>
<defs>
<clipPath id="clip0">
<rect width="1261" height="302" fill="white"/>
</clipPath>
</defs>
</svg>
