<svg width="1261" height="302" viewBox="0 0 1261 302" fill="none" xmlns="http://www.w3.org/2000/svg">
<g clip-path="url(#clip0)">
<rect width="1261" height="302" fill="#F9F9F9"/>
<path d="M41.6 30.8C44.2667 31.4667 46 33.6 46.8 37.2C42.9333 39.3333 39 42.5333 35 46.8C31 51.0667 28.2 55.7333 26.6 60.8H27.2C32.2667 60.8 36.2 62.1333 39 64.8C41.9333 67.3333 43.4 70.6667 43.4 74.8C43.4 78.6667 41.9333 81.9333 39 84.6C36.2 87.2667 32.8 88.6 28.8 88.6C24 88.6 20.2 86.9333 17.4 83.6C14.6 80.1333 13.2 76 13.2 71.2C13.2 63.0667 15.8 55.8 21 49.4C26.2 43 33.0667 36.8 41.6 30.8ZM81.6 30.8C84.2667 31.4667 86 33.6 86.8 37.2C82.9333 39.3333 79 42.5333 75 46.8C71 51.0667 68.2 55.7333 66.6 60.8H67.2C72.2667 60.8 76.2 62.1333 79 64.8C81.9333 67.3333 83.4 70.6667 83.4 74.8C83.4 78.6667 81.9333 81.9333 79 84.6C76.2 87.2667 72.8 88.6 68.8 88.6C64 88.6 60.2 86.9333 57.4 83.6C54.6 80.1333 53.2 76 53.2 71.2C53.2 63.0667 55.8 55.8 61 49.4C66.2 43 73.0667 36.8 81.6 30.8Z" fill="#C6DAD0"/>
<path d="M130.685 79.4C128.525 79.4 126.431 79.0933 124.405 78.48C122.405 77.8667 120.818 77.0533 119.645 76.04L121.445 72C122.591 72.9067 123.991 73.6533 125.645 74.24C127.325 74.8 129.005 75.08 130.685 75.08C132.765 75.08 134.311 74.7467 135.325 74.08C136.365 73.4133 136.885 72.5333 136.885 71.44C136.885 70.64 136.591 69.9867 136.005 69.48C135.445 68.9467 134.725 68.5333 133.845 68.24C132.965 67.9467 131.765 67.6133 130.245 67.24C128.111 66.7333 126.378 66.2267 125.045 65.72C123.738 65.2133 122.605 64.4267 121.645 63.36C120.711 62.2667 120.245 60.8 120.245 58.96C120.245 57.4133 120.658 56.0133 121.485 54.76C122.338 53.48 123.605 52.4667 125.285 51.72C126.991 50.9733 129.071 50.6 131.525 50.6C133.231 50.6 134.911 50.8133 136.565 51.24C138.218 51.6667 139.645 52.28 140.845 53.08L139.205 57.12C137.978 56.4 136.698 55.8533 135.365 55.48C134.031 55.1067 132.738 54.92 131.485 54.92C129.431 54.92 127.898 55.2667 126.885 55.96C125.898 56.6533 125.405 57.5733 125.405 58.72C125.405 59.52 125.685 60.1733 126.245 60.68C126.831 61.1867 127.565 61.5867 128.445 61.88C129.325 62.1733 130.525 62.5067 132.045 62.88C134.125 63.36 135.831 63.8667 137.165 64.4C138.498 64.9067 139.631 65.6933 140.565 66.76C141.525 67.8267 142.005 69.2667 142.005 71.08C142.005 72.6267 141.578 74.0267 140.725 75.28C139.898 76.5333 138.631 77.5333 136.925 78.28C135.218 79.0267 133.138 79.4 130.685 79.4ZM167.961 68.44C167.961 68.7867 167.934 69.28 167.881 69.92H151.121C151.414 71.4933 152.174 72.7467 153.401 73.68C154.654 74.5867 156.201 75.04 158.041 75.04C160.387 75.04 162.321 74.2667 163.841 72.72L166.521 75.8C165.561 76.9467 164.347 77.8133 162.881 78.4C161.414 78.9867 159.761 79.28 157.921 79.28C155.574 79.28 153.507 78.8133 151.721 77.88C149.934 76.9467 148.547 75.6533 147.561 74C146.601 72.32 146.121 70.4267 146.121 68.32C146.121 66.24 146.587 64.3733 147.521 62.72C148.481 61.04 149.801 59.7333 151.481 58.8C153.161 57.8667 155.054 57.4 157.161 57.4C159.241 57.4 161.094 57.8667 162.721 58.8C164.374 59.7067 165.654 61 166.561 62.68C167.494 64.3333 167.961 66.2533 167.961 68.44ZM157.161 61.4C155.561 61.4 154.201 61.88 153.081 62.84C151.987 63.7733 151.321 65.0267 151.081 66.6H163.201C162.987 65.0533 162.334 63.8 161.241 62.84C160.147 61.88 158.787 61.4 157.161 61.4ZM186.804 77.84C186.217 78.32 185.497 78.68 184.644 78.92C183.817 79.16 182.937 79.28 182.004 79.28C179.657 79.28 177.844 78.6667 176.564 77.44C175.284 76.2133 174.644 74.4267 174.644 72.08V61.8H171.124V57.8H174.644V52.92H179.644V57.8H185.364V61.8H179.644V71.96C179.644 73 179.897 73.8 180.404 74.36C180.91 74.8933 181.644 75.16 182.604 75.16C183.724 75.16 184.657 74.8667 185.404 74.28L186.804 77.84ZM211.494 68.44C211.494 68.7867 211.467 69.28 211.414 69.92H194.654C194.947 71.4933 195.707 72.7467 196.934 73.68C198.187 74.5867 199.734 75.04 201.574 75.04C203.92 75.04 205.854 74.2667 207.374 72.72L210.054 75.8C209.094 76.9467 207.88 77.8133 206.414 78.4C204.947 78.9867 203.294 79.28 201.454 79.28C199.107 79.28 197.04 78.8133 195.254 77.88C193.467 76.9467 192.08 75.6533 191.094 74C190.134 72.32 189.654 70.4267 189.654 68.32C189.654 66.24 190.12 64.3733 191.054 62.72C192.014 61.04 193.334 59.7333 195.014 58.8C196.694 57.8667 198.587 57.4 200.694 57.4C202.774 57.4 204.627 57.8667 206.254 58.8C207.907 59.7067 209.187 61 210.094 62.68C211.027 64.3333 211.494 66.2533 211.494 68.44ZM200.694 61.4C199.094 61.4 197.734 61.88 196.614 62.84C195.52 63.7733 194.854 65.0267 194.614 66.6H206.734C206.52 65.0533 205.867 63.8 204.774 62.84C203.68 61.88 202.32 61.4 200.694 61.4ZM249.831 68.44C249.831 68.7867 249.804 69.28 249.751 69.92H232.991C233.284 71.4933 234.044 72.7467 235.271 73.68C236.524 74.5867 238.071 75.04 239.911 75.04C242.258 75.04 244.191 74.2667 245.711 72.72L248.391 75.8C247.431 76.9467 246.218 77.8133 244.751 78.4C243.284 78.9867 241.631 79.28 239.791 79.28C237.444 79.28 235.378 78.8133 233.591 77.88C231.804 76.9467 230.418 75.6533 229.431 74C228.471 72.32 227.991 70.4267 227.991 68.32C227.991 66.24 228.458 64.3733 229.391 62.72C230.351 61.04 231.671 59.7333 233.351 58.8C235.031 57.8667 236.924 57.4 239.031 57.4C241.111 57.4 242.964 57.8667 244.591 58.8C246.244 59.7067 247.524 61 248.431 62.68C249.364 64.3333 249.831 66.2533 249.831 68.44ZM239.031 61.4C237.431 61.4 236.071 61.88 234.951 62.84C233.858 63.7733 233.191 65.0267 232.951 66.6H245.071C244.858 65.0533 244.204 63.8 243.111 62.84C242.018 61.88 240.658 61.4 239.031 61.4ZM282.794 57.4C285.487 57.4 287.621 58.1867 289.194 59.76C290.767 61.3067 291.554 63.64 291.554 66.76V79H286.554V67.4C286.554 65.5333 286.141 64.1333 285.314 63.2C284.487 62.24 283.301 61.76 281.754 61.76C280.074 61.76 278.727 62.32 277.714 63.44C276.701 64.5333 276.194 66.1067 276.194 68.16V79H271.194V67.4C271.194 65.5333 270.781 64.1333 269.954 63.2C269.127 62.24 267.941 61.76 266.394 61.76C264.687 61.76 263.327 62.3067 262.314 63.4C261.327 64.4933 260.834 66.08 260.834 68.16V79H255.834V57.64H260.594V60.36C261.394 59.4 262.394 58.6667 263.594 58.16C264.794 57.6533 266.127 57.4 267.594 57.4C269.194 57.4 270.607 57.7067 271.834 58.32C273.087 58.9067 274.074 59.7867 274.794 60.96C275.674 59.84 276.807 58.9733 278.194 58.36C279.581 57.72 281.114 57.4 282.794 57.4ZM321.198 79.28C318.985 79.28 316.998 78.8133 315.238 77.88C313.478 76.9467 312.105 75.6533 311.118 74C310.131 72.32 309.638 70.4267 309.638 68.32C309.638 66.2133 310.131 64.3333 311.118 62.68C312.105 61.0267 313.465 59.7333 315.198 58.8C316.958 57.8667 318.958 57.4 321.198 57.4C323.305 57.4 325.145 57.8267 326.718 58.68C328.318 59.5333 329.518 60.76 330.318 62.36L326.478 64.6C325.865 63.6133 325.091 62.88 324.158 62.4C323.251 61.8933 322.251 61.64 321.158 61.64C319.291 61.64 317.745 62.2533 316.518 63.48C315.291 64.68 314.678 66.2933 314.678 68.32C314.678 70.3467 315.278 71.9733 316.478 73.2C317.705 74.4 319.265 75 321.158 75C322.251 75 323.251 74.76 324.158 74.28C325.091 73.7733 325.865 73.0267 326.478 72.04L330.318 74.28C329.491 75.88 328.278 77.12 326.678 78C325.105 78.8533 323.278 79.28 321.198 79.28ZM344 57.4C347.147 57.4 349.547 58.16 351.2 59.68C352.88 61.1733 353.72 63.44 353.72 66.48V79H349V76.4C348.387 77.3333 347.507 78.0533 346.36 78.56C345.24 79.04 343.88 79.28 342.28 79.28C340.68 79.28 339.28 79.0133 338.08 78.48C336.88 77.92 335.947 77.16 335.28 76.2C334.64 75.2133 334.32 74.1067 334.32 72.88C334.32 70.96 335.027 69.4267 336.44 68.28C337.88 67.1067 340.133 66.52 343.2 66.52H348.72V66.2C348.72 64.7067 348.267 63.56 347.36 62.76C346.48 61.96 345.16 61.56 343.4 61.56C342.2 61.56 341.013 61.7467 339.84 62.12C338.693 62.4933 337.72 63.0133 336.92 63.68L334.96 60.04C336.08 59.1867 337.427 58.5333 339 58.08C340.573 57.6267 342.24 57.4 344 57.4ZM343.32 75.64C344.573 75.64 345.68 75.36 346.64 74.8C347.627 74.2133 348.32 73.3867 348.72 72.32V69.84H343.56C340.68 69.84 339.24 70.7867 339.24 72.68C339.24 73.5867 339.6 74.3067 340.32 74.84C341.04 75.3733 342.04 75.64 343.32 75.64ZM382.452 49.32V79H377.652V76.24C376.826 77.2533 375.799 78.0133 374.572 78.52C373.372 79.0267 372.039 79.28 370.572 79.28C368.519 79.28 366.666 78.8267 365.012 77.92C363.386 77.0133 362.106 75.7333 361.172 74.08C360.239 72.4 359.772 70.48 359.772 68.32C359.772 66.16 360.239 64.2533 361.172 62.6C362.106 60.9467 363.386 59.6667 365.012 58.76C366.666 57.8533 368.519 57.4 370.572 57.4C371.986 57.4 373.279 57.64 374.452 58.12C375.626 58.6 376.626 59.32 377.452 60.28V49.32H382.452ZM371.172 75C372.372 75 373.452 74.7333 374.412 74.2C375.372 73.64 376.132 72.8533 376.692 71.84C377.252 70.8267 377.532 69.6533 377.532 68.32C377.532 66.9867 377.252 65.8133 376.692 64.8C376.132 63.7867 375.372 63.0133 374.412 62.48C373.452 61.92 372.372 61.64 371.172 61.64C369.972 61.64 368.892 61.92 367.932 62.48C366.972 63.0133 366.212 63.7867 365.652 64.8C365.092 65.8133 364.812 66.9867 364.812 68.32C364.812 69.6533 365.092 70.8267 365.652 71.84C366.212 72.8533 366.972 73.64 367.932 74.2C368.892 74.7333 369.972 75 371.172 75ZM398.353 57.4C401.5 57.4 403.9 58.16 405.553 59.68C407.233 61.1733 408.073 63.44 408.073 66.48V79H403.353V76.4C402.74 77.3333 401.86 78.0533 400.713 78.56C399.593 79.04 398.233 79.28 396.633 79.28C395.033 79.28 393.633 79.0133 392.433 78.48C391.233 77.92 390.3 77.16 389.633 76.2C388.993 75.2133 388.673 74.1067 388.673 72.88C388.673 70.96 389.38 69.4267 390.793 68.28C392.233 67.1067 394.487 66.52 397.553 66.52H403.073V66.2C403.073 64.7067 402.62 63.56 401.713 62.76C400.833 61.96 399.513 61.56 397.753 61.56C396.553 61.56 395.367 61.7467 394.193 62.12C393.047 62.4933 392.073 63.0133 391.273 63.68L389.313 60.04C390.433 59.1867 391.78 58.5333 393.353 58.08C394.927 57.6267 396.593 57.4 398.353 57.4ZM397.673 75.64C398.927 75.64 400.033 75.36 400.993 74.8C401.98 74.2133 402.673 73.3867 403.073 72.32V69.84H397.913C395.033 69.84 393.593 70.7867 393.593 72.68C393.593 73.5867 393.953 74.3067 394.673 74.84C395.393 75.3733 396.393 75.64 397.673 75.64ZM448.865 49.32V79H444.065V76.24C443.238 77.2533 442.212 78.0133 440.985 78.52C439.785 79.0267 438.452 79.28 436.985 79.28C434.932 79.28 433.078 78.8267 431.425 77.92C429.798 77.0133 428.518 75.7333 427.585 74.08C426.652 72.4 426.185 70.48 426.185 68.32C426.185 66.16 426.652 64.2533 427.585 62.6C428.518 60.9467 429.798 59.6667 431.425 58.76C433.078 57.8533 434.932 57.4 436.985 57.4C438.398 57.4 439.692 57.64 440.865 58.12C442.038 58.6 443.038 59.32 443.865 60.28V49.32H448.865ZM437.585 75C438.785 75 439.865 74.7333 440.825 74.2C441.785 73.64 442.545 72.8533 443.105 71.84C443.665 70.8267 443.945 69.6533 443.945 68.32C443.945 66.9867 443.665 65.8133 443.105 64.8C442.545 63.7867 441.785 63.0133 440.825 62.48C439.865 61.92 438.785 61.64 437.585 61.64C436.385 61.64 435.305 61.92 434.345 62.48C433.385 63.0133 432.625 63.7867 432.065 64.8C431.505 65.8133 431.225 66.9867 431.225 68.32C431.225 69.6533 431.505 70.8267 432.065 71.84C432.625 72.8533 433.385 73.64 434.345 74.2C435.305 74.7333 436.385 75 437.585 75ZM476.686 68.44C476.686 68.7867 476.659 69.28 476.606 69.92H459.846C460.139 71.4933 460.899 72.7467 462.126 73.68C463.379 74.5867 464.926 75.04 466.766 75.04C469.112 75.04 471.046 74.2667 472.566 72.72L475.246 75.8C474.286 76.9467 473.072 77.8133 471.606 78.4C470.139 78.9867 468.486 79.28 466.646 79.28C464.299 79.28 462.232 78.8133 460.446 77.88C458.659 76.9467 457.272 75.6533 456.286 74C455.326 72.32 454.846 70.4267 454.846 68.32C454.846 66.24 455.312 64.3733 456.246 62.72C457.206 61.04 458.526 59.7333 460.206 58.8C461.886 57.8667 463.779 57.4 465.886 57.4C467.966 57.4 469.819 57.8667 471.446 58.8C473.099 59.7067 474.379 61 475.286 62.68C476.219 64.3333 476.686 66.2533 476.686 68.44ZM465.886 61.4C464.286 61.4 462.926 61.88 461.806 62.84C460.712 63.7733 460.046 65.0267 459.806 66.6H471.926C471.712 65.0533 471.059 63.8 469.966 62.84C468.872 61.88 467.512 61.4 465.886 61.4ZM499.173 75V79H480.733V75.84L492.453 61.64H480.973V57.64H498.853V60.8L487.093 75H499.173ZM544.197 57.4C546.89 57.4 549.024 58.1867 550.597 59.76C552.17 61.3067 552.957 63.64 552.957 66.76V79H547.957V67.4C547.957 65.5333 547.544 64.1333 546.717 63.2C545.89 62.24 544.704 61.76 543.157 61.76C541.477 61.76 540.13 62.32 539.117 63.44C538.104 64.5333 537.597 66.1067 537.597 68.16V79H532.597V67.4C532.597 65.5333 532.184 64.1333 531.357 63.2C530.53 62.24 529.344 61.76 527.797 61.76C526.09 61.76 524.73 62.3067 523.717 63.4C522.73 64.4933 522.237 66.08 522.237 68.16V79H517.237V57.64H521.997V60.36C522.797 59.4 523.797 58.6667 524.997 58.16C526.197 57.6533 527.53 57.4 528.997 57.4C530.597 57.4 532.01 57.7067 533.237 58.32C534.49 58.9067 535.477 59.7867 536.197 60.96C537.077 59.84 538.21 58.9733 539.597 58.36C540.984 57.72 542.517 57.4 544.197 57.4ZM580.822 68.44C580.822 68.7867 580.795 69.28 580.742 69.92H563.982C564.275 71.4933 565.035 72.7467 566.262 73.68C567.515 74.5867 569.062 75.04 570.902 75.04C573.248 75.04 575.182 74.2667 576.702 72.72L579.382 75.8C578.422 76.9467 577.208 77.8133 575.742 78.4C574.275 78.9867 572.622 79.28 570.782 79.28C568.435 79.28 566.368 78.8133 564.582 77.88C562.795 76.9467 561.408 75.6533 560.422 74C559.462 72.32 558.982 70.4267 558.982 68.32C558.982 66.24 559.448 64.3733 560.382 62.72C561.342 61.04 562.662 59.7333 564.342 58.8C566.022 57.8667 567.915 57.4 570.022 57.4C572.102 57.4 573.955 57.8667 575.582 58.8C577.235 59.7067 578.515 61 579.422 62.68C580.355 64.3333 580.822 66.2533 580.822 68.44ZM570.022 61.4C568.422 61.4 567.062 61.88 565.942 62.84C564.848 63.7733 564.182 65.0267 563.942 66.6H576.062C575.848 65.0533 575.195 63.8 574.102 62.84C573.008 61.88 571.648 61.4 570.022 61.4ZM598.945 57.4C601.638 57.4 603.798 58.1867 605.425 59.76C607.051 61.3333 607.865 63.6667 607.865 66.76V79H602.865V67.4C602.865 65.5333 602.425 64.1333 601.545 63.2C600.665 62.24 599.411 61.76 597.785 61.76C595.945 61.76 594.491 62.32 593.425 63.44C592.358 64.5333 591.825 66.12 591.825 68.2V79H586.825V57.64H591.585V60.4C592.411 59.4133 593.451 58.6667 594.705 58.16C595.958 57.6533 597.371 57.4 598.945 57.4ZM615.407 57.64H620.407V79H615.407V57.64ZM617.927 54.12C617.021 54.12 616.261 53.84 615.647 53.28C615.034 52.6933 614.727 51.9733 614.727 51.12C614.727 50.2667 615.034 49.56 615.647 49C616.261 48.4133 617.021 48.12 617.927 48.12C618.834 48.12 619.594 48.4 620.207 48.96C620.821 49.4933 621.127 50.1733 621.127 51C621.127 51.88 620.821 52.6267 620.207 53.24C619.621 53.8267 618.861 54.12 617.927 54.12ZM640.29 57.4C642.983 57.4 645.143 58.1867 646.77 59.76C648.397 61.3333 649.21 63.6667 649.21 66.76V79H644.21V67.4C644.21 65.5333 643.77 64.1333 642.89 63.2C642.01 62.24 640.757 61.76 639.13 61.76C637.29 61.76 635.837 62.32 634.77 63.44C633.703 64.5333 633.17 66.12 633.17 68.2V79H628.17V57.64H632.93V60.4C633.757 59.4133 634.797 58.6667 636.05 58.16C637.303 57.6533 638.717 57.4 640.29 57.4ZM664.913 57.4C668.059 57.4 670.459 58.16 672.113 59.68C673.793 61.1733 674.633 63.44 674.633 66.48V79H669.913V76.4C669.299 77.3333 668.419 78.0533 667.273 78.56C666.153 79.04 664.793 79.28 663.193 79.28C661.593 79.28 660.193 79.0133 658.993 78.48C657.793 77.92 656.859 77.16 656.193 76.2C655.553 75.2133 655.233 74.1067 655.233 72.88C655.233 70.96 655.939 69.4267 657.353 68.28C658.793 67.1067 661.046 66.52 664.113 66.52H669.633V66.2C669.633 64.7067 669.179 63.56 668.273 62.76C667.393 61.96 666.073 61.56 664.313 61.56C663.113 61.56 661.926 61.7467 660.753 62.12C659.606 62.4933 658.633 63.0133 657.833 63.68L655.873 60.04C656.993 59.1867 658.339 58.5333 659.913 58.08C661.486 57.6267 663.153 57.4 664.913 57.4ZM664.233 75.64C665.486 75.64 666.593 75.36 667.553 74.8C668.539 74.2133 669.233 73.3867 669.633 72.32V69.84H664.473C661.593 69.84 660.153 70.7867 660.153 72.68C660.153 73.5867 660.513 74.3067 661.233 74.84C661.953 75.3733 662.953 75.64 664.233 75.64ZM688.849 79.28C687.116 79.28 685.423 79.0533 683.769 78.6C682.116 78.1467 680.796 77.5733 679.809 76.88L681.729 73.08C682.689 73.72 683.836 74.24 685.169 74.64C686.529 75.0133 687.863 75.2 689.169 75.2C692.156 75.2 693.649 74.4133 693.649 72.84C693.649 72.0933 693.263 71.5733 692.489 71.28C691.743 70.9867 690.529 70.7067 688.849 70.44C687.089 70.1733 685.649 69.8667 684.529 69.52C683.436 69.1733 682.476 68.5733 681.649 67.72C680.849 66.84 680.449 65.6267 680.449 64.08C680.449 62.0533 681.289 60.44 682.969 59.24C684.676 58.0133 686.969 57.4 689.849 57.4C691.316 57.4 692.783 57.5733 694.249 57.92C695.716 58.24 696.916 58.68 697.849 59.24L695.929 63.04C694.116 61.9733 692.076 61.44 689.809 61.44C688.343 61.44 687.223 61.6667 686.449 62.12C685.703 62.5467 685.329 63.12 685.329 63.84C685.329 64.64 685.729 65.2133 686.529 65.56C687.356 65.88 688.623 66.1867 690.329 66.48C692.036 66.7467 693.436 67.0533 694.529 67.4C695.623 67.7467 696.556 68.3333 697.329 69.16C698.129 69.9867 698.529 71.16 698.529 72.68C698.529 74.68 697.663 76.28 695.929 77.48C694.196 78.68 691.836 79.28 688.849 79.28ZM160.145 124.28C158.411 124.28 156.718 124.053 155.065 123.6C153.411 123.147 152.091 122.573 151.105 121.88L153.025 118.08C153.985 118.72 155.131 119.24 156.465 119.64C157.825 120.013 159.158 120.2 160.465 120.2C163.451 120.2 164.945 119.413 164.945 117.84C164.945 117.093 164.558 116.573 163.785 116.28C163.038 115.987 161.825 115.707 160.145 115.44C158.385 115.173 156.945 114.867 155.825 114.52C154.731 114.173 153.771 113.573 152.945 112.72C152.145 111.84 151.745 110.627 151.745 109.08C151.745 107.053 152.585 105.44 154.265 104.24C155.971 103.013 158.265 102.4 161.145 102.4C162.611 102.4 164.078 102.573 165.545 102.92C167.011 103.24 168.211 103.68 169.145 104.24L167.225 108.04C165.411 106.973 163.371 106.44 161.105 106.44C159.638 106.44 158.518 106.667 157.745 107.12C156.998 107.547 156.625 108.12 156.625 108.84C156.625 109.64 157.025 110.213 157.825 110.56C158.651 110.88 159.918 111.187 161.625 111.48C163.331 111.747 164.731 112.053 165.825 112.4C166.918 112.747 167.851 113.333 168.625 114.16C169.425 114.987 169.825 116.16 169.825 117.68C169.825 119.68 168.958 121.28 167.225 122.48C165.491 123.68 163.131 124.28 160.145 124.28ZM183.491 102.4C186.637 102.4 189.037 103.16 190.691 104.68C192.371 106.173 193.211 108.44 193.211 111.48V124H188.491V121.4C187.877 122.333 186.997 123.053 185.851 123.56C184.731 124.04 183.371 124.28 181.771 124.28C180.171 124.28 178.771 124.013 177.571 123.48C176.371 122.92 175.437 122.16 174.771 121.2C174.131 120.213 173.811 119.107 173.811 117.88C173.811 115.96 174.517 114.427 175.931 113.28C177.371 112.107 179.624 111.52 182.691 111.52H188.211V111.2C188.211 109.707 187.757 108.56 186.851 107.76C185.971 106.96 184.651 106.56 182.891 106.56C181.691 106.56 180.504 106.747 179.331 107.12C178.184 107.493 177.211 108.013 176.411 108.68L174.451 105.04C175.571 104.187 176.917 103.533 178.491 103.08C180.064 102.627 181.731 102.4 183.491 102.4ZM182.811 120.64C184.064 120.64 185.171 120.36 186.131 119.8C187.117 119.213 187.811 118.387 188.211 117.32V114.84H183.051C180.171 114.84 178.731 115.787 178.731 117.68C178.731 118.587 179.091 119.307 179.811 119.84C180.531 120.373 181.531 120.64 182.811 120.64ZM186.811 99.72C186.144 99.72 185.557 99.5867 185.051 99.32C184.571 99.0533 183.971 98.6533 183.251 98.12C182.824 97.7733 182.464 97.52 182.171 97.36C181.904 97.1733 181.637 97.08 181.371 97.08C180.811 97.08 180.344 97.2933 179.971 97.72C179.624 98.1467 179.437 98.7333 179.411 99.48H176.731C176.757 97.8533 177.157 96.56 177.931 95.6C178.731 94.6133 179.771 94.12 181.051 94.12C181.717 94.12 182.291 94.2533 182.771 94.52C183.277 94.7867 183.891 95.1867 184.611 95.72C185.037 96.0667 185.384 96.3333 185.651 96.52C185.944 96.68 186.224 96.76 186.491 96.76C187.051 96.76 187.504 96.56 187.851 96.16C188.224 95.76 188.424 95.2 188.451 94.48H191.131C191.077 96.0533 190.664 97.32 189.891 98.28C189.117 99.24 188.091 99.72 186.811 99.72ZM210.623 124.28C208.463 124.28 206.516 123.813 204.783 122.88C203.05 121.947 201.69 120.653 200.703 119C199.743 117.32 199.263 115.427 199.263 113.32C199.263 111.213 199.743 109.333 200.703 107.68C201.69 106.027 203.05 104.733 204.783 103.8C206.516 102.867 208.463 102.4 210.623 102.4C212.81 102.4 214.77 102.867 216.503 103.8C218.236 104.733 219.583 106.027 220.543 107.68C221.53 109.333 222.023 111.213 222.023 113.32C222.023 115.427 221.53 117.32 220.543 119C219.583 120.653 218.236 121.947 216.503 122.88C214.77 123.813 212.81 124.28 210.623 124.28ZM210.623 120C212.463 120 213.983 119.387 215.183 118.16C216.383 116.933 216.983 115.32 216.983 113.32C216.983 111.32 216.383 109.707 215.183 108.48C213.983 107.253 212.463 106.64 210.623 106.64C208.783 106.64 207.263 107.253 206.063 108.48C204.89 109.707 204.303 111.32 204.303 113.32C204.303 115.32 204.89 116.933 206.063 118.16C207.263 119.387 208.783 120 210.623 120ZM248.419 102.4C251.566 102.4 253.966 103.16 255.619 104.68C257.299 106.173 258.139 108.44 258.139 111.48V124H253.419V121.4C252.806 122.333 251.926 123.053 250.779 123.56C249.659 124.04 248.299 124.28 246.699 124.28C245.099 124.28 243.699 124.013 242.499 123.48C241.299 122.92 240.366 122.16 239.699 121.2C239.059 120.213 238.739 119.107 238.739 117.88C238.739 115.96 239.446 114.427 240.859 113.28C242.299 112.107 244.552 111.52 247.619 111.52H253.139V111.2C253.139 109.707 252.686 108.56 251.779 107.76C250.899 106.96 249.579 106.56 247.819 106.56C246.619 106.56 245.432 106.747 244.259 107.12C243.112 107.493 242.139 108.013 241.339 108.68L239.379 105.04C240.499 104.187 241.846 103.533 243.419 103.08C244.992 102.627 246.659 102.4 248.419 102.4ZM247.739 120.64C248.992 120.64 250.099 120.36 251.059 119.8C252.046 119.213 252.739 118.387 253.139 117.32V114.84H247.979C245.099 114.84 243.659 115.787 243.659 117.68C243.659 118.587 244.019 119.307 244.739 119.84C245.459 120.373 246.459 120.64 247.739 120.64ZM274.436 98.08C272.329 98.08 271.276 99.2267 271.276 101.52V102.8H277.156V106.8H271.436V124H266.436V106.8H262.916V102.8H266.436V101.44C266.436 99.1467 267.102 97.3467 268.436 96.04C269.769 94.7067 271.649 94.04 274.076 94.04C275.996 94.04 277.502 94.4267 278.596 95.2L277.196 98.96C276.342 98.3733 275.422 98.08 274.436 98.08ZM289.685 105.76C291.125 103.52 293.658 102.4 297.285 102.4V107.16C296.858 107.08 296.471 107.04 296.125 107.04C294.178 107.04 292.658 107.613 291.565 108.76C290.471 109.88 289.925 111.507 289.925 113.64V124H284.925V102.64H289.685V105.76ZM312.131 124.28C309.971 124.28 308.024 123.813 306.291 122.88C304.557 121.947 303.197 120.653 302.211 119C301.251 117.32 300.771 115.427 300.771 113.32C300.771 111.213 301.251 109.333 302.211 107.68C303.197 106.027 304.557 104.733 306.291 103.8C308.024 102.867 309.971 102.4 312.131 102.4C314.317 102.4 316.277 102.867 318.011 103.8C319.744 104.733 321.091 106.027 322.051 107.68C323.037 109.333 323.531 111.213 323.531 113.32C323.531 115.427 323.037 117.32 322.051 119C321.091 120.653 319.744 121.947 318.011 122.88C316.277 123.813 314.317 124.28 312.131 124.28ZM312.131 120C313.971 120 315.491 119.387 316.691 118.16C317.891 116.933 318.491 115.32 318.491 113.32C318.491 111.32 317.891 109.707 316.691 108.48C315.491 107.253 313.971 106.64 312.131 106.64C310.291 106.64 308.771 107.253 307.571 108.48C306.397 109.707 305.811 111.32 305.811 113.32C305.811 115.32 306.397 116.933 307.571 118.16C308.771 119.387 310.291 120 312.131 120ZM350.432 94.32V124H345.632V121.24C344.805 122.253 343.779 123.013 342.552 123.52C341.352 124.027 340.019 124.28 338.552 124.28C336.499 124.28 334.645 123.827 332.992 122.92C331.365 122.013 330.085 120.733 329.152 119.08C328.219 117.4 327.752 115.48 327.752 113.32C327.752 111.16 328.219 109.253 329.152 107.6C330.085 105.947 331.365 104.667 332.992 103.76C334.645 102.853 336.499 102.4 338.552 102.4C339.965 102.4 341.259 102.64 342.432 103.12C343.605 103.6 344.605 104.32 345.432 105.28V94.32H350.432ZM339.152 120C340.352 120 341.432 119.733 342.392 119.2C343.352 118.64 344.112 117.853 344.672 116.84C345.232 115.827 345.512 114.653 345.512 113.32C345.512 111.987 345.232 110.813 344.672 109.8C344.112 108.787 343.352 108.013 342.392 107.48C341.432 106.92 340.352 106.64 339.152 106.64C337.952 106.64 336.872 106.92 335.912 107.48C334.952 108.013 334.192 108.787 333.632 109.8C333.072 110.813 332.792 111.987 332.792 113.32C332.792 114.653 333.072 115.827 333.632 116.84C334.192 117.853 334.952 118.64 335.912 119.2C336.872 119.733 337.952 120 339.152 120ZM378.253 113.44C378.253 113.787 378.226 114.28 378.173 114.92H361.413C361.706 116.493 362.466 117.747 363.693 118.68C364.946 119.587 366.493 120.04 368.333 120.04C370.68 120.04 372.613 119.267 374.133 117.72L376.813 120.8C375.853 121.947 374.64 122.813 373.173 123.4C371.706 123.987 370.053 124.28 368.213 124.28C365.866 124.28 363.8 123.813 362.013 122.88C360.226 121.947 358.84 120.653 357.853 119C356.893 117.32 356.413 115.427 356.413 113.32C356.413 111.24 356.88 109.373 357.813 107.72C358.773 106.04 360.093 104.733 361.773 103.8C363.453 102.867 365.346 102.4 367.453 102.4C369.533 102.4 371.386 102.867 373.013 103.8C374.666 104.707 375.946 106 376.853 107.68C377.786 109.333 378.253 111.253 378.253 113.44ZM367.453 106.4C365.853 106.4 364.493 106.88 363.373 107.84C362.28 108.773 361.613 110.027 361.373 111.6H373.493C373.28 110.053 372.626 108.8 371.533 107.84C370.44 106.88 369.08 106.4 367.453 106.4ZM390.856 124.28C389.122 124.28 387.429 124.053 385.776 123.6C384.122 123.147 382.802 122.573 381.816 121.88L383.736 118.08C384.696 118.72 385.842 119.24 387.176 119.64C388.536 120.013 389.869 120.2 391.176 120.2C394.162 120.2 395.656 119.413 395.656 117.84C395.656 117.093 395.269 116.573 394.496 116.28C393.749 115.987 392.536 115.707 390.856 115.44C389.096 115.173 387.656 114.867 386.536 114.52C385.442 114.173 384.482 113.573 383.656 112.72C382.856 111.84 382.456 110.627 382.456 109.08C382.456 107.053 383.296 105.44 384.976 104.24C386.682 103.013 388.976 102.4 391.856 102.4C393.322 102.4 394.789 102.573 396.256 102.92C397.722 103.24 398.922 103.68 399.856 104.24L397.936 108.04C396.122 106.973 394.082 106.44 391.816 106.44C390.349 106.44 389.229 106.667 388.456 107.12C387.709 107.547 387.336 108.12 387.336 108.84C387.336 109.64 387.736 110.213 388.536 110.56C389.362 110.88 390.629 111.187 392.336 111.48C394.042 111.747 395.442 112.053 396.536 112.4C397.629 112.747 398.562 113.333 399.336 114.16C400.136 114.987 400.536 116.16 400.536 117.68C400.536 119.68 399.669 121.28 397.936 122.48C396.202 123.68 393.842 124.28 390.856 124.28ZM415.842 124.28C413.628 124.28 411.642 123.813 409.882 122.88C408.122 121.947 406.748 120.653 405.762 119C404.775 117.32 404.282 115.427 404.282 113.32C404.282 111.213 404.775 109.333 405.762 107.68C406.748 106.027 408.108 104.733 409.842 103.8C411.602 102.867 413.602 102.4 415.842 102.4C417.948 102.4 419.788 102.827 421.362 103.68C422.962 104.533 424.162 105.76 424.962 107.36L421.122 109.6C420.508 108.613 419.735 107.88 418.802 107.4C417.895 106.893 416.895 106.64 415.802 106.64C413.935 106.64 412.388 107.253 411.162 108.48C409.935 109.68 409.322 111.293 409.322 113.32C409.322 115.347 409.922 116.973 411.122 118.2C412.348 119.4 413.908 120 415.802 120C416.895 120 417.895 119.76 418.802 119.28C419.735 118.773 420.508 118.027 421.122 117.04L424.962 119.28C424.135 120.88 422.922 122.12 421.322 123C419.748 123.853 417.922 124.28 415.842 124.28ZM450.251 113.44C450.251 113.787 450.225 114.28 450.171 114.92H433.411C433.705 116.493 434.465 117.747 435.691 118.68C436.945 119.587 438.491 120.04 440.331 120.04C442.678 120.04 444.611 119.267 446.131 117.72L448.811 120.8C447.851 121.947 446.638 122.813 445.171 123.4C443.705 123.987 442.051 124.28 440.211 124.28C437.865 124.28 435.798 123.813 434.011 122.88C432.225 121.947 430.838 120.653 429.851 119C428.891 117.32 428.411 115.427 428.411 113.32C428.411 111.24 428.878 109.373 429.811 107.72C430.771 106.04 432.091 104.733 433.771 103.8C435.451 102.867 437.345 102.4 439.451 102.4C441.531 102.4 443.385 102.867 445.011 103.8C446.665 104.707 447.945 106 448.851 107.68C449.785 109.333 450.251 111.253 450.251 113.44ZM439.451 106.4C437.851 106.4 436.491 106.88 435.371 107.84C434.278 108.773 433.611 110.027 433.371 111.6H445.491C445.278 110.053 444.625 108.8 443.531 107.84C442.438 106.88 441.078 106.4 439.451 106.4ZM468.374 102.4C471.068 102.4 473.228 103.187 474.854 104.76C476.481 106.333 477.294 108.667 477.294 111.76V124H472.294V112.4C472.294 110.533 471.854 109.133 470.974 108.2C470.094 107.24 468.841 106.76 467.214 106.76C465.374 106.76 463.921 107.32 462.854 108.44C461.788 109.533 461.254 111.12 461.254 113.2V124H456.254V102.64H461.014V105.4C461.841 104.413 462.881 103.667 464.134 103.16C465.388 102.653 466.801 102.4 468.374 102.4ZM505.952 94.32V124H501.152V121.24C500.326 122.253 499.299 123.013 498.072 123.52C496.872 124.027 495.539 124.28 494.072 124.28C492.019 124.28 490.166 123.827 488.512 122.92C486.886 122.013 485.606 120.733 484.672 119.08C483.739 117.4 483.272 115.48 483.272 113.32C483.272 111.16 483.739 109.253 484.672 107.6C485.606 105.947 486.886 104.667 488.512 103.76C490.166 102.853 492.019 102.4 494.072 102.4C495.486 102.4 496.779 102.64 497.952 103.12C499.126 103.6 500.126 104.32 500.952 105.28V94.32H505.952ZM494.672 120C495.872 120 496.952 119.733 497.912 119.2C498.872 118.64 499.632 117.853 500.192 116.84C500.752 115.827 501.032 114.653 501.032 113.32C501.032 111.987 500.752 110.813 500.192 109.8C499.632 108.787 498.872 108.013 497.912 107.48C496.952 106.92 495.872 106.64 494.672 106.64C493.472 106.64 492.392 106.92 491.432 107.48C490.472 108.013 489.712 108.787 489.152 109.8C488.592 110.813 488.312 111.987 488.312 113.32C488.312 114.653 488.592 115.827 489.152 116.84C489.712 117.853 490.472 118.64 491.432 119.2C492.392 119.733 493.472 120 494.672 120ZM533.773 113.44C533.773 113.787 533.747 114.28 533.693 114.92H516.933C517.227 116.493 517.987 117.747 519.213 118.68C520.467 119.587 522.013 120.04 523.853 120.04C526.2 120.04 528.133 119.267 529.653 117.72L532.333 120.8C531.373 121.947 530.16 122.813 528.693 123.4C527.227 123.987 525.573 124.28 523.733 124.28C521.387 124.28 519.32 123.813 517.533 122.88C515.747 121.947 514.36 120.653 513.373 119C512.413 117.32 511.933 115.427 511.933 113.32C511.933 111.24 512.4 109.373 513.333 107.72C514.293 106.04 515.613 104.733 517.293 103.8C518.973 102.867 520.867 102.4 522.973 102.4C525.053 102.4 526.907 102.867 528.533 103.8C530.187 104.707 531.467 106 532.373 107.68C533.307 109.333 533.773 111.253 533.773 113.44ZM522.973 106.4C521.373 106.4 520.013 106.88 518.893 107.84C517.8 108.773 517.133 110.027 516.893 111.6H529.013C528.8 110.053 528.147 108.8 527.053 107.84C525.96 106.88 524.6 106.4 522.973 106.4ZM551.896 102.4C554.589 102.4 556.749 103.187 558.376 104.76C560.003 106.333 560.816 108.667 560.816 111.76V124H555.816V112.4C555.816 110.533 555.376 109.133 554.496 108.2C553.616 107.24 552.363 106.76 550.736 106.76C548.896 106.76 547.443 107.32 546.376 108.44C545.309 109.533 544.776 111.12 544.776 113.2V124H539.776V102.64H544.536V105.4C545.363 104.413 546.403 103.667 547.656 103.16C548.909 102.653 550.323 102.4 551.896 102.4ZM581.199 122.84C580.612 123.32 579.892 123.68 579.039 123.92C578.212 124.16 577.332 124.28 576.399 124.28C574.052 124.28 572.239 123.667 570.959 122.44C569.679 121.213 569.039 119.427 569.039 117.08V106.8H565.519V102.8H569.039V97.92H574.039V102.8H579.759V106.8H574.039V116.96C574.039 118 574.292 118.8 574.799 119.36C575.306 119.893 576.039 120.16 576.999 120.16C578.119 120.16 579.052 119.867 579.799 119.28L581.199 122.84ZM605.889 113.44C605.889 113.787 605.862 114.28 605.809 114.92H589.049C589.342 116.493 590.102 117.747 591.329 118.68C592.582 119.587 594.129 120.04 595.969 120.04C598.316 120.04 600.249 119.267 601.769 117.72L604.449 120.8C603.489 121.947 602.276 122.813 600.809 123.4C599.342 123.987 597.689 124.28 595.849 124.28C593.502 124.28 591.436 123.813 589.649 122.88C587.862 121.947 586.476 120.653 585.489 119C584.529 117.32 584.049 115.427 584.049 113.32C584.049 111.24 584.516 109.373 585.449 107.72C586.409 106.04 587.729 104.733 589.409 103.8C591.089 102.867 592.982 102.4 595.089 102.4C597.169 102.4 599.022 102.867 600.649 103.8C602.302 104.707 603.582 106 604.489 107.68C605.422 109.333 605.889 111.253 605.889 113.44ZM595.089 106.4C593.489 106.4 592.129 106.88 591.009 107.84C589.916 108.773 589.249 110.027 589.009 111.6H601.129C600.916 110.053 600.262 108.8 599.169 107.84C598.076 106.88 596.716 106.4 595.089 106.4ZM618.492 124.28C616.758 124.28 615.065 124.053 613.412 123.6C611.758 123.147 610.438 122.573 609.452 121.88L611.372 118.08C612.332 118.72 613.478 119.24 614.812 119.64C616.172 120.013 617.505 120.2 618.812 120.2C621.798 120.2 623.292 119.413 623.292 117.84C623.292 117.093 622.905 116.573 622.132 116.28C621.385 115.987 620.172 115.707 618.492 115.44C616.732 115.173 615.292 114.867 614.172 114.52C613.078 114.173 612.118 113.573 611.292 112.72C610.492 111.84 610.092 110.627 610.092 109.08C610.092 107.053 610.932 105.44 612.612 104.24C614.318 103.013 616.612 102.4 619.492 102.4C620.958 102.4 622.425 102.573 623.892 102.92C625.358 103.24 626.558 103.68 627.492 104.24L625.572 108.04C623.758 106.973 621.718 106.44 619.452 106.44C617.985 106.44 616.865 106.667 616.092 107.12C615.345 107.547 614.972 108.12 614.972 108.84C614.972 109.64 615.372 110.213 616.172 110.56C616.998 110.88 618.265 111.187 619.972 111.48C621.678 111.747 623.078 112.053 624.172 112.4C625.265 112.747 626.198 113.333 626.972 114.16C627.772 114.987 628.172 116.16 628.172 117.68C628.172 119.68 627.305 121.28 625.572 122.48C623.838 123.68 621.478 124.28 618.492 124.28ZM666.012 113.44C666.012 113.787 665.986 114.28 665.932 114.92H649.172C649.466 116.493 650.226 117.747 651.452 118.68C652.706 119.587 654.252 120.04 656.092 120.04C658.439 120.04 660.372 119.267 661.892 117.72L664.572 120.8C663.612 121.947 662.399 122.813 660.932 123.4C659.466 123.987 657.812 124.28 655.972 124.28C653.626 124.28 651.559 123.813 649.772 122.88C647.986 121.947 646.599 120.653 645.612 119C644.652 117.32 644.172 115.427 644.172 113.32C644.172 111.24 644.639 109.373 645.572 107.72C646.532 106.04 647.852 104.733 649.532 103.8C651.212 102.867 653.106 102.4 655.212 102.4C657.292 102.4 659.146 102.867 660.772 103.8C662.426 104.707 663.706 106 664.612 107.68C665.546 109.333 666.012 111.253 666.012 113.44ZM655.212 106.4C653.612 106.4 652.252 106.88 651.132 107.84C650.039 108.773 649.372 110.027 649.132 111.6H661.252C661.039 110.053 660.386 108.8 659.292 107.84C658.199 106.88 656.839 106.4 655.212 106.4ZM202.185 147.4C205.332 147.4 207.732 148.16 209.385 149.68C211.065 151.173 211.905 153.44 211.905 156.48V169H207.185V166.4C206.572 167.333 205.692 168.053 204.545 168.56C203.425 169.04 202.065 169.28 200.465 169.28C198.865 169.28 197.465 169.013 196.265 168.48C195.065 167.92 194.132 167.16 193.465 166.2C192.825 165.213 192.505 164.107 192.505 162.88C192.505 160.96 193.212 159.427 194.625 158.28C196.065 157.107 198.319 156.52 201.385 156.52H206.905V156.2C206.905 154.707 206.452 153.56 205.545 152.76C204.665 151.96 203.345 151.56 201.585 151.56C200.385 151.56 199.199 151.747 198.025 152.12C196.879 152.493 195.905 153.013 195.105 153.68L193.145 150.04C194.265 149.187 195.612 148.533 197.185 148.08C198.759 147.627 200.425 147.4 202.185 147.4ZM201.505 165.64C202.759 165.64 203.865 165.36 204.825 164.8C205.812 164.213 206.505 163.387 206.905 162.32V159.84H201.745C198.865 159.84 197.425 160.787 197.425 162.68C197.425 163.587 197.785 164.307 198.505 164.84C199.225 165.373 200.225 165.64 201.505 165.64ZM231.362 147.4C233.442 147.4 235.296 147.853 236.922 148.76C238.576 149.667 239.869 150.947 240.802 152.6C241.736 154.253 242.202 156.16 242.202 158.32C242.202 160.48 241.736 162.4 240.802 164.08C239.869 165.733 238.576 167.013 236.922 167.92C235.296 168.827 233.442 169.28 231.362 169.28C228.482 169.28 226.202 168.32 224.522 166.4V176.76H219.522V147.64H224.282V150.44C225.109 149.427 226.122 148.667 227.322 148.16C228.549 147.653 229.896 147.4 231.362 147.4ZM230.802 165C232.642 165 234.149 164.387 235.322 163.16C236.522 161.933 237.122 160.32 237.122 158.32C237.122 156.32 236.522 154.707 235.322 153.48C234.149 152.253 232.642 151.64 230.802 151.64C229.602 151.64 228.522 151.92 227.562 152.48C226.602 153.013 225.842 153.787 225.282 154.8C224.722 155.813 224.442 156.987 224.442 158.32C224.442 159.653 224.722 160.827 225.282 161.84C225.842 162.853 226.602 163.64 227.562 164.2C228.522 164.733 229.602 165 230.802 165ZM252.904 150.76C254.344 148.52 256.877 147.4 260.504 147.4V152.16C260.077 152.08 259.691 152.04 259.344 152.04C257.397 152.04 255.877 152.613 254.784 153.76C253.691 154.88 253.144 156.507 253.144 158.64V169H248.144V147.64H252.904V150.76ZM275.35 169.28C273.19 169.28 271.244 168.813 269.51 167.88C267.777 166.947 266.417 165.653 265.43 164C264.47 162.32 263.99 160.427 263.99 158.32C263.99 156.213 264.47 154.333 265.43 152.68C266.417 151.027 267.777 149.733 269.51 148.8C271.244 147.867 273.19 147.4 275.35 147.4C277.537 147.4 279.497 147.867 281.23 148.8C282.964 149.733 284.31 151.027 285.27 152.68C286.257 154.333 286.75 156.213 286.75 158.32C286.75 160.427 286.257 162.32 285.27 164C284.31 165.653 282.964 166.947 281.23 167.88C279.497 168.813 277.537 169.28 275.35 169.28ZM275.35 165C277.19 165 278.71 164.387 279.91 163.16C281.11 161.933 281.71 160.32 281.71 158.32C281.71 156.32 281.11 154.707 279.91 153.48C278.71 152.253 277.19 151.64 275.35 151.64C273.51 151.64 271.99 152.253 270.79 153.48C269.617 154.707 269.03 156.32 269.03 158.32C269.03 160.32 269.617 161.933 270.79 163.16C271.99 164.387 273.51 165 275.35 165ZM305.628 169L300.148 161.6L294.628 169H289.108L297.428 158.16L289.468 147.64H295.028L300.268 154.64L305.508 147.64H310.908L302.908 158.08L311.268 169H305.628ZM316.158 147.64H321.158V169H316.158V147.64ZM318.678 144.12C317.771 144.12 317.011 143.84 316.398 143.28C315.785 142.693 315.478 141.973 315.478 141.12C315.478 140.267 315.785 139.56 316.398 139C317.011 138.413 317.771 138.12 318.678 138.12C319.585 138.12 320.345 138.4 320.958 138.96C321.571 139.493 321.878 140.173 321.878 141C321.878 141.88 321.571 142.627 320.958 143.24C320.371 143.827 319.611 144.12 318.678 144.12ZM355.881 147.4C358.574 147.4 360.707 148.187 362.281 149.76C363.854 151.307 364.641 153.64 364.641 156.76V169H359.641V157.4C359.641 155.533 359.227 154.133 358.401 153.2C357.574 152.24 356.387 151.76 354.841 151.76C353.161 151.76 351.814 152.32 350.801 153.44C349.787 154.533 349.281 156.107 349.281 158.16V169H344.281V157.4C344.281 155.533 343.867 154.133 343.041 153.2C342.214 152.24 341.027 151.76 339.481 151.76C337.774 151.76 336.414 152.307 335.401 153.4C334.414 154.493 333.921 156.08 333.921 158.16V169H328.921V147.64H333.681V150.36C334.481 149.4 335.481 148.667 336.681 148.16C337.881 147.653 339.214 147.4 340.681 147.4C342.281 147.4 343.694 147.707 344.921 148.32C346.174 148.907 347.161 149.787 347.881 150.96C348.761 149.84 349.894 148.973 351.281 148.36C352.667 147.72 354.201 147.4 355.881 147.4ZM380.39 147.4C383.537 147.4 385.937 148.16 387.59 149.68C389.27 151.173 390.11 153.44 390.11 156.48V169H385.39V166.4C384.777 167.333 383.897 168.053 382.75 168.56C381.63 169.04 380.27 169.28 378.67 169.28C377.07 169.28 375.67 169.013 374.47 168.48C373.27 167.92 372.337 167.16 371.67 166.2C371.03 165.213 370.71 164.107 370.71 162.88C370.71 160.96 371.417 159.427 372.83 158.28C374.27 157.107 376.523 156.52 379.59 156.52H385.11V156.2C385.11 154.707 384.657 153.56 383.75 152.76C382.87 151.96 381.55 151.56 379.79 151.56C378.59 151.56 377.403 151.747 376.23 152.12C375.083 152.493 374.11 153.013 373.31 153.68L371.35 150.04C372.47 149.187 373.817 148.533 375.39 148.08C376.963 147.627 378.63 147.4 380.39 147.4ZM379.71 165.64C380.963 165.64 382.07 165.36 383.03 164.8C384.017 164.213 384.71 163.387 385.11 162.32V159.84H379.95C377.07 159.84 375.63 160.787 375.63 162.68C375.63 163.587 375.99 164.307 376.71 164.84C377.43 165.373 378.43 165.64 379.71 165.64ZM418.842 139.32V169H414.042V166.24C413.216 167.253 412.189 168.013 410.962 168.52C409.762 169.027 408.429 169.28 406.962 169.28C404.909 169.28 403.056 168.827 401.402 167.92C399.776 167.013 398.496 165.733 397.562 164.08C396.629 162.4 396.162 160.48 396.162 158.32C396.162 156.16 396.629 154.253 397.562 152.6C398.496 150.947 399.776 149.667 401.402 148.76C403.056 147.853 404.909 147.4 406.962 147.4C408.376 147.4 409.669 147.64 410.842 148.12C412.016 148.6 413.016 149.32 413.842 150.28V139.32H418.842ZM407.562 165C408.762 165 409.842 164.733 410.802 164.2C411.762 163.64 412.522 162.853 413.082 161.84C413.642 160.827 413.922 159.653 413.922 158.32C413.922 156.987 413.642 155.813 413.082 154.8C412.522 153.787 411.762 153.013 410.802 152.48C409.842 151.92 408.762 151.64 407.562 151.64C406.362 151.64 405.282 151.92 404.322 152.48C403.362 153.013 402.602 153.787 402.042 154.8C401.482 155.813 401.202 156.987 401.202 158.32C401.202 159.653 401.482 160.827 402.042 161.84C402.602 162.853 403.362 163.64 404.322 164.2C405.282 164.733 406.362 165 407.562 165ZM434.743 147.4C437.89 147.4 440.29 148.16 441.943 149.68C443.623 151.173 444.463 153.44 444.463 156.48V169H439.743V166.4C439.13 167.333 438.25 168.053 437.103 168.56C435.983 169.04 434.623 169.28 433.023 169.28C431.423 169.28 430.023 169.013 428.823 168.48C427.623 167.92 426.69 167.16 426.023 166.2C425.383 165.213 425.063 164.107 425.063 162.88C425.063 160.96 425.77 159.427 427.183 158.28C428.623 157.107 430.876 156.52 433.943 156.52H439.463V156.2C439.463 154.707 439.01 153.56 438.103 152.76C437.223 151.96 435.903 151.56 434.143 151.56C432.943 151.56 431.756 151.747 430.583 152.12C429.436 152.493 428.463 153.013 427.663 153.68L425.703 150.04C426.823 149.187 428.17 148.533 429.743 148.08C431.316 147.627 432.983 147.4 434.743 147.4ZM434.063 165.64C435.316 165.64 436.423 165.36 437.383 164.8C438.37 164.213 439.063 163.387 439.463 162.32V159.84H434.303C431.423 159.84 429.983 160.787 429.983 162.68C429.983 163.587 430.343 164.307 431.063 164.84C431.783 165.373 432.783 165.64 434.063 165.64ZM479.04 147.4C481.733 147.4 483.867 148.187 485.44 149.76C487.013 151.307 487.8 153.64 487.8 156.76V169H482.8V157.4C482.8 155.533 482.387 154.133 481.56 153.2C480.733 152.24 479.547 151.76 478 151.76C476.32 151.76 474.973 152.32 473.96 153.44C472.947 154.533 472.44 156.107 472.44 158.16V169H467.44V157.4C467.44 155.533 467.027 154.133 466.2 153.2C465.373 152.24 464.187 151.76 462.64 151.76C460.933 151.76 459.573 152.307 458.56 153.4C457.573 154.493 457.08 156.08 457.08 158.16V169H452.08V147.64H456.84V150.36C457.64 149.4 458.64 148.667 459.84 148.16C461.04 147.653 462.373 147.4 463.84 147.4C465.44 147.4 466.853 147.707 468.08 148.32C469.333 148.907 470.32 149.787 471.04 150.96C471.92 149.84 473.053 148.973 474.44 148.36C475.827 147.72 477.36 147.4 479.04 147.4ZM515.665 158.44C515.665 158.787 515.638 159.28 515.585 159.92H498.825C499.118 161.493 499.878 162.747 501.105 163.68C502.358 164.587 503.905 165.04 505.745 165.04C508.091 165.04 510.025 164.267 511.545 162.72L514.225 165.8C513.265 166.947 512.051 167.813 510.585 168.4C509.118 168.987 507.465 169.28 505.625 169.28C503.278 169.28 501.211 168.813 499.425 167.88C497.638 166.947 496.251 165.653 495.265 164C494.305 162.32 493.825 160.427 493.825 158.32C493.825 156.24 494.291 154.373 495.225 152.72C496.185 151.04 497.505 149.733 499.185 148.8C500.865 147.867 502.758 147.4 504.865 147.4C506.945 147.4 508.798 147.867 510.425 148.8C512.078 149.707 513.358 151 514.265 152.68C515.198 154.333 515.665 156.253 515.665 158.44ZM504.865 151.4C503.265 151.4 501.905 151.88 500.785 152.84C499.691 153.773 499.025 155.027 498.785 156.6H510.905C510.691 155.053 510.038 153.8 508.945 152.84C507.851 151.88 506.491 151.4 504.865 151.4ZM533.788 147.4C536.481 147.4 538.641 148.187 540.268 149.76C541.894 151.333 542.708 153.667 542.708 156.76V169H537.708V157.4C537.708 155.533 537.268 154.133 536.388 153.2C535.508 152.24 534.254 151.76 532.628 151.76C530.788 151.76 529.334 152.32 528.268 153.44C527.201 154.533 526.668 156.12 526.668 158.2V169H521.668V147.64H526.428V150.4C527.254 149.413 528.294 148.667 529.548 148.16C530.801 147.653 532.214 147.4 533.788 147.4ZM563.09 167.84C562.504 168.32 561.784 168.68 560.93 168.92C560.104 169.16 559.224 169.28 558.29 169.28C555.944 169.28 554.13 168.667 552.85 167.44C551.57 166.213 550.93 164.427 550.93 162.08V151.8H547.41V147.8H550.93V142.92H555.93V147.8H561.65V151.8H555.93V161.96C555.93 163 556.184 163.8 556.69 164.36C557.197 164.893 557.93 165.16 558.89 165.16C560.01 165.16 560.944 164.867 561.69 164.28L563.09 167.84ZM587.78 158.44C587.78 158.787 587.754 159.28 587.7 159.92H570.94C571.234 161.493 571.994 162.747 573.22 163.68C574.474 164.587 576.02 165.04 577.86 165.04C580.207 165.04 582.14 164.267 583.66 162.72L586.34 165.8C585.38 166.947 584.167 167.813 582.7 168.4C581.234 168.987 579.58 169.28 577.74 169.28C575.394 169.28 573.327 168.813 571.54 167.88C569.754 166.947 568.367 165.653 567.38 164C566.42 162.32 565.94 160.427 565.94 158.32C565.94 156.24 566.407 154.373 567.34 152.72C568.3 151.04 569.62 149.733 571.3 148.8C572.98 147.867 574.874 147.4 576.98 147.4C579.06 147.4 580.914 147.867 582.54 148.8C584.194 149.707 585.474 151 586.38 152.68C587.314 154.333 587.78 156.253 587.78 158.44ZM576.98 151.4C575.38 151.4 574.02 151.88 572.9 152.84C571.807 153.773 571.14 155.027 570.9 156.6H583.02C582.807 155.053 582.154 153.8 581.06 152.84C579.967 151.88 578.607 151.4 576.98 151.4ZM614.198 147.4C617.344 147.4 619.744 148.16 621.398 149.68C623.078 151.173 623.918 153.44 623.918 156.48V169H619.198V166.4C618.584 167.333 617.704 168.053 616.558 168.56C615.438 169.04 614.078 169.28 612.478 169.28C610.878 169.28 609.478 169.013 608.278 168.48C607.078 167.92 606.144 167.16 605.478 166.2C604.838 165.213 604.518 164.107 604.518 162.88C604.518 160.96 605.224 159.427 606.638 158.28C608.078 157.107 610.331 156.52 613.398 156.52H618.918V156.2C618.918 154.707 618.464 153.56 617.558 152.76C616.678 151.96 615.358 151.56 613.598 151.56C612.398 151.56 611.211 151.747 610.038 152.12C608.891 152.493 607.918 153.013 607.118 153.68L605.158 150.04C606.278 149.187 607.624 148.533 609.198 148.08C610.771 147.627 612.438 147.4 614.198 147.4ZM613.518 165.64C614.771 165.64 615.878 165.36 616.838 164.8C617.824 164.213 618.518 163.387 618.918 162.32V159.84H613.758C610.878 159.84 609.438 160.787 609.438 162.68C609.438 163.587 609.798 164.307 610.518 164.84C611.238 165.373 612.238 165.64 613.518 165.64ZM184.347 192.4C187.04 192.4 189.174 193.187 190.747 194.76C192.32 196.307 193.107 198.64 193.107 201.76V214H188.107V202.4C188.107 200.533 187.694 199.133 186.867 198.2C186.04 197.24 184.854 196.76 183.307 196.76C181.627 196.76 180.28 197.32 179.267 198.44C178.254 199.533 177.747 201.107 177.747 203.16V214H172.747V202.4C172.747 200.533 172.334 199.133 171.507 198.2C170.68 197.24 169.494 196.76 167.947 196.76C166.24 196.76 164.88 197.307 163.867 198.4C162.88 199.493 162.387 201.08 162.387 203.16V214H157.387V192.64H162.147V195.36C162.947 194.4 163.947 193.667 165.147 193.16C166.347 192.653 167.68 192.4 169.147 192.4C170.747 192.4 172.16 192.707 173.387 193.32C174.64 193.907 175.627 194.787 176.347 195.96C177.227 194.84 178.36 193.973 179.747 193.36C181.134 192.72 182.667 192.4 184.347 192.4ZM220.972 203.44C220.972 203.787 220.945 204.28 220.892 204.92H204.132C204.425 206.493 205.185 207.747 206.412 208.68C207.665 209.587 209.212 210.04 211.052 210.04C213.398 210.04 215.332 209.267 216.852 207.72L219.532 210.8C218.572 211.947 217.358 212.813 215.892 213.4C214.425 213.987 212.772 214.28 210.932 214.28C208.585 214.28 206.518 213.813 204.732 212.88C202.945 211.947 201.558 210.653 200.572 209C199.612 207.32 199.132 205.427 199.132 203.32C199.132 201.24 199.598 199.373 200.532 197.72C201.492 196.04 202.812 194.733 204.492 193.8C206.172 192.867 208.065 192.4 210.172 192.4C212.252 192.4 214.105 192.867 215.732 193.8C217.385 194.707 218.665 196 219.572 197.68C220.505 199.333 220.972 201.253 220.972 203.44ZM210.172 196.4C208.572 196.4 207.212 196.88 206.092 197.84C204.998 198.773 204.332 200.027 204.092 201.6H216.212C215.998 200.053 215.345 198.8 214.252 197.84C213.158 196.88 211.798 196.4 210.172 196.4ZM239.815 212.84C239.228 213.32 238.508 213.68 237.655 213.92C236.828 214.16 235.948 214.28 235.015 214.28C232.668 214.28 230.855 213.667 229.575 212.44C228.295 211.213 227.655 209.427 227.655 207.08V196.8H224.135V192.8H227.655V187.92H232.655V192.8H238.375V196.8H232.655V206.96C232.655 208 232.908 208.8 233.415 209.36C233.921 209.893 234.655 210.16 235.615 210.16C236.735 210.16 237.668 209.867 238.415 209.28L239.815 212.84ZM253.288 192.4C256.434 192.4 258.834 193.16 260.488 194.68C262.168 196.173 263.008 198.44 263.008 201.48V214H258.288V211.4C257.674 212.333 256.794 213.053 255.648 213.56C254.528 214.04 253.168 214.28 251.568 214.28C249.968 214.28 248.568 214.013 247.368 213.48C246.168 212.92 245.234 212.16 244.568 211.2C243.928 210.213 243.608 209.107 243.608 207.88C243.608 205.96 244.314 204.427 245.728 203.28C247.168 202.107 249.421 201.52 252.488 201.52H258.008V201.2C258.008 199.707 257.554 198.56 256.648 197.76C255.768 196.96 254.448 196.56 252.688 196.56C251.488 196.56 250.301 196.747 249.128 197.12C247.981 197.493 247.008 198.013 246.208 198.68L244.248 195.04C245.368 194.187 246.714 193.533 248.288 193.08C249.861 192.627 251.528 192.4 253.288 192.4ZM252.608 210.64C253.861 210.64 254.968 210.36 255.928 209.8C256.914 209.213 257.608 208.387 258.008 207.32V204.84H252.848C249.968 204.84 248.528 205.787 248.528 207.68C248.528 208.587 248.888 209.307 249.608 209.84C250.328 210.373 251.328 210.64 252.608 210.64ZM291.74 184.32V214H286.94V211.24C286.113 212.253 285.087 213.013 283.86 213.52C282.66 214.027 281.327 214.28 279.86 214.28C277.807 214.28 275.953 213.827 274.3 212.92C272.673 212.013 271.393 210.733 270.46 209.08C269.527 207.4 269.06 205.48 269.06 203.32C269.06 201.16 269.527 199.253 270.46 197.6C271.393 195.947 272.673 194.667 274.3 193.76C275.953 192.853 277.807 192.4 279.86 192.4C281.273 192.4 282.567 192.64 283.74 193.12C284.913 193.6 285.913 194.32 286.74 195.28V184.32H291.74ZM280.46 210C281.66 210 282.74 209.733 283.7 209.2C284.66 208.64 285.42 207.853 285.98 206.84C286.54 205.827 286.82 204.653 286.82 203.32C286.82 201.987 286.54 200.813 285.98 199.8C285.42 198.787 284.66 198.013 283.7 197.48C282.74 196.92 281.66 196.64 280.46 196.64C279.26 196.64 278.18 196.92 277.22 197.48C276.26 198.013 275.5 198.787 274.94 199.8C274.38 200.813 274.1 201.987 274.1 203.32C274.1 204.653 274.38 205.827 274.94 206.84C275.5 207.853 276.26 208.64 277.22 209.2C278.18 209.733 279.26 210 280.46 210ZM319.561 203.44C319.561 203.787 319.534 204.28 319.481 204.92H302.721C303.014 206.493 303.774 207.747 305.001 208.68C306.254 209.587 307.801 210.04 309.641 210.04C311.987 210.04 313.921 209.267 315.441 207.72L318.121 210.8C317.161 211.947 315.947 212.813 314.481 213.4C313.014 213.987 311.361 214.28 309.521 214.28C307.174 214.28 305.107 213.813 303.321 212.88C301.534 211.947 300.147 210.653 299.161 209C298.201 207.32 297.721 205.427 297.721 203.32C297.721 201.24 298.187 199.373 299.121 197.72C300.081 196.04 301.401 194.733 303.081 193.8C304.761 192.867 306.654 192.4 308.761 192.4C310.841 192.4 312.694 192.867 314.321 193.8C315.974 194.707 317.254 196 318.161 197.68C319.094 199.333 319.561 201.253 319.561 203.44ZM308.761 196.4C307.161 196.4 305.801 196.88 304.681 197.84C303.587 198.773 302.921 200.027 302.681 201.6H314.801C314.587 200.053 313.934 198.8 312.841 197.84C311.747 196.88 310.387 196.4 308.761 196.4ZM364.778 192.4C367.472 192.4 369.605 193.187 371.178 194.76C372.752 196.307 373.538 198.64 373.538 201.76V214H368.538V202.4C368.538 200.533 368.125 199.133 367.298 198.2C366.472 197.24 365.285 196.76 363.738 196.76C362.058 196.76 360.712 197.32 359.698 198.44C358.685 199.533 358.178 201.107 358.178 203.16V214H353.178V202.4C353.178 200.533 352.765 199.133 351.938 198.2C351.112 197.24 349.925 196.76 348.378 196.76C346.672 196.76 345.312 197.307 344.298 198.4C343.312 199.493 342.818 201.08 342.818 203.16V214H337.818V192.64H342.578V195.36C343.378 194.4 344.378 193.667 345.578 193.16C346.778 192.653 348.112 192.4 349.578 192.4C351.178 192.4 352.592 192.707 353.818 193.32C355.072 193.907 356.058 194.787 356.778 195.96C357.658 194.84 358.792 193.973 360.178 193.36C361.565 192.72 363.098 192.4 364.778 192.4ZM390.923 214.28C388.763 214.28 386.816 213.813 385.083 212.88C383.35 211.947 381.99 210.653 381.003 209C380.043 207.32 379.563 205.427 379.563 203.32C379.563 201.213 380.043 199.333 381.003 197.68C381.99 196.027 383.35 194.733 385.083 193.8C386.816 192.867 388.763 192.4 390.923 192.4C393.11 192.4 395.07 192.867 396.803 193.8C398.536 194.733 399.883 196.027 400.843 197.68C401.83 199.333 402.323 201.213 402.323 203.32C402.323 205.427 401.83 207.32 400.843 209C399.883 210.653 398.536 211.947 396.803 212.88C395.07 213.813 393.11 214.28 390.923 214.28ZM390.923 210C392.763 210 394.283 209.387 395.483 208.16C396.683 206.933 397.283 205.32 397.283 203.32C397.283 201.32 396.683 199.707 395.483 198.48C394.283 197.253 392.763 196.64 390.923 196.64C389.083 196.64 387.563 197.253 386.363 198.48C385.19 199.707 384.603 201.32 384.603 203.32C384.603 205.32 385.19 206.933 386.363 208.16C387.563 209.387 389.083 210 390.923 210ZM413.064 195.76C414.504 193.52 417.038 192.4 420.664 192.4V197.16C420.238 197.08 419.851 197.04 419.504 197.04C417.558 197.04 416.038 197.613 414.944 198.76C413.851 199.88 413.304 201.507 413.304 203.64V214H408.304V192.64H413.064V195.76ZM434.149 192.4C437.295 192.4 439.695 193.16 441.349 194.68C443.029 196.173 443.869 198.44 443.869 201.48V214H439.149V211.4C438.535 212.333 437.655 213.053 436.509 213.56C435.389 214.04 434.029 214.28 432.429 214.28C430.829 214.28 429.429 214.013 428.229 213.48C427.029 212.92 426.095 212.16 425.429 211.2C424.789 210.213 424.469 209.107 424.469 207.88C424.469 205.96 425.175 204.427 426.589 203.28C428.029 202.107 430.282 201.52 433.349 201.52H438.869V201.2C438.869 199.707 438.415 198.56 437.509 197.76C436.629 196.96 435.309 196.56 433.549 196.56C432.349 196.56 431.162 196.747 429.989 197.12C428.842 197.493 427.869 198.013 427.069 198.68L425.109 195.04C426.229 194.187 427.575 193.533 429.149 193.08C430.722 192.627 432.389 192.4 434.149 192.4ZM433.469 210.64C434.722 210.64 435.829 210.36 436.789 209.8C437.775 209.213 438.469 208.387 438.869 207.32V204.84H433.709C430.829 204.84 429.389 205.787 429.389 207.68C429.389 208.587 429.749 209.307 430.469 209.84C431.189 210.373 432.189 210.64 433.469 210.64ZM475.86 192.4C478.553 192.4 480.713 193.187 482.34 194.76C483.967 196.333 484.78 198.667 484.78 201.76V214H479.78V202.4C479.78 200.533 479.34 199.133 478.46 198.2C477.58 197.24 476.327 196.76 474.7 196.76C472.86 196.76 471.407 197.32 470.34 198.44C469.273 199.533 468.74 201.12 468.74 203.2V214H463.74V192.64H468.5V195.4C469.327 194.413 470.367 193.667 471.62 193.16C472.873 192.653 474.287 192.4 475.86 192.4ZM500.483 192.4C503.63 192.4 506.03 193.16 507.683 194.68C509.363 196.173 510.203 198.44 510.203 201.48V214H505.483V211.4C504.87 212.333 503.99 213.053 502.843 213.56C501.723 214.04 500.363 214.28 498.763 214.28C497.163 214.28 495.763 214.013 494.563 213.48C493.363 212.92 492.43 212.16 491.763 211.2C491.123 210.213 490.803 209.107 490.803 207.88C490.803 205.96 491.51 204.427 492.923 203.28C494.363 202.107 496.616 201.52 499.683 201.52H505.203V201.2C505.203 199.707 504.75 198.56 503.843 197.76C502.963 196.96 501.643 196.56 499.883 196.56C498.683 196.56 497.496 196.747 496.323 197.12C495.176 197.493 494.203 198.013 493.403 198.68L491.443 195.04C492.563 194.187 493.91 193.533 495.483 193.08C497.056 192.627 498.723 192.4 500.483 192.4ZM499.803 210.64C501.056 210.64 502.163 210.36 503.123 209.8C504.11 209.213 504.803 208.387 505.203 207.32V204.84H500.043C497.163 204.84 495.723 205.787 495.723 207.68C495.723 208.587 496.083 209.307 496.803 209.84C497.523 210.373 498.523 210.64 499.803 210.64ZM534.835 195.76C536.275 193.52 538.808 192.4 542.435 192.4V197.16C542.008 197.08 541.621 197.04 541.275 197.04C539.328 197.04 537.808 197.613 536.715 198.76C535.621 199.88 535.075 201.507 535.075 203.64V214H530.075V192.64H534.835V195.76ZM567.761 203.44C567.761 203.787 567.734 204.28 567.681 204.92H550.921C551.214 206.493 551.974 207.747 553.201 208.68C554.454 209.587 556.001 210.04 557.841 210.04C560.187 210.04 562.121 209.267 563.641 207.72L566.321 210.8C565.361 211.947 564.147 212.813 562.681 213.4C561.214 213.987 559.561 214.28 557.721 214.28C555.374 214.28 553.307 213.813 551.521 212.88C549.734 211.947 548.347 210.653 547.361 209C546.401 207.32 545.921 205.427 545.921 203.32C545.921 201.24 546.387 199.373 547.321 197.72C548.281 196.04 549.601 194.733 551.281 193.8C552.961 192.867 554.854 192.4 556.961 192.4C559.041 192.4 560.894 192.867 562.521 193.8C564.174 194.707 565.454 196 566.361 197.68C567.294 199.333 567.761 201.253 567.761 203.44ZM556.961 196.4C555.361 196.4 554.001 196.88 552.881 197.84C551.787 198.773 551.121 200.027 550.881 201.6H563.001C562.787 200.053 562.134 198.8 561.041 197.84C559.947 196.88 558.587 196.4 556.961 196.4ZM594.964 192.64V210.76C594.964 218.28 591.124 222.04 583.444 222.04C581.39 222.04 579.444 221.773 577.604 221.24C575.764 220.733 574.244 219.987 573.044 219L575.284 215.24C576.217 216.013 577.39 216.627 578.804 217.08C580.244 217.56 581.697 217.8 583.164 217.8C585.51 217.8 587.23 217.267 588.324 216.2C589.417 215.133 589.964 213.507 589.964 211.32V210.2C589.11 211.133 588.07 211.84 586.844 212.32C585.617 212.8 584.27 213.04 582.804 213.04C580.777 213.04 578.937 212.613 577.284 211.76C575.657 210.88 574.364 209.653 573.404 208.08C572.47 206.507 572.004 204.707 572.004 202.68C572.004 200.653 572.47 198.867 573.404 197.32C574.364 195.747 575.657 194.533 577.284 193.68C578.937 192.827 580.777 192.4 582.804 192.4C584.35 192.4 585.75 192.653 587.004 193.16C588.284 193.667 589.35 194.44 590.204 195.48V192.64H594.964ZM583.564 208.8C585.457 208.8 587.004 208.24 588.204 207.12C589.43 205.973 590.044 204.493 590.044 202.68C590.044 200.893 589.43 199.44 588.204 198.32C587.004 197.2 585.457 196.64 583.564 196.64C581.644 196.64 580.07 197.2 578.844 198.32C577.644 199.44 577.044 200.893 577.044 202.68C577.044 204.493 577.644 205.973 578.844 207.12C580.07 208.24 581.644 208.8 583.564 208.8ZM602.737 192.64H607.737V214H602.737V192.64ZM605.257 189.12C604.35 189.12 603.59 188.84 602.977 188.28C602.364 187.693 602.057 186.973 602.057 186.12C602.057 185.267 602.364 184.56 602.977 184C603.59 183.413 604.35 183.12 605.257 183.12C606.164 183.12 606.924 183.4 607.537 183.96C608.15 184.493 608.457 185.173 608.457 186C608.457 186.88 608.15 187.627 607.537 188.24C606.95 188.827 606.19 189.12 605.257 189.12ZM623.66 192.4C626.806 192.4 629.206 193.16 630.86 194.68C632.54 196.173 633.38 198.44 633.38 201.48V214H628.66V211.4C628.046 212.333 627.166 213.053 626.02 213.56C624.9 214.04 623.54 214.28 621.94 214.28C620.34 214.28 618.94 214.013 617.74 213.48C616.54 212.92 615.606 212.16 614.94 211.2C614.3 210.213 613.98 209.107 613.98 207.88C613.98 205.96 614.686 204.427 616.1 203.28C617.54 202.107 619.793 201.52 622.86 201.52H628.38V201.2C628.38 199.707 627.926 198.56 627.02 197.76C626.14 196.96 624.82 196.56 623.06 196.56C621.86 196.56 620.673 196.747 619.5 197.12C618.353 197.493 617.38 198.013 616.58 198.68L614.62 195.04C615.74 194.187 617.086 193.533 618.66 193.08C620.233 192.627 621.9 192.4 623.66 192.4ZM622.98 210.64C624.233 210.64 625.34 210.36 626.3 209.8C627.286 209.213 627.98 208.387 628.38 207.32V204.84H623.22C620.34 204.84 618.9 205.787 618.9 207.68C618.9 208.587 619.26 209.307 619.98 209.84C620.7 210.373 621.7 210.64 622.98 210.64ZM626.98 189.72C626.313 189.72 625.726 189.587 625.22 189.32C624.74 189.053 624.14 188.653 623.42 188.12C622.993 187.773 622.633 187.52 622.34 187.36C622.073 187.173 621.806 187.08 621.54 187.08C620.98 187.08 620.513 187.293 620.14 187.72C619.793 188.147 619.606 188.733 619.58 189.48H616.9C616.926 187.853 617.326 186.56 618.1 185.6C618.9 184.613 619.94 184.12 621.22 184.12C621.886 184.12 622.46 184.253 622.94 184.52C623.446 184.787 624.06 185.187 624.78 185.72C625.206 186.067 625.553 186.333 625.82 186.52C626.113 186.68 626.393 186.76 626.66 186.76C627.22 186.76 627.673 186.56 628.02 186.16C628.393 185.76 628.593 185.2 628.62 184.48H631.3C631.246 186.053 630.833 187.32 630.06 188.28C629.286 189.24 628.26 189.72 626.98 189.72ZM650.792 214.28C648.632 214.28 646.685 213.813 644.952 212.88C643.218 211.947 641.858 210.653 640.872 209C639.912 207.32 639.432 205.427 639.432 203.32C639.432 201.213 639.912 199.333 640.872 197.68C641.858 196.027 643.218 194.733 644.952 193.8C646.685 192.867 648.632 192.4 650.792 192.4C652.978 192.4 654.938 192.867 656.672 193.8C658.405 194.733 659.752 196.027 660.712 197.68C661.698 199.333 662.192 201.213 662.192 203.32C662.192 205.427 661.698 207.32 660.712 209C659.752 210.653 658.405 211.947 656.672 212.88C654.938 213.813 652.978 214.28 650.792 214.28ZM650.792 210C652.632 210 654.152 209.387 655.352 208.16C656.552 206.933 657.152 205.32 657.152 203.32C657.152 201.32 656.552 199.707 655.352 198.48C654.152 197.253 652.632 196.64 650.792 196.64C648.952 196.64 647.432 197.253 646.232 198.48C645.058 199.707 644.472 201.32 644.472 203.32C644.472 205.32 645.058 206.933 646.232 208.16C647.432 209.387 648.952 210 650.792 210ZM334.141 231V259H329.861L314.421 240.04V259H309.261V231H313.541L328.981 249.96V231H334.141ZM351.964 259.28C349.804 259.28 347.857 258.813 346.124 257.88C344.39 256.947 343.03 255.653 342.044 254C341.084 252.32 340.604 250.427 340.604 248.32C340.604 246.213 341.084 244.333 342.044 242.68C343.03 241.027 344.39 239.733 346.124 238.8C347.857 237.867 349.804 237.4 351.964 237.4C354.15 237.4 356.11 237.867 357.844 238.8C359.577 239.733 360.924 241.027 361.884 242.68C362.87 244.333 363.364 246.213 363.364 248.32C363.364 250.427 362.87 252.32 361.884 254C360.924 255.653 359.577 256.947 357.844 257.88C356.11 258.813 354.15 259.28 351.964 259.28ZM351.964 255C353.804 255 355.324 254.387 356.524 253.16C357.724 251.933 358.324 250.32 358.324 248.32C358.324 246.32 357.724 244.707 356.524 243.48C355.324 242.253 353.804 241.64 351.964 241.64C350.124 241.64 348.604 242.253 347.404 243.48C346.23 244.707 345.644 246.32 345.644 248.32C345.644 250.32 346.23 251.933 347.404 253.16C348.604 254.387 350.124 255 351.964 255ZM374.105 240.76C375.545 238.52 378.078 237.4 381.705 237.4V242.16C381.278 242.08 380.892 242.04 380.545 242.04C378.598 242.04 377.078 242.613 375.985 243.76C374.892 244.88 374.345 246.507 374.345 248.64V259H369.345V237.64H374.105V240.76ZM407.871 229.32V259H403.071V256.24C402.244 257.253 401.218 258.013 399.991 258.52C398.791 259.027 397.458 259.28 395.991 259.28C393.938 259.28 392.084 258.827 390.431 257.92C388.804 257.013 387.524 255.733 386.591 254.08C385.658 252.4 385.191 250.48 385.191 248.32C385.191 246.16 385.658 244.253 386.591 242.6C387.524 240.947 388.804 239.667 390.431 238.76C392.084 237.853 393.938 237.4 395.991 237.4C397.404 237.4 398.698 237.64 399.871 238.12C401.044 238.6 402.044 239.32 402.871 240.28V229.32H407.871ZM396.591 255C397.791 255 398.871 254.733 399.831 254.2C400.791 253.64 401.551 252.853 402.111 251.84C402.671 250.827 402.951 249.653 402.951 248.32C402.951 246.987 402.671 245.813 402.111 244.8C401.551 243.787 400.791 243.013 399.831 242.48C398.871 241.92 397.791 241.64 396.591 241.64C395.391 241.64 394.311 241.92 393.351 242.48C392.391 243.013 391.631 243.787 391.071 244.8C390.511 245.813 390.231 246.987 390.231 248.32C390.231 249.653 390.511 250.827 391.071 251.84C391.631 252.853 392.391 253.64 393.351 254.2C394.311 254.733 395.391 255 396.591 255ZM435.692 248.44C435.692 248.787 435.665 249.28 435.612 249.92H418.852C419.145 251.493 419.905 252.747 421.132 253.68C422.385 254.587 423.932 255.04 425.772 255.04C428.119 255.04 430.052 254.267 431.572 252.72L434.252 255.8C433.292 256.947 432.079 257.813 430.612 258.4C429.145 258.987 427.492 259.28 425.652 259.28C423.305 259.28 421.239 258.813 419.452 257.88C417.665 256.947 416.279 255.653 415.292 254C414.332 252.32 413.852 250.427 413.852 248.32C413.852 246.24 414.319 244.373 415.252 242.72C416.212 241.04 417.532 239.733 419.212 238.8C420.892 237.867 422.785 237.4 424.892 237.4C426.972 237.4 428.825 237.867 430.452 238.8C432.105 239.707 433.385 241 434.292 242.68C435.225 244.333 435.692 246.253 435.692 248.44ZM424.892 241.4C423.292 241.4 421.932 241.88 420.812 242.84C419.719 243.773 419.052 245.027 418.812 246.6H430.932C430.719 245.053 430.065 243.8 428.972 242.84C427.879 241.88 426.519 241.4 424.892 241.4ZM448.295 259.28C446.562 259.28 444.868 259.053 443.215 258.6C441.562 258.147 440.242 257.573 439.255 256.88L441.175 253.08C442.135 253.72 443.282 254.24 444.615 254.64C445.975 255.013 447.308 255.2 448.615 255.2C451.602 255.2 453.095 254.413 453.095 252.84C453.095 252.093 452.708 251.573 451.935 251.28C451.188 250.987 449.975 250.707 448.295 250.44C446.535 250.173 445.095 249.867 443.975 249.52C442.882 249.173 441.922 248.573 441.095 247.72C440.295 246.84 439.895 245.627 439.895 244.08C439.895 242.053 440.735 240.44 442.415 239.24C444.122 238.013 446.415 237.4 449.295 237.4C450.762 237.4 452.228 237.573 453.695 237.92C455.162 238.24 456.362 238.68 457.295 239.24L455.375 243.04C453.562 241.973 451.522 241.44 449.255 241.44C447.788 241.44 446.668 241.667 445.895 242.12C445.148 242.547 444.775 243.12 444.775 243.84C444.775 244.64 445.175 245.213 445.975 245.56C446.802 245.88 448.068 246.187 449.775 246.48C451.482 246.747 452.882 247.053 453.975 247.4C455.068 247.747 456.002 248.333 456.775 249.16C457.575 249.987 457.975 251.16 457.975 252.68C457.975 254.68 457.108 256.28 455.375 257.48C453.642 258.68 451.282 259.28 448.295 259.28ZM476.321 257.84C475.734 258.32 475.014 258.68 474.161 258.92C473.334 259.16 472.454 259.28 471.521 259.28C469.174 259.28 467.361 258.667 466.081 257.44C464.801 256.213 464.161 254.427 464.161 252.08V241.8H460.641V237.8H464.161V232.92H469.161V237.8H474.881V241.8H469.161V251.96C469.161 253 469.414 253.8 469.921 254.36C470.427 254.893 471.161 255.16 472.121 255.16C473.241 255.16 474.174 254.867 474.921 254.28L476.321 257.84ZM501.011 248.44C501.011 248.787 500.984 249.28 500.931 249.92H484.171C484.464 251.493 485.224 252.747 486.451 253.68C487.704 254.587 489.251 255.04 491.091 255.04C493.437 255.04 495.371 254.267 496.891 252.72L499.571 255.8C498.611 256.947 497.397 257.813 495.931 258.4C494.464 258.987 492.811 259.28 490.971 259.28C488.624 259.28 486.557 258.813 484.771 257.88C482.984 256.947 481.597 255.653 480.611 254C479.651 252.32 479.171 250.427 479.171 248.32C479.171 246.24 479.637 244.373 480.571 242.72C481.531 241.04 482.851 239.733 484.531 238.8C486.211 237.867 488.104 237.4 490.211 237.4C492.291 237.4 494.144 237.867 495.771 238.8C497.424 239.707 498.704 241 499.611 242.68C500.544 244.333 501.011 246.253 501.011 248.44ZM490.211 241.4C488.611 241.4 487.251 241.88 486.131 242.84C485.037 243.773 484.371 245.027 484.131 246.6H496.251C496.037 245.053 495.384 243.8 494.291 242.84C493.197 241.88 491.837 241.4 490.211 241.4ZM508.614 259.28C507.707 259.28 506.934 258.973 506.294 258.36C505.654 257.72 505.334 256.92 505.334 255.96C505.334 254.973 505.64 254.173 506.254 253.56C506.894 252.947 507.68 252.64 508.614 252.64C509.547 252.64 510.32 252.947 510.934 253.56C511.574 254.173 511.894 254.973 511.894 255.96C511.894 256.92 511.574 257.72 510.934 258.36C510.294 258.973 509.52 259.28 508.614 259.28Z" fill="#414040"/>
<circle cx="996.5" cy="123.5" r="116.5" fill="#5CA880"/>
<ellipse cx="1037.5" cy="146.5" rx="91.5" ry="107.5" fill="#AA6755"/>
<circle cx="963.5" cy="72.5" r="33.5" fill="#484645"/>
<circle cx="942.5" cy="112.5" r="33.5" fill="#484645"/>
<circle cx="1004.5" cy="55.5" r="33.5" fill="#484645"/>
<circle cx="1060.5" cy="55.5" r="33.5" fill="#484645"/>
<circle cx="1089.5" cy="72.5" r="33.5" fill="#484645"/>
<circle cx="1123.5" cy="106.5" r="33.5" fill="#484645"/>
<circle cx="1144.5" cy="139.5" r="33.5" fill="#484645"/>
<circle cx="937.5" cy="200.5" r="33.5" fill="#484645"/>
<circle cx="942.5" cy="112.5" r="33.5" fill="#484645"/>
<circle cx="1144.5" cy="184.5" r="33.5" fill="#484645"/>
<circle cx="1134.5" cy="223.5" r="33.5" fill="#484645"/>
<circle cx="963.5" cy="234.5" r="33.5" fill="#484645"/>
<circle cx="942.5" cy="156.5" r="33.5" fill="#484645"/>
<circle cx="1004.5" cy="89.5" r="33.5" fill="#484645"/>
<circle cx="1056.5" cy="90.5" r="33.5" fill="#484645"/>
<ellipse cx="1009.5" cy="157" rx="4.5" ry="10" fill="#353433"/>
<ellipse cx="1060.5" cy="157" rx="4.5" ry="10" fill="#353433"/>
</g>
<defs>
<clipPath id="clip0">
<rect width="1261" height="302" fill="white"/>
</clipPath>
</defs>
</svg>
