<svg width="25" height="25" viewBox="0 0 25 25" fill="none" xmlns="http://www.w3.org/2000/svg">
<path d="M12.5 0C5.60697 0 0 5.60697 0 12.5C0 19.393 5.60697 25 12.5 25C19.393 25 25 19.393 25 12.5C25 5.60697 19.393 0 12.5 0ZM20.7662 5.76322C22.2536 7.58113 23.155 9.89483 23.1761 12.4159C22.8245 12.3407 19.2939 11.6256 15.7422 12.0733C15.6671 11.89 15.5919 11.7067 15.5138 11.5234C15.2915 11.0036 15.0541 10.4838 14.8047 9.97596C18.75 8.36238 20.5409 6.06971 20.7662 5.76322ZM12.5 1.83894C15.2133 1.83894 17.6923 2.85757 19.5763 4.52824C19.384 4.80168 17.7764 6.96214 13.9814 8.38642C12.2326 5.17127 10.2945 2.53305 9.997 2.13642C10.8173 1.9381 11.6556 1.83894 12.5 1.83894ZM7.95974 2.85457C8.24219 3.23918 10.1502 5.88642 11.9171 9.02945C6.92308 10.3546 2.52404 10.3365 2.04627 10.3305C2.74038 7.01623 4.97296 4.26382 7.95974 2.85457ZM1.82392 12.515C1.82392 12.4069 1.82692 12.2957 1.82993 12.1875C2.29567 12.1965 7.46995 12.2626 12.8035 10.6671C13.11 11.265 13.4014 11.872 13.6689 12.479C13.5276 12.518 13.3864 12.5601 13.2482 12.6052C7.74038 14.39 4.8107 19.2428 4.56731 19.6544C2.86358 17.7614 1.82392 15.2584 1.82392 12.515ZM12.5 23.1911C10.03 23.1911 7.75541 22.3498 5.94651 20.9375C6.13882 20.5439 8.29928 16.3702 14.3209 14.2698L14.39 14.2458C15.8894 18.14 16.5084 21.4062 16.6677 22.3437C15.3505 22.9067 13.9324 23.195 12.5 23.1911ZM18.4645 21.3672C18.3564 20.7181 17.7885 17.5931 16.3912 13.756C19.7386 13.2212 22.6773 14.0986 23.0409 14.2127C22.5661 17.1815 20.8624 19.7476 18.4645 21.3672Z" fill="#EEEEEE"/>
</svg>
