<svg width="25" height="25" viewBox="0 0 25 25" fill="none" xmlns="http://www.w3.org/2000/svg">
<path d="M24.1072 18.7501V8.03578C24.1072 8.03578 13.2738 15.5953 12.2203 15.9876C11.1845 15.6132 0.297638 8.03578 0.297638 8.03578V18.7501C0.297638 20.2382 0.613114 20.5358 2.08335 20.5358H22.3214C23.8268 20.5358 24.1072 20.2745 24.1072 18.7501ZM24.0899 5.93519C24.0899 4.85126 23.7738 4.46436 22.3214 4.46436H2.08335C0.589305 4.46436 0.297638 4.92864 0.297638 6.01197L0.315495 6.17864C0.315495 6.17864 11.0709 13.5834 12.2203 13.9882C13.4345 13.5179 24.1072 6.01197 24.1072 6.01197L24.0899 5.93519Z" fill="#FEEEEE"/>
</svg>
