<svg width="800" height="306" viewBox="0 0 800 306" fill="none" xmlns="http://www.w3.org/2000/svg">
<g clip-path="url(#clip0)">
<rect width="800" height="306" fill="#EAF7F8"/>
<path d="M259.43 125.273C259.343 125.354 259.241 125.416 259.13 125.457C259.018 125.497 258.9 125.514 258.782 125.507H238.384C238.188 125.507 238.087 125.605 238.087 125.801V138.286C238.087 138.482 238.185 138.58 238.384 138.58H252.276C252.547 138.58 252.762 138.659 252.917 138.814C253.075 138.972 253.151 139.187 253.151 139.459V142.565C253.158 142.683 253.141 142.801 253.1 142.911C253.06 143.022 252.998 143.124 252.917 143.21C252.832 143.291 252.731 143.353 252.621 143.393C252.51 143.433 252.393 143.451 252.276 143.443H238.384C238.188 143.443 238.087 143.541 238.087 143.737V160.795C238.094 160.913 238.078 161.031 238.037 161.142C237.997 161.253 237.934 161.354 237.853 161.44C237.768 161.521 237.667 161.583 237.557 161.623C237.447 161.663 237.329 161.681 237.212 161.673H233.341C233.223 161.681 233.104 161.663 232.993 161.623C232.881 161.583 232.779 161.521 232.693 161.44C232.613 161.353 232.551 161.252 232.512 161.141C232.472 161.03 232.455 160.912 232.462 160.795V121.516C232.462 121.244 232.538 121.03 232.693 120.872C232.78 120.791 232.882 120.729 232.993 120.689C233.104 120.649 233.223 120.631 233.341 120.638H258.782C259.057 120.638 259.269 120.717 259.43 120.872C259.51 120.958 259.572 121.06 259.612 121.17C259.652 121.281 259.669 121.399 259.664 121.516V124.622C259.67 124.741 259.653 124.86 259.613 124.972C259.573 125.084 259.51 125.186 259.43 125.273V125.273ZM281.531 132.191C281.957 132.425 282.119 132.797 281.998 133.306L281.177 137.117C281.133 137.509 280.943 137.705 280.589 137.705C280.431 137.711 280.273 137.69 280.121 137.645C279.477 137.44 278.804 137.341 278.127 137.351C277.832 137.345 277.537 137.365 277.246 137.411C275.41 137.49 273.893 138.125 272.702 139.32C271.51 140.511 270.916 142.066 270.916 143.981V160.804C270.924 160.922 270.907 161.04 270.867 161.151C270.826 161.262 270.764 161.363 270.683 161.449C270.597 161.53 270.495 161.592 270.384 161.632C270.273 161.673 270.156 161.69 270.038 161.683H266.167C266.05 161.69 265.932 161.673 265.822 161.633C265.711 161.593 265.611 161.53 265.525 161.449C265.364 161.294 265.292 161.079 265.292 160.804V132.718C265.292 132.447 265.364 132.232 265.525 132.077C265.611 131.996 265.711 131.934 265.822 131.893C265.932 131.853 266.05 131.836 266.167 131.843H270.038C270.31 131.843 270.525 131.919 270.683 132.077C270.841 132.232 270.916 132.447 270.916 132.718V135.417C270.916 135.575 270.945 135.664 271.005 135.682C271.062 135.701 271.128 135.651 271.207 135.534C272.967 132.876 275.35 131.549 278.361 131.549C279.537 131.549 280.592 131.761 281.531 132.191ZM292.695 159.951C290.565 158.485 289.071 156.444 288.211 153.824C287.506 151.716 287.156 149.331 287.156 146.673C287.156 143.898 287.484 141.554 288.151 139.636C289.007 137.057 290.515 135.035 292.663 133.568C294.815 132.102 297.372 131.372 300.345 131.372C303.161 131.372 305.613 132.102 307.705 133.568C309.791 135.035 311.289 137.038 312.186 139.576C312.891 141.57 313.241 143.914 313.241 146.613C313.241 149.346 312.891 151.751 312.186 153.821C311.33 156.441 309.841 158.485 307.734 159.948C305.623 161.414 303.139 162.144 300.289 162.144C297.356 162.147 294.825 161.418 292.695 159.951V159.951ZM304.39 155.963C305.563 155.085 306.403 153.843 306.912 152.238C307.342 150.753 307.557 148.917 307.557 146.73C307.557 144.543 307.361 142.723 306.969 141.276C306.46 139.674 305.619 138.435 304.447 137.553C303.275 136.672 301.846 136.232 300.168 136.232C298.563 136.232 297.182 136.675 296.01 137.553C294.838 138.432 293.994 139.674 293.485 141.276C293.055 142.644 292.844 144.461 292.844 146.73C292.844 148.996 293.055 150.835 293.485 152.238C293.953 153.843 294.787 155.082 295.978 155.963C297.17 156.845 298.607 157.281 300.285 157.281C301.762 157.311 303.207 156.847 304.39 155.963ZM342.964 134.213C344.841 136.071 345.78 138.58 345.78 141.747V160.798C345.787 160.916 345.769 161.034 345.729 161.144C345.689 161.255 345.627 161.357 345.546 161.443C345.46 161.524 345.358 161.586 345.246 161.626C345.135 161.667 345.016 161.684 344.898 161.677H341.03C340.913 161.684 340.795 161.667 340.684 161.627C340.573 161.587 340.471 161.524 340.386 161.443C340.305 161.357 340.242 161.256 340.202 161.145C340.162 161.034 340.145 160.916 340.152 160.798V142.862C340.152 140.909 339.583 139.326 338.452 138.113C337.321 136.902 335.813 136.296 333.936 136.296C332.258 136.296 330.839 136.795 329.686 137.793C328.533 138.789 327.856 140.129 327.664 141.81V160.804C327.67 160.922 327.653 161.04 327.613 161.151C327.573 161.262 327.51 161.363 327.43 161.449C327.343 161.53 327.241 161.593 327.13 161.633C327.019 161.673 326.9 161.69 326.782 161.683H322.911C322.794 161.69 322.676 161.673 322.566 161.633C322.456 161.593 322.355 161.53 322.27 161.449C322.188 161.363 322.126 161.262 322.086 161.151C322.045 161.04 322.028 160.922 322.036 160.804V132.718C322.036 132.447 322.112 132.232 322.27 132.077C322.355 131.996 322.456 131.934 322.566 131.893C322.676 131.853 322.794 131.836 322.911 131.843H326.782C327.057 131.843 327.272 131.919 327.43 132.077C327.51 132.163 327.572 132.263 327.612 132.374C327.653 132.484 327.67 132.601 327.664 132.718V134.362C327.664 134.479 327.702 134.558 327.781 134.595C327.853 134.637 327.916 134.618 327.954 134.535C329.598 132.466 332.059 131.432 335.342 131.432C338.547 131.432 341.09 132.358 342.964 134.213V134.213ZM369.755 136.235C369.669 136.316 369.567 136.378 369.457 136.419C369.346 136.459 369.228 136.476 369.11 136.469H363.128C362.932 136.469 362.838 136.567 362.838 136.763V152.064C362.838 153.745 363.195 154.936 363.921 155.641C364.645 156.346 365.808 156.696 367.41 156.696H368.816C369.091 156.696 369.306 156.775 369.461 156.93C369.541 157.017 369.603 157.118 369.643 157.229C369.683 157.34 369.701 157.457 369.695 157.575V160.624C369.695 161.174 369.401 161.484 368.816 161.563L366.412 161.623C363.403 161.623 361.153 161.095 359.671 160.04C358.183 158.984 357.443 157.012 357.443 154.118V136.763C357.443 136.567 357.346 136.469 357.146 136.469H353.923C353.806 136.476 353.688 136.459 353.577 136.419C353.466 136.379 353.364 136.316 353.279 136.235C353.197 136.15 353.135 136.048 353.095 135.938C353.054 135.827 353.037 135.709 353.045 135.591V132.718C353.045 132.447 353.121 132.232 353.279 132.077C353.364 131.996 353.466 131.934 353.577 131.893C353.688 131.853 353.806 131.836 353.923 131.843H357.146C357.342 131.843 357.443 131.745 357.443 131.549V124.983C357.443 124.708 357.519 124.496 357.677 124.338C357.762 124.257 357.863 124.195 357.974 124.154C358.084 124.114 358.202 124.097 358.319 124.104H361.953C362.228 124.104 362.439 124.18 362.601 124.338C362.755 124.496 362.834 124.708 362.834 124.983V131.549C362.834 131.745 362.929 131.843 363.125 131.843H369.107C369.379 131.843 369.594 131.919 369.752 132.077C369.91 132.232 369.986 132.447 369.986 132.718V135.591C369.994 135.708 369.978 135.827 369.938 135.938C369.899 136.049 369.836 136.15 369.755 136.235V136.235ZM397.016 153.647C397.212 153.296 397.427 153.119 397.661 153.119C397.857 153.119 398.031 153.179 398.185 153.296L400.593 154.763C400.906 154.958 401.061 155.214 401.061 155.524L400.944 155.992C399.905 157.891 398.349 159.456 396.457 160.507C394.526 161.604 392.267 162.151 389.685 162.151C386.91 162.151 384.566 161.538 382.648 160.305C380.736 159.073 379.289 157.306 378.312 154.996C377.333 152.614 376.846 149.817 376.846 146.616C376.846 143.763 377.061 141.595 377.491 140.106C378.195 137.408 379.598 135.281 381.709 133.717C383.82 132.156 386.383 131.375 389.391 131.375C393.104 131.375 395.935 132.342 397.891 134.276C399.844 136.21 401.115 139.016 401.699 142.688C401.895 144.135 402.031 145.896 402.113 147.965C402.113 148.553 401.816 148.844 401.232 148.844H382.711C382.515 148.844 382.414 148.939 382.414 149.138C382.493 150.623 382.629 151.678 382.828 152.301C383.254 153.865 384.117 155.098 385.406 155.995C386.696 156.896 388.295 157.344 390.213 157.344C393.379 157.303 395.648 156.071 397.016 153.647V153.647ZM385.204 137.468C384.127 138.289 383.397 139.424 383.005 140.868C382.697 141.937 382.521 143.04 382.48 144.151C382.48 144.347 382.575 144.445 382.771 144.445H396.081C396.277 144.445 396.375 144.347 396.375 144.151C396.296 142.862 396.179 141.905 396.024 141.279C395.683 139.834 394.869 138.545 393.711 137.616C392.557 136.697 391.12 136.235 389.401 136.235C387.682 136.235 386.275 136.646 385.204 137.468V137.468ZM431.599 134.213C433.476 136.071 434.415 138.58 434.415 141.747V160.798C434.422 160.916 434.405 161.034 434.365 161.145C434.325 161.256 434.262 161.357 434.181 161.443C434.096 161.524 433.995 161.586 433.885 161.626C433.774 161.667 433.657 161.684 433.539 161.677H429.668C429.551 161.684 429.433 161.666 429.322 161.626C429.211 161.586 429.11 161.524 429.024 161.443C428.943 161.357 428.88 161.256 428.84 161.145C428.8 161.034 428.783 160.916 428.79 160.798V142.862C428.79 140.909 428.221 139.326 427.09 138.113C425.955 136.902 424.451 136.296 422.574 136.296C420.893 136.296 419.481 136.795 418.324 137.793C417.167 138.792 416.498 140.129 416.298 141.81V160.804C416.306 160.922 416.289 161.04 416.249 161.151C416.208 161.262 416.146 161.363 416.065 161.449C415.979 161.53 415.879 161.593 415.768 161.633C415.658 161.673 415.54 161.69 415.423 161.683H411.552C411.434 161.69 411.316 161.673 411.206 161.633C411.095 161.593 410.993 161.53 410.908 161.449C410.826 161.363 410.764 161.262 410.724 161.151C410.683 161.04 410.666 160.922 410.674 160.804V132.718C410.674 132.447 410.75 132.232 410.908 132.077C410.993 131.996 411.095 131.933 411.206 131.893C411.316 131.853 411.434 131.836 411.552 131.843H415.423C415.695 131.843 415.91 131.919 416.065 132.077C416.223 132.232 416.298 132.447 416.298 132.718V134.362C416.298 134.479 416.34 134.558 416.415 134.595C416.494 134.637 416.551 134.618 416.596 134.535C418.239 132.466 420.7 131.432 423.98 131.432C427.188 131.432 429.725 132.358 431.599 134.213V134.213ZM462.324 120.878C462.409 120.798 462.51 120.736 462.621 120.695C462.731 120.655 462.848 120.638 462.965 120.644H466.836C466.954 120.638 467.072 120.656 467.182 120.696C467.293 120.736 467.395 120.798 467.481 120.878C467.639 121.036 467.715 121.251 467.715 121.523V160.801C467.722 160.919 467.705 161.037 467.665 161.148C467.625 161.259 467.562 161.36 467.481 161.446C467.395 161.527 467.294 161.589 467.183 161.629C467.072 161.669 466.954 161.687 466.836 161.68H462.965C462.848 161.687 462.731 161.67 462.62 161.63C462.51 161.589 462.409 161.527 462.324 161.446C462.163 161.291 462.09 161.076 462.09 160.801V159.278C462.09 159.161 462.046 159.082 461.973 159.044C461.894 159.006 461.812 159.025 461.739 159.104C460.877 160.084 459.869 160.836 458.718 161.364C457.568 161.888 456.304 162.154 454.939 162.154C452.123 162.154 449.788 161.459 447.933 160.075C446.075 158.687 444.716 156.722 443.86 154.181C443.155 152.228 442.805 149.729 442.805 146.679C442.805 143.826 443.095 141.462 443.68 139.585C444.502 137.007 445.857 134.994 447.753 133.546C449.649 132.102 452.041 131.379 454.936 131.379C456.304 131.379 457.565 131.631 458.715 132.14C459.865 132.646 460.873 133.391 461.736 134.365C461.809 134.444 461.891 134.472 461.97 134.453C462.043 134.434 462.087 134.365 462.087 134.248V121.529C462.09 121.251 462.163 121.033 462.324 120.878ZM462.027 146.73C462.027 143.522 461.521 141.023 460.504 139.225C459.372 137.231 457.71 136.235 455.524 136.235C453.255 136.235 451.517 137.174 450.306 139.051C449.055 141.007 448.429 143.586 448.429 146.79C448.429 149.798 448.919 152.222 449.896 154.058C451.027 156.21 452.904 157.284 455.524 157.284C457.751 157.284 459.448 156.229 460.621 154.118C461.559 152.396 462.027 149.934 462.027 146.73V146.73ZM491.633 161.446C491.552 161.36 491.489 161.259 491.449 161.148C491.409 161.037 491.392 160.919 491.399 160.801V121.523C491.399 121.251 491.475 121.036 491.633 120.878C491.718 120.798 491.819 120.736 491.93 120.695C492.04 120.655 492.157 120.638 492.274 120.644H496.205C496.673 120.644 497.027 120.84 497.261 121.232L507.107 136.943C507.224 137.177 507.341 137.177 507.458 136.943L517.368 121.232C517.473 121.046 517.627 120.893 517.813 120.789C517.999 120.685 518.21 120.635 518.423 120.644H522.348C522.466 120.638 522.583 120.656 522.694 120.696C522.805 120.736 522.906 120.798 522.993 120.878C523.151 121.036 523.227 121.251 523.227 121.523V160.801C523.234 160.919 523.217 161.037 523.177 161.148C523.136 161.259 523.074 161.36 522.993 161.446C522.907 161.527 522.805 161.589 522.694 161.629C522.584 161.669 522.466 161.687 522.348 161.68H518.477C518.36 161.687 518.242 161.67 518.132 161.63C518.022 161.589 517.921 161.527 517.836 161.446C517.674 161.291 517.602 161.076 517.602 160.801V131.021C517.602 130.863 517.558 130.778 517.485 130.756C517.406 130.737 517.324 130.788 517.251 130.905L509.278 143.917C509.174 144.103 509.02 144.257 508.834 144.361C508.647 144.464 508.436 144.514 508.223 144.505H506.346C506.133 144.514 505.921 144.464 505.735 144.361C505.549 144.257 505.395 144.103 505.29 143.917L497.378 130.905C497.299 130.788 497.217 130.737 497.144 130.756C497.065 130.778 497.027 130.863 497.027 131.021V160.801C497.034 160.919 497.016 161.037 496.976 161.148C496.936 161.258 496.874 161.36 496.793 161.446C496.707 161.527 496.604 161.589 496.493 161.629C496.382 161.669 496.264 161.686 496.145 161.68H492.274C492.157 161.686 492.04 161.669 491.93 161.629C491.819 161.588 491.718 161.526 491.633 161.446V161.446ZM552.953 153.647C553.149 153.296 553.367 153.119 553.601 153.119C553.79 153.118 553.975 153.181 554.125 153.296L556.53 154.763C556.843 154.958 556.998 155.214 556.998 155.524L556.881 155.992C555.842 157.89 554.287 159.455 552.397 160.507C550.463 161.604 548.206 162.151 545.625 162.151C542.847 162.151 540.502 161.538 538.587 160.305C536.672 159.073 535.225 157.306 534.249 154.996C533.272 152.614 532.786 149.817 532.786 146.616C532.786 143.763 532.997 141.595 533.427 140.106C534.132 137.408 535.538 135.281 537.649 133.717C539.76 132.156 542.322 131.375 545.328 131.375C549.044 131.375 551.875 132.342 553.831 134.276C555.781 136.21 557.054 139.016 557.639 142.688C557.859 144.44 557.996 146.201 558.05 147.965C558.05 148.553 557.756 148.844 557.171 148.844H538.647C538.451 148.844 538.353 148.939 538.353 149.138C538.432 150.623 538.568 151.678 538.764 152.301C539.194 153.865 540.054 155.098 541.343 155.995C542.632 156.896 544.234 157.344 546.149 157.344C549.316 157.303 551.584 156.071 552.953 153.647V153.647ZM541.137 137.468C540.063 138.289 539.33 139.424 538.941 140.868C538.632 141.937 538.455 143.039 538.414 144.151C538.414 144.347 538.508 144.445 538.707 144.445H552.014C552.21 144.445 552.311 144.347 552.311 144.151C552.232 142.862 552.115 141.905 551.96 141.279C551.617 139.835 550.802 138.546 549.644 137.616C548.494 136.697 547.056 136.235 545.334 136.235C543.612 136.235 542.212 136.646 541.137 137.468V137.468ZM587.539 134.213C589.416 136.071 590.354 138.58 590.354 141.747V160.798C590.362 160.916 590.345 161.034 590.305 161.145C590.264 161.256 590.202 161.357 590.121 161.443C590.035 161.524 589.935 161.586 589.824 161.626C589.714 161.667 589.596 161.684 589.479 161.677H585.608C585.49 161.684 585.373 161.666 585.262 161.626C585.151 161.586 585.049 161.524 584.963 161.443C584.882 161.357 584.82 161.256 584.78 161.145C584.739 161.034 584.722 160.916 584.73 160.798V142.862C584.73 140.909 584.161 139.326 583.03 138.113C581.895 136.902 580.391 136.296 578.514 136.296C576.833 136.296 575.42 136.795 574.264 137.793C573.107 138.792 572.437 140.129 572.238 141.81V160.804C572.246 160.922 572.229 161.04 572.188 161.151C572.148 161.262 572.085 161.363 572.004 161.449C571.919 161.53 571.818 161.593 571.708 161.633C571.598 161.673 571.48 161.69 571.363 161.683H567.492C567.374 161.69 567.256 161.673 567.145 161.633C567.034 161.593 566.933 161.53 566.847 161.449C566.766 161.363 566.703 161.262 566.663 161.151C566.623 161.04 566.606 160.922 566.613 160.804V132.718C566.613 132.447 566.689 132.232 566.847 132.077C566.933 131.996 567.034 131.933 567.145 131.893C567.256 131.853 567.374 131.836 567.492 131.843H571.363C571.635 131.843 571.849 131.919 572.004 132.077C572.162 132.232 572.238 132.447 572.238 132.718V134.362C572.238 134.479 572.279 134.558 572.355 134.595C572.434 134.637 572.491 134.618 572.535 134.535C574.178 132.466 576.64 131.432 579.92 131.432C583.124 131.432 585.665 132.358 587.539 134.213V134.213ZM614.329 136.235C614.244 136.317 614.142 136.379 614.031 136.419C613.92 136.46 613.802 136.477 613.685 136.469H607.706C607.51 136.469 607.409 136.567 607.409 136.763V152.064C607.409 153.745 607.772 154.936 608.496 155.641C609.22 156.346 610.379 156.696 611.985 156.696H613.391C613.508 156.691 613.626 156.708 613.737 156.748C613.847 156.789 613.949 156.85 614.036 156.93C614.194 157.088 614.269 157.303 614.269 157.575V160.624C614.269 161.174 613.975 161.484 613.391 161.563L610.986 161.623C607.978 161.623 605.731 161.095 604.243 160.04C602.757 158.984 602.015 157.012 602.015 154.118V136.763C602.015 136.567 601.92 136.469 601.724 136.469H598.498C598.38 136.477 598.262 136.46 598.151 136.419C598.04 136.379 597.939 136.317 597.853 136.235C597.772 136.15 597.709 136.048 597.669 135.938C597.629 135.827 597.612 135.709 597.619 135.591V132.718C597.619 132.447 597.695 132.232 597.853 132.077C597.939 131.996 598.04 131.933 598.151 131.893C598.262 131.853 598.38 131.836 598.498 131.843H601.724C601.92 131.843 602.015 131.745 602.015 131.549V124.983C602.015 124.708 602.094 124.496 602.249 124.338C602.335 124.257 602.437 124.195 602.549 124.155C602.66 124.114 602.778 124.097 602.896 124.104H606.531C606.802 124.104 607.017 124.18 607.172 124.338C607.33 124.496 607.406 124.708 607.406 124.983V131.549C607.406 131.745 607.504 131.843 607.703 131.843H613.682C613.957 131.843 614.171 131.919 614.326 132.077C614.406 132.163 614.469 132.263 614.509 132.374C614.549 132.484 614.566 132.601 614.56 132.718V135.591C614.569 135.708 614.553 135.827 614.513 135.938C614.473 136.049 614.411 136.15 614.329 136.235V136.235ZM626.903 159.951C624.773 158.485 623.282 156.444 622.422 153.824C621.717 151.716 621.367 149.331 621.367 146.673C621.367 143.898 621.695 141.554 622.359 139.636C623.215 137.057 624.723 135.035 626.875 133.568C629.027 132.102 631.583 131.372 634.557 131.372C637.372 131.372 639.821 132.102 641.913 133.568C644.002 135.035 645.5 137.038 646.397 139.576C647.102 141.57 647.453 143.914 647.453 146.613C647.453 149.346 647.102 151.751 646.397 153.821C645.538 156.441 644.052 158.485 641.945 159.948C639.834 161.414 637.35 162.144 634.496 162.144C631.564 162.147 629.033 161.418 626.903 159.951V159.951ZM638.598 155.963C639.771 155.085 640.611 153.843 641.123 152.238C641.55 150.753 641.765 148.917 641.765 146.73C641.765 144.543 641.569 142.723 641.177 141.276C640.671 139.674 639.831 138.435 638.658 137.553C637.486 136.672 636.058 136.232 634.376 136.232C632.774 136.232 631.39 136.675 630.218 137.553C629.045 138.432 628.205 139.674 627.696 141.276C627.266 142.644 627.052 144.461 627.052 146.73C627.052 148.996 627.266 150.835 627.696 152.238C628.164 153.843 628.995 155.082 630.186 155.963C631.378 156.845 632.815 157.281 634.493 157.281C635.97 157.311 637.415 156.847 638.598 155.963V155.963ZM672.486 132.191C672.916 132.425 673.074 132.797 672.954 133.306L672.132 137.117C672.091 137.509 671.898 137.705 671.544 137.705C671.386 137.711 671.228 137.69 671.077 137.645C670.432 137.44 669.759 137.341 669.083 137.351C668.691 137.351 668.4 137.373 668.204 137.411C666.365 137.49 664.851 138.125 663.66 139.32C662.469 140.511 661.872 142.066 661.872 143.981V160.804C661.879 160.922 661.862 161.04 661.822 161.151C661.782 161.262 661.719 161.363 661.638 161.449C661.553 161.53 661.452 161.593 661.341 161.633C661.231 161.673 661.114 161.69 660.996 161.683H657.125C657.007 161.69 656.89 161.673 656.779 161.633C656.668 161.593 656.566 161.53 656.481 161.449C656.399 161.363 656.337 161.262 656.297 161.151C656.256 161.04 656.239 160.922 656.247 160.804V132.718C656.247 132.447 656.323 132.232 656.481 132.077C656.566 131.996 656.668 131.933 656.779 131.893C656.89 131.853 657.007 131.836 657.125 131.843H660.996C661.268 131.843 661.483 131.919 661.638 132.077C661.796 132.232 661.872 132.447 661.872 132.718V135.417C661.872 135.575 661.903 135.664 661.96 135.682C662.017 135.701 662.086 135.651 662.165 135.534C663.926 132.876 666.308 131.549 669.317 131.549C670.492 131.549 671.548 131.761 672.486 132.191Z" fill="#1C2122"/>
<path d="M201.248 151.448C200.913 151.448 200.583 151.378 200.277 151.242L179.933 142.132C179.516 141.944 179.162 141.64 178.914 141.256C178.665 140.872 178.533 140.425 178.533 139.967C178.533 139.51 178.665 139.062 178.914 138.678C179.162 138.294 179.516 137.99 179.933 137.803L200.277 128.724C200.852 128.469 201.504 128.452 202.09 128.676C202.677 128.901 203.151 129.349 203.409 129.922C203.664 130.496 203.68 131.149 203.455 131.735C203.23 132.322 202.782 132.796 202.208 133.053L186.708 139.97L202.211 146.913C202.707 147.134 203.112 147.519 203.358 148.002C203.605 148.486 203.677 149.039 203.565 149.57C203.452 150.101 203.16 150.577 202.738 150.919C202.317 151.261 201.79 151.447 201.248 151.448V151.448Z" fill="#67BECE"/>
<path d="M173.522 184.498C151.155 184.498 131.601 169.4 125.98 147.779C125.821 147.171 125.911 146.525 126.229 145.983C126.547 145.441 127.067 145.047 127.675 144.889C128.283 144.731 128.929 144.82 129.471 145.138C130.013 145.456 130.406 145.976 130.565 146.584C133.045 156.088 138.607 164.5 146.381 170.504C154.155 176.507 163.7 179.762 173.522 179.758C174.15 179.758 174.753 180.008 175.198 180.452C175.642 180.897 175.892 181.499 175.892 182.128C175.892 182.757 175.642 183.359 175.198 183.804C174.753 184.248 174.15 184.498 173.522 184.498V184.498Z" fill="#3F54A3"/>
<path d="M165.356 164.818C164.728 164.818 164.125 164.568 163.68 164.123C163.236 163.679 162.986 163.076 162.986 162.448V117.396C162.986 116.767 163.236 116.164 163.68 115.72C164.125 115.275 164.728 115.026 165.356 115.026C165.985 115.026 166.588 115.275 167.032 115.72C167.477 116.164 167.726 116.767 167.726 117.396V162.448C167.726 163.076 167.477 163.679 167.032 164.123C166.588 164.568 165.985 164.818 165.356 164.818Z" fill="#67BECE"/>
<path d="M254.804 191.362C254.492 191.362 254.184 191.301 253.896 191.182C253.609 191.063 253.348 190.887 253.129 190.666L242.786 180.32L232.443 190.663C232.223 190.883 231.962 191.058 231.674 191.177C231.387 191.296 231.078 191.358 230.767 191.358C230.456 191.358 230.147 191.296 229.86 191.177C229.572 191.058 229.311 190.883 229.091 190.663C228.87 190.443 228.696 190.182 228.577 189.894C228.458 189.606 228.396 189.298 228.396 188.987C228.396 188.675 228.458 188.367 228.577 188.08C228.696 187.792 228.87 187.531 229.091 187.31L241.111 175.29C241.331 175.07 241.592 174.895 241.88 174.776C242.167 174.657 242.475 174.595 242.786 174.595C243.097 174.595 243.405 174.657 243.693 174.776C243.98 174.895 244.241 175.07 244.461 175.29L256.481 187.314C256.814 187.645 257.04 188.068 257.132 188.528C257.224 188.988 257.177 189.465 256.997 189.899C256.817 190.333 256.513 190.703 256.122 190.963C255.732 191.224 255.273 191.362 254.804 191.362V191.362Z" fill="#F9C7C5"/>
<path d="M278.838 191.362C278.527 191.362 278.219 191.301 277.932 191.181C277.644 191.062 277.383 190.887 277.164 190.666L266.821 180.321L256.481 190.663C256.261 190.883 256 191.058 255.712 191.177C255.425 191.296 255.116 191.358 254.805 191.358C254.494 191.358 254.185 191.296 253.898 191.177C253.61 191.058 253.349 190.883 253.129 190.663C252.909 190.443 252.734 190.182 252.615 189.894C252.496 189.606 252.434 189.298 252.434 188.987C252.434 188.676 252.496 188.367 252.615 188.08C252.734 187.792 252.909 187.531 253.129 187.31L265.146 175.29C265.6 174.862 266.199 174.624 266.823 174.624C267.446 174.624 268.046 174.862 268.499 175.29L280.52 187.314C280.852 187.645 281.079 188.068 281.17 188.529C281.262 188.989 281.215 189.467 281.035 189.901C280.855 190.334 280.55 190.705 280.159 190.965C279.768 191.225 279.308 191.363 278.838 191.362V191.362Z" fill="#F9C7C5"/>
<path d="M302.88 191.361C302.568 191.362 302.259 191.301 301.971 191.182C301.683 191.063 301.422 190.887 301.202 190.666L290.862 180.32L280.52 190.663C280.3 190.883 280.038 191.058 279.751 191.177C279.463 191.296 279.155 191.357 278.843 191.357C278.532 191.357 278.224 191.296 277.936 191.177C277.649 191.058 277.387 190.883 277.167 190.663C276.947 190.443 276.772 190.182 276.653 189.894C276.534 189.606 276.473 189.298 276.473 188.987C276.473 188.675 276.534 188.367 276.653 188.079C276.772 187.792 276.947 187.53 277.167 187.31L289.188 175.29C289.632 174.846 290.234 174.597 290.862 174.597C291.491 174.597 292.093 174.846 292.537 175.29L304.555 187.313C304.887 187.645 305.113 188.067 305.205 188.527C305.297 188.987 305.25 189.464 305.071 189.898C304.892 190.331 304.588 190.701 304.198 190.962C303.808 191.223 303.349 191.362 302.88 191.361V191.361Z" fill="#F9C7C5"/>
<path d="M326.912 191.362C326.601 191.362 326.293 191.301 326.006 191.181C325.719 191.062 325.459 190.887 325.24 190.666L314.897 180.321L304.555 190.663C304.335 190.883 304.073 191.058 303.786 191.177C303.498 191.296 303.19 191.358 302.878 191.358C302.567 191.358 302.259 191.296 301.971 191.177C301.683 191.058 301.422 190.883 301.202 190.663C300.982 190.443 300.807 190.182 300.688 189.894C300.569 189.606 300.508 189.298 300.508 188.987C300.508 188.676 300.569 188.367 300.688 188.08C300.807 187.792 300.982 187.531 301.202 187.31L313.219 175.29C313.673 174.862 314.273 174.624 314.896 174.624C315.519 174.624 316.119 174.862 316.572 175.29L328.596 187.314C328.929 187.645 329.155 188.069 329.247 188.53C329.338 188.99 329.291 189.468 329.11 189.902C328.93 190.336 328.625 190.706 328.233 190.966C327.842 191.226 327.382 191.364 326.912 191.362V191.362Z" fill="#F9C7C5"/>
<path d="M350.953 191.362C350.641 191.362 350.333 191.301 350.046 191.181C349.758 191.062 349.497 190.887 349.278 190.666L338.932 180.321L328.596 190.663C328.376 190.883 328.114 191.058 327.827 191.177C327.539 191.296 327.231 191.358 326.919 191.358C326.608 191.358 326.3 191.296 326.012 191.177C325.724 191.058 325.463 190.883 325.243 190.663C325.023 190.443 324.848 190.182 324.729 189.894C324.61 189.606 324.549 189.298 324.549 188.987C324.549 188.676 324.61 188.367 324.729 188.08C324.848 187.792 325.023 187.531 325.243 187.31L337.26 175.29C337.714 174.862 338.314 174.624 338.937 174.624C339.56 174.624 340.16 174.862 340.613 175.29L352.634 187.314C352.966 187.645 353.193 188.068 353.285 188.529C353.376 188.989 353.329 189.467 353.149 189.901C352.969 190.334 352.664 190.705 352.273 190.965C351.882 191.225 351.422 191.363 350.953 191.362V191.362Z" fill="#F9C7C5"/>
<path d="M374.988 191.362C374.676 191.363 374.368 191.302 374.081 191.183C373.793 191.063 373.532 190.888 373.313 190.667L362.97 180.321L352.631 190.664C352.41 190.884 352.149 191.059 351.862 191.178C351.574 191.297 351.266 191.358 350.954 191.358C350.643 191.358 350.335 191.297 350.047 191.178C349.759 191.059 349.498 190.884 349.278 190.664C349.058 190.444 348.883 190.182 348.764 189.895C348.645 189.607 348.583 189.299 348.583 188.988C348.583 188.676 348.645 188.368 348.764 188.08C348.883 187.793 349.058 187.531 349.278 187.311L361.295 175.291C361.749 174.863 362.348 174.625 362.972 174.625C363.595 174.625 364.195 174.863 364.648 175.291L376.669 187.314C377.001 187.646 377.228 188.069 377.319 188.53C377.411 188.99 377.364 189.468 377.184 189.901C377.004 190.335 376.699 190.705 376.308 190.966C375.917 191.226 375.457 191.364 374.988 191.362V191.362Z" fill="#F9C7C5"/>
<path d="M399.026 191.362C398.714 191.362 398.406 191.301 398.119 191.181C397.831 191.062 397.57 190.887 397.351 190.666L387.008 180.321L376.669 190.663C376.449 190.883 376.187 191.058 375.9 191.177C375.612 191.296 375.304 191.358 374.992 191.358C374.681 191.358 374.373 191.296 374.085 191.177C373.797 191.058 373.536 190.883 373.316 190.663C373.096 190.443 372.921 190.182 372.802 189.894C372.683 189.606 372.622 189.298 372.622 188.987C372.622 188.676 372.683 188.367 372.802 188.08C372.921 187.792 373.096 187.531 373.316 187.31L385.333 175.29C385.787 174.862 386.387 174.624 387.01 174.624C387.633 174.624 388.233 174.862 388.686 175.29L400.707 187.314C401.039 187.645 401.266 188.068 401.357 188.529C401.449 188.989 401.402 189.467 401.222 189.901C401.042 190.334 400.737 190.705 400.346 190.965C399.955 191.225 399.495 191.363 399.026 191.362V191.362Z" fill="#F9C7C5"/>
<path d="M423.064 191.361C422.752 191.362 422.443 191.301 422.155 191.182C421.867 191.063 421.605 190.887 421.386 190.666L411.046 180.32L400.703 190.663C400.483 190.883 400.222 191.058 399.934 191.177C399.647 191.296 399.338 191.357 399.027 191.357C398.716 191.357 398.407 191.296 398.12 191.177C397.832 191.058 397.571 190.883 397.351 190.663C397.13 190.443 396.956 190.182 396.837 189.894C396.718 189.606 396.656 189.298 396.656 188.987C396.656 188.675 396.718 188.367 396.837 188.079C396.956 187.792 397.13 187.53 397.351 187.31L409.371 175.29C409.816 174.846 410.418 174.597 411.046 174.597C411.674 174.597 412.276 174.846 412.721 175.29L424.738 187.313C425.07 187.645 425.297 188.067 425.389 188.527C425.481 188.987 425.434 189.464 425.255 189.898C425.075 190.331 424.771 190.701 424.381 190.962C423.991 191.223 423.533 191.362 423.064 191.361V191.361Z" fill="#F9C7C5"/>
<path d="M447.096 191.362C446.785 191.362 446.477 191.301 446.19 191.181C445.903 191.062 445.643 190.887 445.424 190.666L435.081 180.32L424.739 190.663C424.519 190.883 424.257 191.058 423.97 191.177C423.682 191.296 423.374 191.358 423.062 191.358C422.751 191.358 422.443 191.296 422.155 191.177C421.868 191.058 421.606 190.883 421.386 190.663C421.166 190.443 420.991 190.182 420.872 189.894C420.753 189.606 420.692 189.298 420.692 188.987C420.692 188.675 420.753 188.367 420.872 188.08C420.991 187.792 421.166 187.531 421.386 187.31L433.407 175.29C433.627 175.07 433.888 174.895 434.175 174.776C434.462 174.657 434.77 174.595 435.081 174.595C435.393 174.595 435.701 174.657 435.988 174.776C436.275 174.895 436.536 175.07 436.756 175.29L448.777 187.314C449.109 187.645 449.336 188.068 449.428 188.529C449.519 188.989 449.472 189.467 449.292 189.901C449.112 190.334 448.807 190.705 448.416 190.965C448.025 191.225 447.565 191.363 447.096 191.362V191.362Z" fill="#F9C7C5"/>
<path d="M471.137 191.361C470.826 191.362 470.518 191.301 470.23 191.181C469.943 191.062 469.682 190.887 469.462 190.666L459.12 180.32L448.78 190.663C448.335 191.108 447.732 191.357 447.104 191.357C446.475 191.357 445.872 191.108 445.427 190.663C444.983 190.218 444.733 189.615 444.733 188.987C444.733 188.358 444.983 187.755 445.427 187.31L457.445 175.29C457.889 174.846 458.492 174.597 459.12 174.597C459.748 174.597 460.35 174.846 460.794 175.29L472.815 187.313C473.147 187.645 473.374 188.068 473.466 188.528C473.557 188.988 473.51 189.465 473.331 189.899C473.151 190.333 472.847 190.703 472.456 190.963C472.065 191.224 471.606 191.362 471.137 191.361V191.361Z" fill="#F9C7C5"/>
</g>
<defs>
<clipPath id="clip0">
<rect width="800" height="306" fill="white"/>
</clipPath>
</defs>
</svg>
