<svg width="135" height="36" viewBox="0 0 135 36" fill="none" xmlns="http://www.w3.org/2000/svg">
<g clip-path="url(#clip0)">
<path d="M49.5 14.5C51.3 13.9 53.2 13.4 54.9 12.7C58.2 11.5 61.2 9.59995 63.5 6.79995C64 6.09995 64.5 5.29995 64.8 4.49995C65.4 2.99995 64.5 1.69995 62.9 1.79995C61.7 1.89995 60.5 2.19995 59.4 2.69995C55.3 4.69995 51.7 7.29995 48.6 10.7C47.7 11.7 47 12.8 46 13.6C45.7 14.1 44.8 14.1 44.2 14.1C40.7 13.8 37.2 13.3 33.7 13.1C31.6 12.9 29.5 13.1 27.6 13.1C29 12 30.8 10.9 32.2 9.49995C33.6 8.19995 34.7 6.69995 35.8 5.29995C36.2 4.69995 36.7 3.99995 36.7 3.29995C36.7 2.39995 36.7 1.09995 36.2 0.499954C35.7 -4.57764e-05 34.4 -4.88311e-05 33.5 0.199951C31.3 0.799951 29.5 2.29995 28 3.99995C25.2 7.19995 22.6 10.5 19.9 13.7C19.5 14.2 18.8 14.7 18.2 14.8C12.2 15.8 6.9 18.7 1.5 21.3C0.900002 21.6 0.500002 22.1 -0.0999985 22.5C0.300002 23.6 1 23.6 1.8 23.3C3.7 22.5 5.5 21.7 7.4 20.9C8.3 20.5 9.2 20 10.1 19.6C12 18.8 12.4 18.9 13.6 20.7C14.6 22.3 15.6 24 16.6 25.6C17.9 27.7 19.5 29.5 21.7 30.8C22.4 31.2 23.1 31.5 23.9 31.6C25.5 31.9 26.8 30.9 26.4 29.4C26 27.8 25.2 26.2 24.2 25C21.6 21.8 18.2 19.7 14.3 18C16.4 17.5 18.4 17 20.5 16.6C25 15.7 29.4 15.1 34 15.3C35.5 15.3 36.4 15.9 37 17.2C37.8 18.9 38.6 20.7 39.5 22.4C41 25.3 43.1 27.6 45.9 29.4C47 30.1 48.3 30.9 49.5 29.8C50.8 28.7 50.2 27.3 49.7 26C48.4 22.9 46.1 20.4999 43.7 18.4C42.9 17.7 42 17 41.1 16C42.7 16.2 44.3 16.4 45.8 16.6C51 17.3 56.2 18.1 61.4 18.7C62.4 18.8 63 19.2 63.4 20C64.6 22.2 65.6 24.5 66.9 26.6C67.8 28.1 69 29.6 70.3 31.1C70.9 31.7 71.9 32.1 72.7 32.4C74.6 32.9 76.3 31.5 76.3 29.5C76.3 27.5 75.3 25.9 74 24.5C72.3 22.8 70.5 21.2 68.6 19.5C70.4 19.7 72.1 19.9 73.9 20.1C78.9 20.7 83.9 21.3 88.8 22C89.5 22.1 90.4 22.6 90.8 23.2C92.1 25.1 93.3 27.2 94.5 29.2C95.2 30.3 95.8 31.5 96.6 32.5C97.1 33.1 97.8 33.7 98.5 34.1C100.4 35.4 102.6 35.4 103.8 34.1C104.9 33 104.9 31 103.3 29.2C101.6 27.3 99.5 25.7 97.5 23.9C97 23.4 96.3 23.1 95.5 22.6C96.1 22.6 96.5 22.5 96.8 22.5C102.3 22.5 107.8 22.6 113.2 22.5C114.9 22.5 116.4 22.9 117.8 23.8C121.1 25.9 124.4 28.1 127.7 30.2C128.7 30.8 129.9 31.2 131 31.6C132.2 32 133.4 31.9 134.2 30.8C135.1 29.6 134.9 28.3 134 27.3C133 26.2 131.7 25.1 130.4 24.5C127.6 23.4 124.7 22.8 121.8 21.9C121.4 21.8 120.9 21.7 120.7 21.6C124.2 20.6 127.9 19.6 131.5 18.4C132.3 18.2 132.8 17.3 133.5 16.8C132.6 15.8 132 17 131.3 17.2C125.9 18.2 120.6 19.5 115.2 20.3C111.7 20.8 108.1 20.8 104.6 21C104.6 20.9 104.5 20.7 104.5 20.6C104.9 20.4 105.3 20.3 105.8 20.1C110.1 18.3 114.4 16.4 117.8 13C118.4 12.5 118.9 11.8 119.2 11.1C120.2 9.29995 119.1 7.49995 117 7.79995C115.6 7.99995 114 8.39995 112.8 9.29995C109 12.1 105.2 15 101.6 18.2C99.8 19.8 98.3 20.9 95.6 20.5C90.2 19.7 84.8 19.3 79.4 18.7C79.3 18.7 79.2 18.6 79.2 18.6C81.6 17.2 84.1 15.9 86.4 14.3C87.9 13.2 89.2 11.8 90.5 10.4C91.1 9.69995 91.5 8.79995 90.8 7.79995C90.1 6.99995 89.3 6.89995 88.3 7.19995C85.6 7.99995 83.6 9.69995 81.6 11.4C79.3 13.4 77 15.6 74.7 17.6C74.4 17.9 73.7 18 73.2 17.9C68.7 17.3 64.3 16.7 59.8 16.1C56.7 15.7 53.7 15.2 50.6 14.8C50.1 14.7 49.7 14.6 49.2 14.6C49.5 14.7 49.5 14.6 49.5 14.5ZM35.1 1.59995C35.8 5.19995 28.1 12.3 22.4 13.5C23.1 12.8 23.7 12.1 24.3 11.4C26.3 8.99995 28.3 6.59995 30.5 4.29995C31.7 2.89995 33.2 1.89995 35.1 1.59995ZM63.2 3.69995C60.3 9.69995 54.7 11.4 49.1 13.2C53 8.89995 57.3 5.09995 63.2 3.69995ZM93 23.7C93.1 23.6 93.2 23.5 93.3 23.3C95.9 25.3 98.5 27.2 101 29.3C101.6 29.8 102.1 30.6 102.4 31.3C102.6 31.8 102.7 32.7 102.4 32.9C101.9 33.3 101.1 33.5 100.5 33.4C98.7 33 97.4 31.7 96.5 30.1C95.3 28 94.2 25.8 93 23.7ZM65 20.2C65.1 20.1 65.3 19.9 65.4 19.8C67.5 21.5 69.7 23 71.7 24.8C72.8 25.8 73.5 27.2 74.2 28.5C74.4 29 74.3 30.1 74 30.3C73.5 30.6 72.6 30.5 72.1 30.3C71.3 29.8 70.4 29.2 69.9 28.4C68.1 25.7 66.6 22.9 65 20.2ZM103.4 19.8C103.3 19.7 103.2 19.6 103.1 19.5C104.4 18.4 105.6 17.3 107 16.3C109.2 14.6 111.4 12.9 113.8 11.3C114.9 10.5 116.4 10.2 117.7 9.69995C117.8 9.89995 117.9 10.1 118 10.3C114.4 15.4 108.7 17.2 103.4 19.8ZM38.7 17.3C43.2 19.3 48.5 25.6 48.1 28.5C43.1 26.4 40.7 22.1 38.7 17.3ZM24.6 29.6C19.7 28.7 17.9 24.5 15.5 20.8C19.5 22.7 23.2 25 24.6 29.6ZM120.8 24.5C120.9 24.3 121 24.1 121.1 23.9C123 24.4 124.9 24.7 126.7 25.3C128.5 25.9 130.3 26.8 132 27.8C132.5 28.1 132.6 29.1 132.9 29.8C132.2 29.8 131.5 30.1 131 29.9C127.5 28.2 124.1 26.3 120.8 24.5ZM89.5 9.09995C88.3 11.8 81.6 16.7 78.7 17.1C81.4 13.9 86.9 9.69995 89.5 9.09995Z" fill="#FEEEEE"/>
</g>
<defs>
<clipPath id="clip0">
<rect width="134.8" height="35.1" transform="matrix(1 0 0 -1 0 35.1)" fill="white"/>
</clipPath>
</defs>
</svg>
