<svg width="28" height="27" viewBox="0 0 28 27" fill="none" xmlns="http://www.w3.org/2000/svg">
<path d="M13.9891 2.01184C7.22695 2.00921 1.75 7.28792 1.75 13.8032C1.75 18.9554 5.17617 23.335 9.94766 24.9434C10.5902 25.099 10.4918 24.6586 10.4918 24.358V22.3146C6.78125 22.7338 6.63086 20.366 6.38203 19.9705C5.87891 19.1426 4.68945 18.9317 5.04492 18.5362C5.88984 18.1169 6.75117 18.6416 7.74922 20.0628C8.47109 21.0938 9.8793 20.9198 10.593 20.7484C10.7488 20.1287 11.0824 19.575 11.5418 19.1452C7.69727 18.4808 6.09492 16.2185 6.09492 13.529C6.09492 12.2239 6.54063 11.0241 7.41562 10.0565C6.85781 8.46126 7.46758 7.09544 7.54961 6.89241C9.13828 6.7553 10.7898 7.98928 10.9184 8.08684C11.8207 7.85217 12.8516 7.72825 14.0055 7.72825C15.1648 7.72825 16.1984 7.85745 17.109 8.09475C17.418 7.86799 18.9492 6.80803 20.4258 6.93723C20.5051 7.14026 21.1012 8.47444 20.5762 10.0486C21.4621 11.0189 21.9133 12.2291 21.9133 13.5369C21.9133 16.2317 20.3 18.4966 16.4445 19.1505C16.7748 19.4637 17.037 19.8371 17.2158 20.2491C17.3947 20.6611 17.4867 21.1033 17.4863 21.5499V24.5162C17.5082 24.7535 17.4863 24.9882 17.8965 24.9882C22.7391 23.4141 26.2254 19.0029 26.2254 13.8059C26.2254 7.28792 20.7457 2.01184 13.9891 2.01184V2.01184Z" fill="#EEEEEE"/>
</svg>
