<svg width="28" height="26" viewBox="0 0 28 26" fill="none" xmlns="http://www.w3.org/2000/svg">
<path d="M14.067 0.0118419C6.70933 0.00897295 0.75 5.7526 0.75 12.8418C0.75 18.4477 4.47793 23.213 9.66966 24.9631C10.3688 25.1323 10.2617 24.6532 10.2617 24.3262V22.1027C6.22437 22.5589 6.06074 19.9826 5.78999 19.5522C5.24256 18.6514 3.94834 18.4219 4.33512 17.9915C5.25446 17.5354 6.19165 18.1063 7.2776 19.6526C8.06305 20.7744 9.59528 20.5851 10.3718 20.3986C10.5414 19.7244 10.9044 19.1219 11.4042 18.6543C7.22107 17.9313 5.4776 15.4697 5.4776 12.5434C5.4776 11.1233 5.96256 9.8179 6.91462 8.765C6.30768 7.02928 6.97115 5.54317 7.06041 5.32226C8.789 5.17308 10.586 6.51574 10.7259 6.62189C11.7077 6.36656 12.8293 6.23172 14.0849 6.23172C15.3463 6.23172 16.471 6.3723 17.4617 6.6305C17.7979 6.38377 19.464 5.23046 21.0706 5.37103C21.1569 5.59194 21.8055 7.04363 21.2343 8.75639C22.1982 9.81216 22.6891 11.129 22.6891 12.552C22.6891 15.4841 20.9338 17.9485 16.7387 18.66C17.0981 19.0007 17.3834 19.4071 17.578 19.8554C17.7726 20.3036 17.8727 20.7848 17.8723 21.2707V24.4983C17.8961 24.7565 17.8723 25.0118 18.3186 25.0118C23.5877 23.2991 27.381 18.4993 27.381 12.8446C27.381 5.7526 21.4187 0.0118419 14.067 0.0118419V0.0118419Z" fill="#EEEEEE"/>
</svg>
