<svg width="25" height="25" viewBox="0 0 25 25" fill="none" xmlns="http://www.w3.org/2000/svg">
<path d="M12.4994 0C9.10179 0 8.67835 0.0164063 7.34866 0.0726563C6.01351 0.138281 5.11038 0.345313 4.31351 0.654687C3.47949 0.969547 2.72418 1.46251 2.10023 2.09922C1.46174 2.72172 0.968505 3.47745 0.655695 4.3125C0.34632 5.10937 0.139288 6.0125 0.0736633 7.34766C0.0135071 8.67812 0.00100708 9.10078 0.00100708 12.4984C0.00100708 15.8961 0.0174133 16.3195 0.0736633 17.6492C0.139288 18.9805 0.34632 19.8875 0.655695 20.6844C0.970554 21.5184 1.46352 22.2737 2.10023 22.8977C2.72272 23.5361 3.47845 24.0294 4.31351 24.3422C5.11038 24.6477 6.01741 24.8586 7.34866 24.9242C8.67913 24.9844 9.10179 24.9969 12.4994 24.9969C15.8971 24.9969 16.3205 24.9805 17.6502 24.9242C18.9815 24.8586 19.8885 24.6469 20.6854 24.3422C21.5194 24.0273 22.2747 23.5344 22.8987 22.8977C23.538 22.2758 24.0313 21.5199 24.3432 20.6844C24.6487 19.8875 24.8596 18.9805 24.9252 17.6492C24.9854 16.3187 24.9979 15.8961 24.9979 12.4984C24.9979 9.10078 24.9815 8.67734 24.9252 7.34766C24.8596 6.01641 24.6479 5.10469 24.3432 4.3125C24.0283 3.47849 23.5354 2.72317 22.8987 2.09922C22.2768 1.45991 21.5209 0.966547 20.6854 0.654687C19.8885 0.345313 18.9815 0.138281 17.6502 0.0726563C16.3198 0.0125 15.8971 0 12.4994 0ZM12.4994 2.25C15.8362 2.25 16.2346 2.26641 17.5534 2.32266C18.7698 2.37969 19.4323 2.58281 19.8721 2.75469C20.4159 2.95541 20.908 3.27488 21.3127 3.68984C21.727 4.09283 22.0453 4.58387 22.244 5.12656C22.4158 5.56641 22.619 6.22891 22.676 7.44531C22.7323 8.76406 22.7487 9.16328 22.7487 12.4992C22.7487 15.8352 22.7323 16.2344 22.6713 17.5531C22.6057 18.7695 22.4026 19.432 22.2315 19.8719C21.9948 20.4586 21.7307 20.8688 21.2948 21.3125C20.8887 21.7249 20.3969 22.0428 19.8541 22.2438C19.4198 22.4156 18.7479 22.6187 17.5268 22.6758C16.201 22.732 15.8104 22.7484 12.4651 22.7484C9.11976 22.7484 8.72991 22.732 7.40257 22.6711C6.18616 22.6055 5.51507 22.4023 5.07523 22.2312C4.48148 21.9945 4.07444 21.7305 3.63851 21.2945C3.19866 20.8547 2.91898 20.4359 2.70335 19.8539C2.52835 19.4195 2.32835 18.7477 2.26351 17.5266C2.21898 16.2164 2.19788 15.8102 2.19788 12.4805C2.19788 9.15234 2.21898 8.74531 2.26351 7.41875C2.32835 6.19766 2.52835 5.52734 2.70335 5.09141C2.91898 4.49688 3.19944 4.09062 3.63851 3.65078C4.07366 3.21562 4.48148 2.93437 5.07523 2.71406C5.51507 2.54297 6.16976 2.33984 7.39085 2.27891C8.71663 2.23125 9.10726 2.21406 12.4479 2.21406L12.4994 2.25ZM12.4994 6.08359C11.6567 6.08329 10.8222 6.24904 10.0436 6.57139C9.26501 6.89373 8.55755 7.36635 7.96167 7.96223C7.36579 8.55811 6.89318 9.26557 6.57083 10.0442C6.24849 10.8228 6.08273 11.6573 6.08304 12.5C6.08273 13.3427 6.24849 14.1772 6.57083 14.9558C6.89318 15.7344 7.36579 16.4419 7.96167 17.0378C8.55755 17.6337 9.26501 18.1063 10.0436 18.4286C10.8222 18.751 11.6567 18.9167 12.4994 18.9164C13.3421 18.9167 14.1766 18.751 14.9553 18.4286C15.7339 18.1063 16.4413 17.6337 17.0372 17.0378C17.6331 16.4419 18.1057 15.7344 18.4281 14.9558C18.7504 14.1772 18.9162 13.3427 18.9158 12.5C18.9162 11.6573 18.7504 10.8228 18.4281 10.0442C18.1057 9.26557 17.6331 8.55811 17.0372 7.96223C16.4413 7.36635 15.7339 6.89373 14.9553 6.57139C14.1766 6.24904 13.3421 6.08329 12.4994 6.08359V6.08359ZM12.4994 16.6664C10.1963 16.6664 8.33304 14.8031 8.33304 12.5C8.33304 10.1969 10.1963 8.33359 12.4994 8.33359C14.8026 8.33359 16.6659 10.1969 16.6659 12.5C16.6659 14.8031 14.8026 16.6664 12.4994 16.6664ZM20.6744 5.82734C20.674 6.22552 20.5156 6.60724 20.2339 6.88865C19.9522 7.17006 19.5703 7.32813 19.1721 7.32813C18.9752 7.32813 18.7803 7.28935 18.5984 7.214C18.4165 7.13866 18.2512 7.02823 18.112 6.88901C17.9728 6.7498 17.8623 6.58453 17.787 6.40263C17.7117 6.22074 17.6729 6.02579 17.6729 5.82891C17.6729 5.63203 17.7117 5.43707 17.787 5.25518C17.8623 5.07329 17.9728 4.90801 18.112 4.7688C18.2512 4.62958 18.4165 4.51915 18.5984 4.44381C18.7803 4.36847 18.9752 4.32969 19.1721 4.32969C19.9979 4.32969 20.6744 5.00156 20.6744 5.82734V5.82734Z" fill="#F0F0F0"/>
</svg>
