<svg width="429" height="124" viewBox="0 0 429 124" fill="none" xmlns="http://www.w3.org/2000/svg">
<path d="M176.695 115.76C176.972 115.76 177.218 115.714 177.435 115.62C177.655 115.527 177.84 115.397 177.99 115.23C178.143 115.064 178.26 114.864 178.34 114.63C178.42 114.394 178.46 114.132 178.46 113.845V109.505H179.625V113.845C179.625 114.269 179.557 114.66 179.42 115.02C179.287 115.38 179.093 115.692 178.84 115.955C178.587 116.215 178.278 116.42 177.915 116.57C177.555 116.717 177.148 116.79 176.695 116.79C176.242 116.79 175.833 116.717 175.47 116.57C175.11 116.42 174.803 116.215 174.55 115.955C174.297 115.692 174.102 115.38 173.965 115.02C173.832 114.66 173.765 114.269 173.765 113.845V109.505H174.935V113.84C174.935 114.127 174.975 114.389 175.055 114.625C175.135 114.859 175.25 115.06 175.4 115.23C175.55 115.397 175.733 115.527 175.95 115.62C176.17 115.714 176.418 115.76 176.695 115.76ZM188.233 116.705H187.068C186.988 116.705 186.923 116.684 186.873 116.64C186.823 116.597 186.783 116.549 186.753 116.495L184.963 113.61C184.949 113.65 184.934 113.689 184.918 113.725C184.904 113.762 184.888 113.797 184.868 113.83L183.138 116.495C183.101 116.549 183.059 116.597 183.013 116.64C182.969 116.684 182.911 116.705 182.838 116.705H181.748L184.178 113.005L181.848 109.505H183.008C183.091 109.505 183.151 109.519 183.188 109.545C183.228 109.569 183.263 109.605 183.293 109.655L185.043 112.405C185.059 112.365 185.076 112.325 185.093 112.285C185.109 112.245 185.131 112.204 185.158 112.16L186.788 109.675C186.821 109.619 186.858 109.577 186.898 109.55C186.938 109.52 186.986 109.505 187.043 109.505H188.158L185.808 112.955L188.233 116.705ZM190.934 116.76C190.884 116.897 190.804 116.999 190.694 117.065C190.584 117.135 190.472 117.17 190.359 117.17H189.904L192.864 109.69C192.911 109.567 192.982 109.472 193.079 109.405C193.179 109.339 193.292 109.305 193.419 109.305H193.874L190.934 116.76ZM199.189 115.76C199.465 115.76 199.712 115.714 199.929 115.62C200.149 115.527 200.334 115.397 200.484 115.23C200.637 115.064 200.754 114.864 200.834 114.63C200.914 114.394 200.954 114.132 200.954 113.845V109.505H202.119V113.845C202.119 114.269 202.05 114.66 201.914 115.02C201.78 115.38 201.587 115.692 201.334 115.955C201.08 116.215 200.772 116.42 200.409 116.57C200.049 116.717 199.642 116.79 199.189 116.79C198.735 116.79 198.327 116.717 197.964 116.57C197.604 116.42 197.297 116.215 197.044 115.955C196.79 115.692 196.595 115.38 196.459 115.02C196.325 114.66 196.259 114.269 196.259 113.845V109.505H197.429V113.84C197.429 114.127 197.469 114.389 197.549 114.625C197.629 114.859 197.744 115.06 197.894 115.23C198.044 115.397 198.227 115.527 198.444 115.62C198.664 115.714 198.912 115.76 199.189 115.76ZM206.216 116.705H205.041V109.505H206.216V116.705ZM219.332 113.105C219.332 113.639 219.246 114.127 219.072 114.57C218.899 115.01 218.654 115.389 218.337 115.705C218.024 116.022 217.646 116.269 217.202 116.445C216.762 116.619 216.272 116.705 215.732 116.705H213.012V109.505H215.732C216.272 109.505 216.762 109.594 217.202 109.77C217.646 109.944 218.024 110.189 218.337 110.505C218.654 110.822 218.899 111.202 219.072 111.645C219.246 112.085 219.332 112.572 219.332 113.105ZM218.137 113.105C218.137 112.692 218.081 112.32 217.967 111.99C217.857 111.66 217.697 111.382 217.487 111.155C217.281 110.929 217.029 110.755 216.732 110.635C216.436 110.512 216.102 110.45 215.732 110.45H214.187V115.76H215.732C216.102 115.76 216.436 115.7 216.732 115.58C217.029 115.46 217.281 115.287 217.487 115.06C217.697 114.83 217.857 114.552 217.967 114.225C218.081 113.895 218.137 113.522 218.137 113.105ZM226.415 115.76L226.41 116.705H221.92V109.505H226.41V110.45H223.095V112.62H225.745V113.535H223.095V115.76H226.415ZM232.747 110.735C232.71 110.795 232.672 110.84 232.632 110.87C232.592 110.897 232.542 110.91 232.482 110.91C232.418 110.91 232.347 110.884 232.267 110.83C232.19 110.777 232.093 110.719 231.977 110.655C231.863 110.589 231.728 110.529 231.572 110.475C231.415 110.419 231.228 110.39 231.012 110.39C230.812 110.39 230.635 110.415 230.482 110.465C230.332 110.515 230.205 110.585 230.102 110.675C229.998 110.765 229.92 110.872 229.867 110.995C229.817 111.115 229.792 111.247 229.792 111.39C229.792 111.574 229.84 111.727 229.937 111.85C230.033 111.97 230.16 112.074 230.317 112.16C230.477 112.247 230.658 112.324 230.862 112.39C231.065 112.454 231.272 112.522 231.482 112.595C231.695 112.669 231.903 112.752 232.107 112.845C232.31 112.939 232.49 113.057 232.647 113.2C232.807 113.344 232.935 113.519 233.032 113.725C233.128 113.932 233.177 114.184 233.177 114.48C233.177 114.8 233.122 115.1 233.012 115.38C232.902 115.66 232.742 115.905 232.532 116.115C232.325 116.322 232.068 116.485 231.762 116.605C231.458 116.725 231.112 116.785 230.722 116.785C230.492 116.785 230.267 116.762 230.047 116.715C229.83 116.672 229.622 116.61 229.422 116.53C229.225 116.447 229.04 116.347 228.867 116.23C228.693 116.114 228.538 115.984 228.402 115.84L228.742 115.28C228.772 115.234 228.81 115.197 228.857 115.17C228.903 115.144 228.955 115.13 229.012 115.13C229.088 115.13 229.173 115.167 229.267 115.24C229.36 115.31 229.472 115.389 229.602 115.475C229.735 115.559 229.895 115.637 230.082 115.71C230.268 115.78 230.492 115.815 230.752 115.815C231.175 115.815 231.502 115.712 231.732 115.505C231.965 115.299 232.082 115.014 232.082 114.65C232.082 114.447 232.033 114.282 231.937 114.155C231.84 114.025 231.712 113.917 231.552 113.83C231.395 113.744 231.215 113.67 231.012 113.61C230.808 113.55 230.602 113.487 230.392 113.42C230.182 113.35 229.975 113.27 229.772 113.18C229.568 113.087 229.387 112.967 229.227 112.82C229.07 112.67 228.943 112.487 228.847 112.27C228.75 112.05 228.702 111.777 228.702 111.45C228.702 111.19 228.752 110.939 228.852 110.695C228.955 110.452 229.103 110.237 229.297 110.05C229.493 109.86 229.735 109.709 230.022 109.595C230.308 109.482 230.635 109.425 231.002 109.425C231.415 109.425 231.793 109.49 232.137 109.62C232.483 109.75 232.782 109.935 233.032 110.175L232.747 110.735ZM236.916 116.705H235.741V109.505H236.916V116.705ZM245.816 113.16V116.01C245.1 116.527 244.266 116.785 243.316 116.785C242.733 116.785 242.205 116.695 241.731 116.515C241.261 116.332 240.86 116.079 240.526 115.755C240.193 115.429 239.936 115.04 239.756 114.59C239.576 114.14 239.486 113.645 239.486 113.105C239.486 112.562 239.573 112.065 239.746 111.615C239.92 111.162 240.168 110.774 240.491 110.45C240.815 110.124 241.205 109.872 241.661 109.695C242.118 109.515 242.631 109.425 243.201 109.425C243.491 109.425 243.76 109.449 244.006 109.495C244.256 109.539 244.488 109.6 244.701 109.68C244.915 109.76 245.111 109.857 245.291 109.97C245.471 110.084 245.636 110.21 245.786 110.35L245.451 110.885C245.398 110.969 245.33 111.02 245.246 111.04C245.163 111.06 245.073 111.04 244.976 110.98C244.88 110.924 244.776 110.864 244.666 110.8C244.56 110.737 244.436 110.679 244.296 110.625C244.156 110.569 243.995 110.524 243.811 110.49C243.628 110.454 243.411 110.435 243.161 110.435C242.781 110.435 242.438 110.499 242.131 110.625C241.828 110.749 241.568 110.927 241.351 111.16C241.135 111.39 240.968 111.67 240.851 112C240.735 112.33 240.676 112.699 240.676 113.105C240.676 113.535 240.738 113.92 240.861 114.26C240.985 114.597 241.16 114.884 241.386 115.12C241.613 115.354 241.886 115.532 242.206 115.655C242.53 115.779 242.89 115.84 243.286 115.84C243.583 115.84 243.846 115.809 244.076 115.745C244.31 115.682 244.538 115.594 244.761 115.48V114.05H243.756C243.68 114.05 243.62 114.03 243.576 113.99C243.533 113.947 243.511 113.892 243.511 113.825V113.16H245.816ZM254.457 109.505V116.705H253.862C253.772 116.705 253.695 116.69 253.632 116.66C253.568 116.627 253.508 116.574 253.452 116.5L249.497 111.42C249.507 111.517 249.513 111.614 249.517 111.71C249.523 111.804 249.527 111.89 249.527 111.97V116.705H248.497V109.505H249.107C249.157 109.505 249.198 109.509 249.232 109.515C249.268 109.519 249.302 109.527 249.332 109.54C249.362 109.554 249.39 109.574 249.417 109.6C249.443 109.627 249.472 109.66 249.502 109.7L253.462 114.785C253.452 114.682 253.443 114.58 253.437 114.48C253.433 114.38 253.432 114.287 253.432 114.2V109.505H254.457ZM261.968 115.76L261.963 116.705H257.473V109.505H261.963V110.45H258.648V112.62H261.298V113.535H258.648V115.76H261.968ZM266.624 112.955C266.891 112.955 267.124 112.924 267.324 112.86C267.524 112.794 267.691 112.702 267.824 112.585C267.958 112.469 268.058 112.33 268.124 112.17C268.191 112.007 268.224 111.827 268.224 111.63C268.224 111.237 268.094 110.937 267.834 110.73C267.574 110.524 267.181 110.42 266.654 110.42H265.704V112.955H266.624ZM270.014 116.705H268.969C268.763 116.705 268.613 116.625 268.519 116.465L266.839 114.04C266.783 113.957 266.721 113.897 266.654 113.86C266.588 113.824 266.488 113.805 266.354 113.805H265.704V116.705H264.534V109.505H266.654C267.128 109.505 267.534 109.554 267.874 109.65C268.218 109.747 268.499 109.885 268.719 110.065C268.939 110.242 269.101 110.455 269.204 110.705C269.311 110.955 269.364 111.234 269.364 111.54C269.364 111.79 269.326 112.024 269.249 112.24C269.176 112.457 269.068 112.654 268.924 112.83C268.784 113.007 268.611 113.16 268.404 113.29C268.198 113.42 267.963 113.522 267.699 113.595C267.843 113.682 267.966 113.804 268.069 113.96L270.014 116.705ZM277.512 113.255C277.206 113.435 276.979 113.645 276.832 113.885C276.686 114.125 276.612 114.385 276.612 114.665C276.612 114.862 276.647 115.039 276.717 115.195C276.791 115.349 276.886 115.479 277.002 115.585C277.122 115.692 277.259 115.774 277.412 115.83C277.569 115.887 277.731 115.915 277.897 115.915C278.227 115.915 278.527 115.86 278.797 115.75C279.067 115.637 279.307 115.485 279.517 115.295L277.512 113.255ZM282.242 116.705H281.197C281.141 116.705 281.089 116.702 281.042 116.695C280.999 116.689 280.957 116.679 280.917 116.665C280.881 116.649 280.844 116.627 280.807 116.6C280.774 116.574 280.737 116.539 280.697 116.495L280.097 115.885C279.781 116.165 279.421 116.385 279.017 116.545C278.617 116.705 278.182 116.785 277.712 116.785C277.439 116.785 277.171 116.739 276.907 116.645C276.647 116.552 276.414 116.419 276.207 116.245C276.001 116.069 275.834 115.855 275.707 115.605C275.581 115.352 275.517 115.067 275.517 114.75C275.517 114.52 275.554 114.304 275.627 114.1C275.704 113.897 275.809 113.709 275.942 113.535C276.079 113.359 276.239 113.2 276.422 113.06C276.606 112.92 276.807 112.8 277.027 112.7C276.837 112.447 276.699 112.2 276.612 111.96C276.526 111.72 276.482 111.477 276.482 111.23C276.482 110.984 276.527 110.75 276.617 110.53C276.707 110.31 276.837 110.119 277.007 109.955C277.181 109.792 277.389 109.664 277.632 109.57C277.879 109.474 278.157 109.425 278.467 109.425C278.747 109.425 278.999 109.469 279.222 109.555C279.449 109.642 279.642 109.759 279.802 109.905C279.966 110.052 280.092 110.22 280.182 110.41C280.276 110.6 280.331 110.797 280.347 111L279.667 111.14C279.607 111.154 279.551 111.145 279.497 111.115C279.447 111.085 279.409 111.035 279.382 110.965C279.356 110.879 279.317 110.794 279.267 110.71C279.217 110.624 279.156 110.547 279.082 110.48C279.009 110.414 278.921 110.36 278.817 110.32C278.717 110.277 278.601 110.255 278.467 110.255C278.314 110.255 278.176 110.28 278.052 110.33C277.932 110.38 277.829 110.45 277.742 110.54C277.659 110.627 277.594 110.729 277.547 110.845C277.504 110.962 277.482 111.087 277.482 111.22C277.482 111.327 277.494 111.43 277.517 111.53C277.541 111.63 277.579 111.73 277.632 111.83C277.686 111.93 277.752 112.034 277.832 112.14C277.916 112.244 278.016 112.355 278.132 112.475L280.117 114.52C280.237 114.3 280.332 114.072 280.402 113.835C280.472 113.595 280.519 113.354 280.542 113.11C280.549 113.04 280.572 112.985 280.612 112.945C280.652 112.902 280.706 112.88 280.772 112.88H281.437C281.434 113.297 281.371 113.699 281.247 114.085C281.127 114.469 280.957 114.825 280.737 115.155L282.242 116.705ZM289.415 110.45V112.755H292.23V113.7H289.415V116.705H288.24V109.505H292.73V110.45H289.415ZM297.284 112.955C297.551 112.955 297.784 112.924 297.984 112.86C298.184 112.794 298.351 112.702 298.484 112.585C298.618 112.469 298.718 112.33 298.784 112.17C298.851 112.007 298.884 111.827 298.884 111.63C298.884 111.237 298.754 110.937 298.494 110.73C298.234 110.524 297.841 110.42 297.314 110.42H296.364V112.955H297.284ZM300.674 116.705H299.629C299.423 116.705 299.273 116.625 299.179 116.465L297.499 114.04C297.443 113.957 297.381 113.897 297.314 113.86C297.248 113.824 297.148 113.805 297.014 113.805H296.364V116.705H295.194V109.505H297.314C297.788 109.505 298.194 109.554 298.534 109.65C298.878 109.747 299.159 109.885 299.379 110.065C299.599 110.242 299.761 110.455 299.864 110.705C299.971 110.955 300.024 111.234 300.024 111.54C300.024 111.79 299.986 112.024 299.909 112.24C299.836 112.457 299.728 112.654 299.584 112.83C299.444 113.007 299.271 113.16 299.064 113.29C298.858 113.42 298.623 113.522 298.359 113.595C298.503 113.682 298.626 113.804 298.729 113.96L300.674 116.705ZM309.519 113.105C309.519 113.639 309.433 114.13 309.259 114.58C309.086 115.03 308.841 115.419 308.524 115.745C308.211 116.069 307.833 116.322 307.389 116.505C306.949 116.689 306.459 116.78 305.919 116.78C305.383 116.78 304.893 116.689 304.449 116.505C304.009 116.322 303.631 116.069 303.314 115.745C302.998 115.419 302.753 115.03 302.579 114.58C302.406 114.13 302.319 113.639 302.319 113.105C302.319 112.572 302.406 112.08 302.579 111.63C302.753 111.18 302.998 110.792 303.314 110.465C303.631 110.139 304.009 109.884 304.449 109.7C304.893 109.517 305.383 109.425 305.919 109.425C306.459 109.425 306.949 109.517 307.389 109.7C307.833 109.884 308.211 110.139 308.524 110.465C308.841 110.792 309.086 111.18 309.259 111.63C309.433 112.08 309.519 112.572 309.519 113.105ZM308.324 113.105C308.324 112.692 308.268 112.32 308.154 111.99C308.044 111.66 307.884 111.38 307.674 111.15C307.468 110.92 307.216 110.744 306.919 110.62C306.623 110.497 306.289 110.435 305.919 110.435C305.553 110.435 305.221 110.497 304.924 110.62C304.628 110.744 304.374 110.92 304.164 111.15C303.954 111.38 303.793 111.66 303.679 111.99C303.566 112.32 303.509 112.692 303.509 113.105C303.509 113.522 303.566 113.895 303.679 114.225C303.793 114.555 303.954 114.835 304.164 115.065C304.374 115.292 304.628 115.467 304.924 115.59C305.221 115.71 305.553 115.77 305.919 115.77C306.289 115.77 306.623 115.71 306.919 115.59C307.216 115.467 307.468 115.292 307.674 115.065C307.884 114.835 308.044 114.555 308.154 114.225C308.268 113.895 308.324 113.522 308.324 113.105ZM318.061 109.505V116.705H317.466C317.376 116.705 317.299 116.69 317.236 116.66C317.173 116.627 317.113 116.574 317.056 116.5L313.101 111.42C313.111 111.517 313.118 111.614 313.121 111.71C313.128 111.804 313.131 111.89 313.131 111.97V116.705H312.101V109.505H312.711C312.761 109.505 312.803 109.509 312.836 109.515C312.873 109.519 312.906 109.527 312.936 109.54C312.966 109.554 312.994 109.574 313.021 109.6C313.048 109.627 313.076 109.66 313.106 109.7L317.066 114.785C317.056 114.682 317.048 114.58 317.041 114.48C317.038 114.38 317.036 114.287 317.036 114.2V109.505H318.061ZM326.032 110.48H323.787V116.705H322.622V110.48H320.372V109.505H326.032V110.48ZM327.468 113.24H330.003V114.15H327.468V113.24ZM337.244 115.76L337.239 116.705H332.749V109.505H337.239V110.45H333.924V112.62H336.574V113.535H333.924V115.76H337.244ZM345.771 109.505V116.705H345.176C345.086 116.705 345.009 116.69 344.946 116.66C344.883 116.627 344.823 116.574 344.766 116.5L340.811 111.42C340.821 111.517 340.828 111.614 340.831 111.71C340.838 111.804 340.841 111.89 340.841 111.97V116.705H339.811V109.505H340.421C340.471 109.505 340.513 109.509 340.546 109.515C340.583 109.519 340.616 109.527 340.646 109.54C340.676 109.554 340.704 109.574 340.731 109.6C340.758 109.627 340.786 109.66 340.816 109.7L344.776 114.785C344.766 114.682 344.758 114.58 344.751 114.48C344.748 114.38 344.746 114.287 344.746 114.2V109.505H345.771ZM355.107 113.105C355.107 113.639 355.02 114.127 354.847 114.57C354.673 115.01 354.428 115.389 354.112 115.705C353.798 116.022 353.42 116.269 352.977 116.445C352.537 116.619 352.047 116.705 351.507 116.705H348.787V109.505H351.507C352.047 109.505 352.537 109.594 352.977 109.77C353.42 109.944 353.798 110.189 354.112 110.505C354.428 110.822 354.673 111.202 354.847 111.645C355.02 112.085 355.107 112.572 355.107 113.105ZM353.912 113.105C353.912 112.692 353.855 112.32 353.742 111.99C353.632 111.66 353.472 111.382 353.262 111.155C353.055 110.929 352.803 110.755 352.507 110.635C352.21 110.512 351.877 110.45 351.507 110.45H349.962V115.76H351.507C351.877 115.76 352.21 115.7 352.507 115.58C352.803 115.46 353.055 115.287 353.262 115.06C353.472 114.83 353.632 114.552 353.742 114.225C353.855 113.895 353.912 113.522 353.912 113.105ZM367.804 113.105C367.804 113.639 367.718 114.127 367.544 114.57C367.371 115.01 367.126 115.389 366.809 115.705C366.496 116.022 366.118 116.269 365.674 116.445C365.234 116.619 364.744 116.705 364.204 116.705H361.484V109.505H364.204C364.744 109.505 365.234 109.594 365.674 109.77C366.118 109.944 366.496 110.189 366.809 110.505C367.126 110.822 367.371 111.202 367.544 111.645C367.718 112.085 367.804 112.572 367.804 113.105ZM366.609 113.105C366.609 112.692 366.553 112.32 366.439 111.99C366.329 111.66 366.169 111.382 365.959 111.155C365.753 110.929 365.501 110.755 365.204 110.635C364.908 110.512 364.574 110.45 364.204 110.45H362.659V115.76H364.204C364.574 115.76 364.908 115.7 365.204 115.58C365.501 115.46 365.753 115.287 365.959 115.06C366.169 114.83 366.329 114.552 366.439 114.225C366.553 113.895 366.609 113.522 366.609 113.105ZM374.887 115.76L374.882 116.705H370.392V109.505H374.882V110.45H371.567V112.62H374.217V113.535H371.567V115.76H374.887ZM383.478 109.505L380.558 116.705H379.503L376.583 109.505H377.518C377.622 109.505 377.705 109.532 377.768 109.585C377.832 109.635 377.88 109.699 377.913 109.775L379.768 114.47C379.868 114.734 379.96 115.037 380.043 115.38C380.08 115.21 380.118 115.049 380.158 114.895C380.202 114.742 380.248 114.6 380.298 114.47L382.148 109.775C382.175 109.709 382.222 109.647 382.288 109.59C382.355 109.534 382.438 109.505 382.538 109.505H383.478ZM390.114 115.76L390.109 116.705H385.619V109.505H390.109V110.45H386.794V112.62H389.444V113.535H386.794V115.76H390.114ZM396.84 115.725V116.705H392.68V109.505H393.85V115.725H396.84ZM405.618 113.105C405.618 113.639 405.532 114.13 405.358 114.58C405.185 115.03 404.94 115.419 404.623 115.745C404.31 116.069 403.932 116.322 403.488 116.505C403.048 116.689 402.558 116.78 402.018 116.78C401.482 116.78 400.992 116.689 400.548 116.505C400.108 116.322 399.73 116.069 399.413 115.745C399.097 115.419 398.852 115.03 398.678 114.58C398.505 114.13 398.418 113.639 398.418 113.105C398.418 112.572 398.505 112.08 398.678 111.63C398.852 111.18 399.097 110.792 399.413 110.465C399.73 110.139 400.108 109.884 400.548 109.7C400.992 109.517 401.482 109.425 402.018 109.425C402.558 109.425 403.048 109.517 403.488 109.7C403.932 109.884 404.31 110.139 404.623 110.465C404.94 110.792 405.185 111.18 405.358 111.63C405.532 112.08 405.618 112.572 405.618 113.105ZM404.423 113.105C404.423 112.692 404.367 112.32 404.253 111.99C404.143 111.66 403.983 111.38 403.773 111.15C403.567 110.92 403.315 110.744 403.018 110.62C402.722 110.497 402.388 110.435 402.018 110.435C401.652 110.435 401.32 110.497 401.023 110.62C400.727 110.744 400.473 110.92 400.263 111.15C400.053 111.38 399.892 111.66 399.778 111.99C399.665 112.32 399.608 112.692 399.608 113.105C399.608 113.522 399.665 113.895 399.778 114.225C399.892 114.555 400.053 114.835 400.263 115.065C400.473 115.292 400.727 115.467 401.023 115.59C401.32 115.71 401.652 115.77 402.018 115.77C402.388 115.77 402.722 115.71 403.018 115.59C403.315 115.467 403.567 115.292 403.773 115.065C403.983 114.835 404.143 114.555 404.253 114.225C404.367 113.895 404.423 113.522 404.423 113.105ZM410.44 113.175C410.7 113.175 410.929 113.142 411.125 113.075C411.325 113.009 411.49 112.915 411.62 112.795C411.754 112.672 411.854 112.524 411.92 112.35C411.987 112.177 412.02 111.984 412.02 111.77C412.02 111.56 411.987 111.372 411.92 111.205C411.857 111.039 411.76 110.897 411.63 110.78C411.5 110.664 411.335 110.575 411.135 110.515C410.939 110.452 410.707 110.42 410.44 110.42H409.37V113.175H410.44ZM410.44 109.505C410.91 109.505 411.317 109.56 411.66 109.67C412.007 109.78 412.292 109.935 412.515 110.135C412.742 110.332 412.91 110.57 413.02 110.85C413.13 111.127 413.185 111.434 413.185 111.77C413.185 112.114 413.127 112.429 413.01 112.715C412.894 112.999 412.72 113.244 412.49 113.45C412.26 113.654 411.974 113.814 411.63 113.93C411.29 114.044 410.894 114.1 410.44 114.1H409.37V116.705H408.2V109.505H410.44ZM420.099 115.76L420.094 116.705H415.604V109.505H420.094V110.45H416.779V112.62H419.429V113.535H416.779V115.76H420.099ZM424.756 112.955C425.022 112.955 425.256 112.924 425.456 112.86C425.656 112.794 425.822 112.702 425.956 112.585C426.089 112.469 426.189 112.33 426.256 112.17C426.322 112.007 426.356 111.827 426.356 111.63C426.356 111.237 426.226 110.937 425.966 110.73C425.706 110.524 425.312 110.42 424.786 110.42H423.836V112.955H424.756ZM428.146 116.705H427.101C426.894 116.705 426.744 116.625 426.651 116.465L424.971 114.04C424.914 113.957 424.852 113.897 424.786 113.86C424.719 113.824 424.619 113.805 424.486 113.805H423.836V116.705H422.666V109.505H424.786C425.259 109.505 425.666 109.554 426.006 109.65C426.349 109.747 426.631 109.885 426.851 110.065C427.071 110.242 427.232 110.455 427.336 110.705C427.442 110.955 427.496 111.234 427.496 111.54C427.496 111.79 427.457 112.024 427.381 112.24C427.307 112.457 427.199 112.654 427.056 112.83C426.916 113.007 426.742 113.16 426.536 113.29C426.329 113.42 426.094 113.522 425.831 113.595C425.974 113.682 426.097 113.804 426.201 113.96L428.146 116.705Z" fill="#FEEEEE"/>
<path d="M4.60547 37.3677C1.79101 36.4616 0 32.2331 0 27.7027C0 25.5884 0.511719 23.4742 1.2793 21.964C7.16406 11.695 21.748 8.07058 35.5644 6.86245C40.4258 6.25839 45.543 5.65432 51.1719 5.65432C51.6836 3.5401 51.9394 1.72791 52.707 0.821812C53.2187 0.51978 53.9863 0.519782 55.0098 1.42588C55.7773 2.02994 56.2891 3.23807 55.7773 3.5401C55.5215 3.84214 55.2656 4.74823 55.0098 5.35229H59.6152C65.5 5.35229 71.3848 5.35229 77.2695 5.35229C85.457 5.35229 93.9004 5.05026 102.088 3.5401C107.717 2.63401 103.623 7.16449 99.5293 7.76855C93.1328 8.97668 84.6894 8.97668 75.7344 8.97668C71.6406 8.97668 67.291 8.97668 63.1973 8.97668C60.3828 8.97668 57.8242 8.97668 55.2656 8.97668H54.2422C53.7305 11.997 52.9629 15.6214 52.707 19.8498C51.6836 28.9108 50.916 40.388 50.1484 51.8652C49.125 63.9465 48.6133 78.444 48.6133 87.807V91.4314C48.6133 94.4517 48.6133 97.17 48.8691 99.2842C48.8691 103.211 49.125 104.419 49.125 104.721L49.3809 105.325C49.6367 105.929 49.125 105.929 48.6133 105.929C47.8457 105.929 46.8223 105.023 46.3105 104.117V103.815C45.7988 102.607 45.543 100.19 45.543 97.472C45.543 95.6598 45.2871 93.5456 45.2871 91.1294C45.2871 89.6192 45.2871 87.807 45.2871 85.9948C45.2871 76.9339 46.0547 62.1343 46.5664 50.6571C47.334 39.1799 48.1016 27.7027 49.125 18.6417C49.6367 15.3193 49.8926 12.299 50.1484 9.88277C44.7754 10.1848 41.1934 10.4868 37.6113 10.7889C23.5391 12.299 9.21094 15.0173 3.58203 24.0783C2.81445 25.8905 2.30273 27.4006 2.30273 28.6088C2.30273 31.025 3.83789 33.1392 7.67578 37.0656C7.41992 37.9717 6.14062 37.9717 4.60547 37.3677Z" fill="#FEEEEE"/>
<path d="M66.5231 78.444V63.3424C66.5231 48.8449 67.0349 35.8575 67.5466 22.2661C67.5466 20.7559 71.1286 21.964 71.1286 23.7762C69.8493 37.3677 69.8493 50.9591 69.5934 65.4566V74.8196C72.4079 71.1953 80.0837 62.7384 85.2008 64.5506C86.4801 64.8526 87.7594 66.3627 88.2712 67.5709C88.527 69.9871 87.7594 73.0074 88.527 76.0278C89.5504 76.6318 90.318 76.6318 91.3415 76.6318C95.9469 76.6318 105.67 72.1014 108.484 67.5709C109.252 66.3627 108.74 69.6851 107.461 72.1014C105.414 75.7257 98.7614 79.6522 93.1325 79.6522C91.0856 79.6522 89.2946 79.0481 87.2477 77.5379C85.2008 75.7257 84.6891 73.0074 84.6891 70.8932C84.6891 69.3831 84.945 68.1749 84.945 67.2688C79.8278 66.9668 70.361 78.142 70.1052 82.9745C70.1052 84.4847 67.2907 83.2765 67.0349 81.4643C66.5231 81.7664 66.5231 80.5582 66.5231 78.444Z" fill="#FEEEEE"/>
<path d="M103.623 73.9136C103.623 71.4974 104.646 69.3832 106.949 67.571C109.252 65.7588 112.322 64.8527 115.648 64.8527C118.207 64.8527 120.766 65.4567 122.812 66.6649L124.348 64.2486C124.859 63.0405 127.93 65.4567 127.418 66.6649C126.906 68.175 126.139 70.2893 125.883 72.1015C125.883 73.9137 126.139 76.0279 127.93 76.6319C132.535 77.538 140.211 72.4035 143.537 68.175C145.072 66.3628 146.351 69.0811 141.49 74.8197C139.187 77.538 133.047 80.8604 129.209 79.6523C126.139 78.7462 124.092 76.934 122.812 73.0076C120.254 75.7258 114.369 81.1624 109.764 81.1624C108.484 81.1624 107.461 80.8604 106.437 79.9543C104.646 78.1421 103.623 76.3299 103.623 73.9136ZM121.277 68.7791C120.51 68.4771 119.23 68.175 117.695 68.175C113.09 68.175 107.205 70.2893 106.437 75.1218C106.182 76.3299 106.693 77.538 107.973 77.538C112.322 76.934 118.207 72.7055 121.277 68.7791Z" fill="#FEEEEE"/>
<path d="M159.401 73.3094C156.842 77.5378 152.748 81.7663 149.678 81.7663C146.608 81.7663 143.793 79.048 142.77 75.7256C142.258 74.2155 142.002 72.4033 142.002 70.5911C142.002 69.0809 142.258 67.5708 142.514 66.3627C142.77 65.1545 143.537 64.2484 144.305 63.9464C144.817 63.6444 145.84 64.2484 146.608 65.1545C147.375 66.0606 147.375 66.9667 146.863 67.2687C146.608 67.2687 146.096 67.8728 145.584 69.0809C145.328 69.987 145.072 71.4972 145.072 73.0074C145.328 74.8196 145.328 77.8399 146.863 78.746C150.701 81.1622 158.633 68.7789 158.633 65.4566C158.633 65.1545 158.889 65.1545 158.889 65.1545C158.633 65.1545 158.889 65.1545 158.889 64.8525C158.889 64.5505 159.401 64.5505 159.656 64.5505C160.424 64.5505 161.959 65.7586 162.215 66.9667C162.215 67.8728 162.471 69.0809 162.471 69.987C162.983 74.5175 162.983 79.048 162.983 82.9744V84.1825L162.727 94.1496C161.959 107.439 159.656 121.937 151.725 123.749C149.422 124.353 145.84 122.541 143.281 119.52C140.979 116.5 139.444 112.876 139.955 108.949C141.235 100.794 148.399 90.2232 157.61 82.3703L159.912 80.5582L159.401 73.3094ZM159.912 85.0886L157.865 87.5049C150.701 95.3577 144.561 103.815 143.537 111.063C143.026 114.386 144.305 117.104 145.328 118.614C146.608 120.124 148.399 121.03 149.422 120.728C156.33 118.614 159.912 99.8882 159.912 85.0886Z" fill="#FEEEEE"/>
<path d="M166.053 82.3704C166.82 82.6725 167.844 82.6725 169.123 82.6725C171.938 82.6725 175.52 82.0684 177.822 81.4643C175.52 79.9542 172.193 78.142 170.402 76.9339C168.1 75.4237 165.541 74.2156 165.285 71.1952C164.518 65.4566 174.24 62.1343 178.846 61.5302C180.381 61.2282 182.172 63.3424 181.404 64.2485C178.078 65.7587 169.891 67.2688 168.867 70.2891C168.355 71.7993 170.402 72.7054 172.193 74.2156C175.52 76.3298 178.334 78.142 180.125 79.6521C182.172 81.7664 180.381 84.4847 178.078 85.3907C176.543 85.9948 174.24 86.2968 171.682 86.2968C169.379 86.2968 167.332 85.9948 166.053 85.3907C165.029 84.4847 164.262 81.7664 166.053 82.3704Z" fill="#FEEEEE"/>
<path d="M209.293 83.2766C203.92 82.6726 201.361 75.4238 201.105 74.8197C198.035 77.538 193.941 82.0685 189.336 82.0685C187.033 82.0685 184.474 80.2563 183.451 78.1421C182.939 76.934 182.683 75.7258 182.683 74.5177C182.683 72.7055 183.451 70.8933 184.986 69.6852C186.777 68.175 189.592 66.9669 193.174 66.9669C195.22 66.9669 197.779 67.2689 200.082 68.175L201.361 68.4771C202.64 66.3628 202.896 66.3628 202.896 66.0608C203.408 64.8527 206.478 67.2689 205.967 68.4771L205.711 68.7791C204.687 70.5913 204.431 72.4035 204.431 74.2157C204.431 76.6319 205.199 78.4441 207.246 79.3502C210.828 80.8604 215.689 79.6523 215.689 80.2563C215.945 80.8604 212.875 83.8807 209.293 83.2766ZM199.57 70.8933L198.547 70.5913C197.267 70.2893 196.244 70.2893 194.965 70.2893C192.406 70.2893 189.847 70.8933 187.801 72.7055C186.521 73.6116 185.498 75.7258 185.498 77.236C185.498 78.4441 186.01 79.3502 187.801 79.3502C191.383 78.7462 197.011 74.2157 199.57 70.8933Z" fill="#FEEEEE"/>
<path d="M255.933 60.7136C257.469 56.4349 292.804 55.9 299.717 55.9C301.51 55.9 303.046 55.9 304.838 55.9C305.607 55.9 306.631 56.4349 307.143 57.2371C307.399 58.0394 307.143 58.5743 306.631 58.8417C305.094 58.8417 303.558 58.8417 301.766 58.8417C299.973 58.8417 298.437 58.8417 296.901 58.8417V59.1091C297.413 62.0507 296.901 65.7947 295.365 69.806C295.109 70.3408 295.109 70.8757 294.853 71.4105C294.596 72.4802 294.084 73.8173 293.06 75.1545C292.292 76.2241 291.78 77.2938 291.012 77.8287L290.5 78.631C284.611 86.9211 274.113 95.4786 261.31 96.0134C244.155 96.5483 231.609 82.6423 232.377 58.0394C233.145 36.913 248.252 12.5776 270.528 11.2404C277.697 10.973 284.355 13.3798 288.707 20.0654C290.244 22.2048 291.012 25.1464 291.012 28.0881C291.012 32.9017 288.963 37.9827 284.355 41.7266C281.794 43.866 279.234 43.0637 280.514 41.994C285.891 37.7153 287.939 31.832 287.939 27.0184C287.939 25.1464 287.683 23.2745 287.171 21.9373C285.123 16.3215 279.234 14.1821 273.344 14.1821C272.32 14.1821 271.552 14.1821 270.784 14.1821C252.348 16.054 237.242 37.4479 235.961 57.5046C235.961 58.8417 235.961 60.1788 235.961 61.5159C235.961 80.2355 244.923 93.0718 259.774 93.0718C273.6 93.0718 286.659 79.9681 291.78 69.2712L292.292 67.9341C292.292 66.3295 292.548 64.725 292.804 63.3879C293.06 61.5159 293.316 59.9114 293.316 58.8417C281.026 59.3765 268.223 61.2485 258.238 63.3879C257.726 63.3879 256.189 63.1204 255.933 62.0508C255.933 62.5856 255.677 61.7833 255.933 60.7136Z" fill="#FEEEEE"/>
<path d="M321.123 70.5124C321.379 72.0226 321.635 73.5327 321.379 75.0429C320.612 80.4795 316.774 82.8958 312.68 82.5937C309.354 82.2917 307.051 78.9693 306.795 76.251C306.284 71.7205 308.586 66.586 310.633 65.9819C310.889 65.9819 310.889 65.9819 311.145 65.9819C311.401 64.4718 312.168 63.2636 313.959 63.5657C316.262 63.8677 318.309 65.3779 319.588 67.1901C321.891 67.4921 324.194 67.4921 326.241 67.4921C330.334 67.4921 333.916 67.1901 334.684 67.1901C337.243 67.1901 336.731 68.3982 334.428 69.3043C332.381 69.9083 326.752 70.8145 321.123 70.5124ZM309.866 75.949C310.377 78.9693 311.401 80.1775 312.936 80.1775C316.774 79.8754 318.821 73.8348 317.541 70.2104C315.494 69.9083 313.703 69.0023 312.424 68.0962L312.168 68.3982C311.145 69.3043 309.354 72.9287 309.866 75.949Z" fill="#FEEEEE"/>
<path d="M335.707 72.9287C335.707 69.6063 335.963 66.586 336.219 63.8677C336.475 62.0556 339.545 64.4718 339.289 65.6799C339.289 68.3982 339.033 70.2104 339.033 73.8348C342.104 69.9084 345.174 65.6799 349.012 63.2637C349.779 62.9616 351.315 63.8677 352.082 65.0759C353.106 67.7942 353.106 69.9084 353.873 73.8348L362.572 65.3779C363.084 64.7738 364.875 65.982 365.643 67.1901C366.41 69.3043 366.922 73.2307 368.713 75.0429C369.736 75.647 370.76 76.251 372.039 76.251C374.854 76.251 384.576 71.1165 385.856 68.3982C386.111 67.7941 387.391 68.7002 386.111 71.1165C384.832 73.8348 378.947 79.2713 373.83 79.2713C372.039 79.2713 369.736 78.6673 367.945 77.1571C366.666 75.949 365.643 74.7409 364.875 73.5327C364.363 72.3246 363.852 71.4185 363.596 70.5124C359.502 74.4388 357.199 76.553 354.897 78.3652C354.129 78.6673 352.594 77.7612 351.826 76.5531C351.059 74.1368 350.291 71.7205 349.524 67.7941C344.918 71.4185 342.36 76.8551 339.033 80.4795C338.266 81.0835 335.963 78.9693 335.707 77.7612C335.707 75.949 335.707 74.4388 335.707 72.9287Z" fill="#FEEEEE"/>
<path d="M384.32 75.6469C384.064 74.7408 383.809 73.5327 383.809 72.6266C383.809 68.0961 386.367 63.2636 390.973 62.9616C393.787 62.9616 396.346 66.2839 395.322 69.3043C394.043 72.6266 390.205 75.3449 387.135 75.3449C387.391 77.4591 390.461 80.7815 393.787 80.7815C402.23 80.7815 408.371 73.2307 412.209 68.7002C414.256 66.2839 414 68.7002 412.721 71.4185C410.162 77.4591 404.533 82.5937 398.393 83.1977C393.02 83.4998 386.111 82.2916 384.32 75.6469ZM387.135 72.6266C390.973 70.5124 393.531 67.7941 392.508 66.586C390.461 64.4717 386.879 69.9083 387.135 72.6266Z" fill="#FEEEEE"/>
<path d="M412.465 79.2713C413.232 79.5734 414.256 79.5734 415.535 79.5734C418.35 79.5734 421.932 78.9693 424.234 78.3652C421.932 76.8551 418.605 75.0429 416.814 73.8348C414.512 72.3246 411.953 71.1165 411.697 68.0962C410.93 62.3575 420.652 59.0352 425.258 58.4311C426.793 58.1291 428.584 60.2433 427.816 61.1494C424.49 62.6596 416.303 64.4718 415.279 67.19C414.768 68.7002 416.814 69.6063 418.605 71.1165C421.932 73.2307 424.746 75.0429 426.537 76.5531C428.584 78.6673 426.793 81.3856 424.49 82.2917C422.955 82.8957 420.652 83.1978 418.094 83.1978C415.791 83.1978 413.744 82.8957 412.465 82.2917C411.441 81.3856 410.674 78.6673 412.465 79.2713Z" fill="#FEEEEE"/>
</svg>
