<svg width="429" height="109" viewBox="0 0 429 109" fill="none" xmlns="http://www.w3.org/2000/svg">
<path d="M176.695 103.76C176.972 103.76 177.218 103.714 177.435 103.62C177.655 103.527 177.84 103.397 177.99 103.23C178.143 103.064 178.26 102.864 178.34 102.63C178.42 102.394 178.46 102.132 178.46 101.845V97.5054H179.625V101.845C179.625 102.269 179.557 102.66 179.42 103.02C179.287 103.38 179.093 103.692 178.84 103.955C178.587 104.215 178.278 104.42 177.915 104.57C177.555 104.717 177.148 104.79 176.695 104.79C176.242 104.79 175.833 104.717 175.47 104.57C175.11 104.42 174.803 104.215 174.55 103.955C174.297 103.692 174.102 103.38 173.965 103.02C173.832 102.66 173.765 102.269 173.765 101.845V97.5054H174.935V101.84C174.935 102.127 174.975 102.389 175.055 102.625C175.135 102.859 175.25 103.06 175.4 103.23C175.55 103.397 175.733 103.527 175.95 103.62C176.17 103.714 176.418 103.76 176.695 103.76ZM183.723 104.705H182.548V97.5054H183.723V104.705ZM187.213 104.76C187.163 104.897 187.083 104.999 186.973 105.065C186.863 105.135 186.752 105.17 186.638 105.17H186.183L189.143 97.6904C189.19 97.5671 189.262 97.4721 189.358 97.4054C189.458 97.3388 189.572 97.3054 189.698 97.3054H190.153L187.213 104.76ZM195.468 103.76C195.745 103.76 195.991 103.714 196.208 103.62C196.428 103.527 196.613 103.397 196.763 103.23C196.916 103.064 197.033 102.864 197.113 102.63C197.193 102.394 197.233 102.132 197.233 101.845V97.5054H198.398V101.845C198.398 102.269 198.33 102.66 198.193 103.02C198.06 103.38 197.866 103.692 197.613 103.955C197.36 104.215 197.051 104.42 196.688 104.57C196.328 104.717 195.921 104.79 195.468 104.79C195.015 104.79 194.606 104.717 194.243 104.57C193.883 104.42 193.576 104.215 193.323 103.955C193.07 103.692 192.875 103.38 192.738 103.02C192.605 102.66 192.538 102.269 192.538 101.845V97.5054H193.708V101.84C193.708 102.127 193.748 102.389 193.828 102.625C193.908 102.859 194.023 103.06 194.173 103.23C194.323 103.397 194.506 103.527 194.723 103.62C194.943 103.714 195.191 103.76 195.468 103.76ZM207.006 104.705H205.841C205.761 104.705 205.696 104.684 205.646 104.64C205.596 104.597 205.556 104.549 205.526 104.495L203.736 101.61C203.722 101.65 203.707 101.689 203.691 101.725C203.677 101.762 203.661 101.797 203.641 101.83L201.911 104.495C201.874 104.549 201.832 104.597 201.786 104.64C201.742 104.684 201.684 104.705 201.611 104.705H200.521L202.951 101.005L200.621 97.5054H201.781C201.864 97.5054 201.924 97.5188 201.961 97.5454C202.001 97.5688 202.036 97.6054 202.066 97.6554L203.816 100.405C203.832 100.365 203.849 100.325 203.866 100.285C203.882 100.245 203.904 100.204 203.931 100.16L205.561 97.6754C205.594 97.6188 205.631 97.5771 205.671 97.5504C205.711 97.5204 205.759 97.5054 205.816 97.5054H206.931L204.581 100.955L207.006 104.705ZM219.332 101.105C219.332 101.639 219.246 102.127 219.072 102.57C218.899 103.01 218.654 103.389 218.337 103.705C218.024 104.022 217.646 104.269 217.202 104.445C216.762 104.619 216.272 104.705 215.732 104.705H213.012V97.5054H215.732C216.272 97.5054 216.762 97.5938 217.202 97.7704C217.646 97.9438 218.024 98.1888 218.337 98.5054C218.654 98.8221 218.899 99.2021 219.072 99.6454C219.246 100.085 219.332 100.572 219.332 101.105ZM218.137 101.105C218.137 100.692 218.081 100.32 217.967 99.9904C217.857 99.6604 217.697 99.3821 217.487 99.1554C217.281 98.9288 217.029 98.7554 216.732 98.6354C216.436 98.5121 216.102 98.4504 215.732 98.4504H214.187V103.76H215.732C216.102 103.76 216.436 103.7 216.732 103.58C217.029 103.46 217.281 103.287 217.487 103.06C217.697 102.83 217.857 102.552 217.967 102.225C218.081 101.895 218.137 101.522 218.137 101.105ZM226.415 103.76L226.41 104.705H221.92V97.5054H226.41V98.4504H223.095V100.62H225.745V101.535H223.095V103.76H226.415ZM232.747 98.7354C232.71 98.7954 232.672 98.8404 232.632 98.8704C232.592 98.8971 232.542 98.9104 232.482 98.9104C232.418 98.9104 232.347 98.8838 232.267 98.8304C232.19 98.7771 232.093 98.7188 231.977 98.6554C231.863 98.5888 231.728 98.5288 231.572 98.4754C231.415 98.4188 231.228 98.3904 231.012 98.3904C230.812 98.3904 230.635 98.4154 230.482 98.4654C230.332 98.5154 230.205 98.5854 230.102 98.6754C229.998 98.7654 229.92 98.8721 229.867 98.9954C229.817 99.1154 229.792 99.2471 229.792 99.3904C229.792 99.5738 229.84 99.7271 229.937 99.8504C230.033 99.9704 230.16 100.074 230.317 100.16C230.477 100.247 230.658 100.324 230.862 100.39C231.065 100.454 231.272 100.522 231.482 100.595C231.695 100.669 231.903 100.752 232.107 100.845C232.31 100.939 232.49 101.057 232.647 101.2C232.807 101.344 232.935 101.519 233.032 101.725C233.128 101.932 233.177 102.184 233.177 102.48C233.177 102.8 233.122 103.1 233.012 103.38C232.902 103.66 232.742 103.905 232.532 104.115C232.325 104.322 232.068 104.485 231.762 104.605C231.458 104.725 231.112 104.785 230.722 104.785C230.492 104.785 230.267 104.762 230.047 104.715C229.83 104.672 229.622 104.61 229.422 104.53C229.225 104.447 229.04 104.347 228.867 104.23C228.693 104.114 228.538 103.984 228.402 103.84L228.742 103.28C228.772 103.234 228.81 103.197 228.857 103.17C228.903 103.144 228.955 103.13 229.012 103.13C229.088 103.13 229.173 103.167 229.267 103.24C229.36 103.31 229.472 103.389 229.602 103.475C229.735 103.559 229.895 103.637 230.082 103.71C230.268 103.78 230.492 103.815 230.752 103.815C231.175 103.815 231.502 103.712 231.732 103.505C231.965 103.299 232.082 103.014 232.082 102.65C232.082 102.447 232.033 102.282 231.937 102.155C231.84 102.025 231.712 101.917 231.552 101.83C231.395 101.744 231.215 101.67 231.012 101.61C230.808 101.55 230.602 101.487 230.392 101.42C230.182 101.35 229.975 101.27 229.772 101.18C229.568 101.087 229.387 100.967 229.227 100.82C229.07 100.67 228.943 100.487 228.847 100.27C228.75 100.05 228.702 99.7771 228.702 99.4504C228.702 99.1904 228.752 98.9388 228.852 98.6954C228.955 98.4521 229.103 98.2371 229.297 98.0504C229.493 97.8604 229.735 97.7088 230.022 97.5954C230.308 97.4821 230.635 97.4254 231.002 97.4254C231.415 97.4254 231.793 97.4904 232.137 97.6204C232.483 97.7504 232.782 97.9354 233.032 98.1754L232.747 98.7354ZM236.916 104.705H235.741V97.5054H236.916V104.705ZM245.816 101.16V104.01C245.1 104.527 244.266 104.785 243.316 104.785C242.733 104.785 242.205 104.695 241.731 104.515C241.261 104.332 240.86 104.079 240.526 103.755C240.193 103.429 239.936 103.04 239.756 102.59C239.576 102.14 239.486 101.645 239.486 101.105C239.486 100.562 239.573 100.065 239.746 99.6154C239.92 99.1621 240.168 98.7738 240.491 98.4504C240.815 98.1238 241.205 97.8721 241.661 97.6954C242.118 97.5154 242.631 97.4254 243.201 97.4254C243.491 97.4254 243.76 97.4488 244.006 97.4954C244.256 97.5388 244.488 97.6004 244.701 97.6804C244.915 97.7604 245.111 97.8571 245.291 97.9704C245.471 98.0838 245.636 98.2104 245.786 98.3504L245.451 98.8854C245.398 98.9688 245.33 99.0204 245.246 99.0404C245.163 99.0604 245.073 99.0404 244.976 98.9804C244.88 98.9238 244.776 98.8638 244.666 98.8004C244.56 98.7371 244.436 98.6788 244.296 98.6254C244.156 98.5688 243.995 98.5238 243.811 98.4904C243.628 98.4538 243.411 98.4354 243.161 98.4354C242.781 98.4354 242.438 98.4988 242.131 98.6254C241.828 98.7488 241.568 98.9271 241.351 99.1604C241.135 99.3904 240.968 99.6704 240.851 100C240.735 100.33 240.676 100.699 240.676 101.105C240.676 101.535 240.738 101.92 240.861 102.26C240.985 102.597 241.16 102.884 241.386 103.12C241.613 103.354 241.886 103.532 242.206 103.655C242.53 103.779 242.89 103.84 243.286 103.84C243.583 103.84 243.846 103.809 244.076 103.745C244.31 103.682 244.538 103.594 244.761 103.48V102.05H243.756C243.68 102.05 243.62 102.03 243.576 101.99C243.533 101.947 243.511 101.892 243.511 101.825V101.16H245.816ZM254.457 97.5054V104.705H253.862C253.772 104.705 253.695 104.69 253.632 104.66C253.568 104.627 253.508 104.574 253.452 104.5L249.497 99.4204C249.507 99.5171 249.513 99.6138 249.517 99.7104C249.523 99.8038 249.527 99.8904 249.527 99.9704V104.705H248.497V97.5054H249.107C249.157 97.5054 249.198 97.5088 249.232 97.5154C249.268 97.5188 249.302 97.5271 249.332 97.5404C249.362 97.5538 249.39 97.5738 249.417 97.6004C249.443 97.6271 249.472 97.6604 249.502 97.7004L253.462 102.785C253.452 102.682 253.443 102.58 253.437 102.48C253.433 102.38 253.432 102.287 253.432 102.2V97.5054H254.457ZM261.968 103.76L261.963 104.705H257.473V97.5054H261.963V98.4504H258.648V100.62H261.298V101.535H258.648V103.76H261.968ZM266.624 100.955C266.891 100.955 267.124 100.924 267.324 100.86C267.524 100.794 267.691 100.702 267.824 100.585C267.958 100.469 268.058 100.33 268.124 100.17C268.191 100.007 268.224 99.8271 268.224 99.6304C268.224 99.2371 268.094 98.9371 267.834 98.7304C267.574 98.5238 267.181 98.4204 266.654 98.4204H265.704V100.955H266.624ZM270.014 104.705H268.969C268.763 104.705 268.613 104.625 268.519 104.465L266.839 102.04C266.783 101.957 266.721 101.897 266.654 101.86C266.588 101.824 266.488 101.805 266.354 101.805H265.704V104.705H264.534V97.5054H266.654C267.128 97.5054 267.534 97.5538 267.874 97.6504C268.218 97.7471 268.499 97.8854 268.719 98.0654C268.939 98.2421 269.101 98.4554 269.204 98.7054C269.311 98.9554 269.364 99.2338 269.364 99.5404C269.364 99.7904 269.326 100.024 269.249 100.24C269.176 100.457 269.068 100.654 268.924 100.83C268.784 101.007 268.611 101.16 268.404 101.29C268.198 101.42 267.963 101.522 267.699 101.595C267.843 101.682 267.966 101.804 268.069 101.96L270.014 104.705ZM277.512 101.255C277.206 101.435 276.979 101.645 276.832 101.885C276.686 102.125 276.612 102.385 276.612 102.665C276.612 102.862 276.647 103.039 276.717 103.195C276.791 103.349 276.886 103.479 277.002 103.585C277.122 103.692 277.259 103.774 277.412 103.83C277.569 103.887 277.731 103.915 277.897 103.915C278.227 103.915 278.527 103.86 278.797 103.75C279.067 103.637 279.307 103.485 279.517 103.295L277.512 101.255ZM282.242 104.705H281.197C281.141 104.705 281.089 104.702 281.042 104.695C280.999 104.689 280.957 104.679 280.917 104.665C280.881 104.649 280.844 104.627 280.807 104.6C280.774 104.574 280.737 104.539 280.697 104.495L280.097 103.885C279.781 104.165 279.421 104.385 279.017 104.545C278.617 104.705 278.182 104.785 277.712 104.785C277.439 104.785 277.171 104.739 276.907 104.645C276.647 104.552 276.414 104.419 276.207 104.245C276.001 104.069 275.834 103.855 275.707 103.605C275.581 103.352 275.517 103.067 275.517 102.75C275.517 102.52 275.554 102.304 275.627 102.1C275.704 101.897 275.809 101.709 275.942 101.535C276.079 101.359 276.239 101.2 276.422 101.06C276.606 100.92 276.807 100.8 277.027 100.7C276.837 100.447 276.699 100.2 276.612 99.9604C276.526 99.7204 276.482 99.4771 276.482 99.2304C276.482 98.9838 276.527 98.7504 276.617 98.5304C276.707 98.3104 276.837 98.1188 277.007 97.9554C277.181 97.7921 277.389 97.6638 277.632 97.5704C277.879 97.4738 278.157 97.4254 278.467 97.4254C278.747 97.4254 278.999 97.4688 279.222 97.5554C279.449 97.6421 279.642 97.7588 279.802 97.9054C279.966 98.0521 280.092 98.2204 280.182 98.4104C280.276 98.6004 280.331 98.7971 280.347 99.0004L279.667 99.1404C279.607 99.1538 279.551 99.1454 279.497 99.1154C279.447 99.0854 279.409 99.0354 279.382 98.9654C279.356 98.8788 279.317 98.7938 279.267 98.7104C279.217 98.6238 279.156 98.5471 279.082 98.4804C279.009 98.4138 278.921 98.3604 278.817 98.3204C278.717 98.2771 278.601 98.2554 278.467 98.2554C278.314 98.2554 278.176 98.2804 278.052 98.3304C277.932 98.3804 277.829 98.4504 277.742 98.5404C277.659 98.6271 277.594 98.7288 277.547 98.8454C277.504 98.9621 277.482 99.0871 277.482 99.2204C277.482 99.3271 277.494 99.4304 277.517 99.5304C277.541 99.6304 277.579 99.7304 277.632 99.8304C277.686 99.9304 277.752 100.034 277.832 100.14C277.916 100.244 278.016 100.355 278.132 100.475L280.117 102.52C280.237 102.3 280.332 102.072 280.402 101.835C280.472 101.595 280.519 101.354 280.542 101.11C280.549 101.04 280.572 100.985 280.612 100.945C280.652 100.902 280.706 100.88 280.772 100.88H281.437C281.434 101.297 281.371 101.699 281.247 102.085C281.127 102.469 280.957 102.825 280.737 103.155L282.242 104.705ZM289.415 98.4504V100.755H292.23V101.7H289.415V104.705H288.24V97.5054H292.73V98.4504H289.415ZM297.284 100.955C297.551 100.955 297.784 100.924 297.984 100.86C298.184 100.794 298.351 100.702 298.484 100.585C298.618 100.469 298.718 100.33 298.784 100.17C298.851 100.007 298.884 99.8271 298.884 99.6304C298.884 99.2371 298.754 98.9371 298.494 98.7304C298.234 98.5238 297.841 98.4204 297.314 98.4204H296.364V100.955H297.284ZM300.674 104.705H299.629C299.423 104.705 299.273 104.625 299.179 104.465L297.499 102.04C297.443 101.957 297.381 101.897 297.314 101.86C297.248 101.824 297.148 101.805 297.014 101.805H296.364V104.705H295.194V97.5054H297.314C297.788 97.5054 298.194 97.5538 298.534 97.6504C298.878 97.7471 299.159 97.8854 299.379 98.0654C299.599 98.2421 299.761 98.4554 299.864 98.7054C299.971 98.9554 300.024 99.2338 300.024 99.5404C300.024 99.7904 299.986 100.024 299.909 100.24C299.836 100.457 299.728 100.654 299.584 100.83C299.444 101.007 299.271 101.16 299.064 101.29C298.858 101.42 298.623 101.522 298.359 101.595C298.503 101.682 298.626 101.804 298.729 101.96L300.674 104.705ZM309.519 101.105C309.519 101.639 309.433 102.13 309.259 102.58C309.086 103.03 308.841 103.419 308.524 103.745C308.211 104.069 307.833 104.322 307.389 104.505C306.949 104.689 306.459 104.78 305.919 104.78C305.383 104.78 304.893 104.689 304.449 104.505C304.009 104.322 303.631 104.069 303.314 103.745C302.998 103.419 302.753 103.03 302.579 102.58C302.406 102.13 302.319 101.639 302.319 101.105C302.319 100.572 302.406 100.08 302.579 99.6304C302.753 99.1804 302.998 98.7921 303.314 98.4654C303.631 98.1388 304.009 97.8838 304.449 97.7004C304.893 97.5171 305.383 97.4254 305.919 97.4254C306.459 97.4254 306.949 97.5171 307.389 97.7004C307.833 97.8838 308.211 98.1388 308.524 98.4654C308.841 98.7921 309.086 99.1804 309.259 99.6304C309.433 100.08 309.519 100.572 309.519 101.105ZM308.324 101.105C308.324 100.692 308.268 100.32 308.154 99.9904C308.044 99.6604 307.884 99.3804 307.674 99.1504C307.468 98.9204 307.216 98.7438 306.919 98.6204C306.623 98.4971 306.289 98.4354 305.919 98.4354C305.553 98.4354 305.221 98.4971 304.924 98.6204C304.628 98.7438 304.374 98.9204 304.164 99.1504C303.954 99.3804 303.793 99.6604 303.679 99.9904C303.566 100.32 303.509 100.692 303.509 101.105C303.509 101.522 303.566 101.895 303.679 102.225C303.793 102.555 303.954 102.835 304.164 103.065C304.374 103.292 304.628 103.467 304.924 103.59C305.221 103.71 305.553 103.77 305.919 103.77C306.289 103.77 306.623 103.71 306.919 103.59C307.216 103.467 307.468 103.292 307.674 103.065C307.884 102.835 308.044 102.555 308.154 102.225C308.268 101.895 308.324 101.522 308.324 101.105ZM318.061 97.5054V104.705H317.466C317.376 104.705 317.299 104.69 317.236 104.66C317.173 104.627 317.113 104.574 317.056 104.5L313.101 99.4204C313.111 99.5171 313.118 99.6138 313.121 99.7104C313.128 99.8038 313.131 99.8904 313.131 99.9704V104.705H312.101V97.5054H312.711C312.761 97.5054 312.803 97.5088 312.836 97.5154C312.873 97.5188 312.906 97.5271 312.936 97.5404C312.966 97.5538 312.994 97.5738 313.021 97.6004C313.048 97.6271 313.076 97.6604 313.106 97.7004L317.066 102.785C317.056 102.682 317.048 102.58 317.041 102.48C317.038 102.38 317.036 102.287 317.036 102.2V97.5054H318.061ZM326.032 98.4804H323.787V104.705H322.622V98.4804H320.372V97.5054H326.032V98.4804ZM327.468 101.24H330.003V102.15H327.468V101.24ZM337.244 103.76L337.239 104.705H332.749V97.5054H337.239V98.4504H333.924V100.62H336.574V101.535H333.924V103.76H337.244ZM345.771 97.5054V104.705H345.176C345.086 104.705 345.009 104.69 344.946 104.66C344.883 104.627 344.823 104.574 344.766 104.5L340.811 99.4204C340.821 99.5171 340.828 99.6138 340.831 99.7104C340.838 99.8038 340.841 99.8904 340.841 99.9704V104.705H339.811V97.5054H340.421C340.471 97.5054 340.513 97.5088 340.546 97.5154C340.583 97.5188 340.616 97.5271 340.646 97.5404C340.676 97.5538 340.704 97.5738 340.731 97.6004C340.758 97.6271 340.786 97.6604 340.816 97.7004L344.776 102.785C344.766 102.682 344.758 102.58 344.751 102.48C344.748 102.38 344.746 102.287 344.746 102.2V97.5054H345.771ZM355.107 101.105C355.107 101.639 355.02 102.127 354.847 102.57C354.673 103.01 354.428 103.389 354.112 103.705C353.798 104.022 353.42 104.269 352.977 104.445C352.537 104.619 352.047 104.705 351.507 104.705H348.787V97.5054H351.507C352.047 97.5054 352.537 97.5938 352.977 97.7704C353.42 97.9438 353.798 98.1888 354.112 98.5054C354.428 98.8221 354.673 99.2021 354.847 99.6454C355.02 100.085 355.107 100.572 355.107 101.105ZM353.912 101.105C353.912 100.692 353.855 100.32 353.742 99.9904C353.632 99.6604 353.472 99.3821 353.262 99.1554C353.055 98.9288 352.803 98.7554 352.507 98.6354C352.21 98.5121 351.877 98.4504 351.507 98.4504H349.962V103.76H351.507C351.877 103.76 352.21 103.7 352.507 103.58C352.803 103.46 353.055 103.287 353.262 103.06C353.472 102.83 353.632 102.552 353.742 102.225C353.855 101.895 353.912 101.522 353.912 101.105ZM367.804 101.105C367.804 101.639 367.718 102.127 367.544 102.57C367.371 103.01 367.126 103.389 366.809 103.705C366.496 104.022 366.118 104.269 365.674 104.445C365.234 104.619 364.744 104.705 364.204 104.705H361.484V97.5054H364.204C364.744 97.5054 365.234 97.5938 365.674 97.7704C366.118 97.9438 366.496 98.1888 366.809 98.5054C367.126 98.8221 367.371 99.2021 367.544 99.6454C367.718 100.085 367.804 100.572 367.804 101.105ZM366.609 101.105C366.609 100.692 366.553 100.32 366.439 99.9904C366.329 99.6604 366.169 99.3821 365.959 99.1554C365.753 98.9288 365.501 98.7554 365.204 98.6354C364.908 98.5121 364.574 98.4504 364.204 98.4504H362.659V103.76H364.204C364.574 103.76 364.908 103.7 365.204 103.58C365.501 103.46 365.753 103.287 365.959 103.06C366.169 102.83 366.329 102.552 366.439 102.225C366.553 101.895 366.609 101.522 366.609 101.105ZM374.887 103.76L374.882 104.705H370.392V97.5054H374.882V98.4504H371.567V100.62H374.217V101.535H371.567V103.76H374.887ZM383.478 97.5054L380.558 104.705H379.503L376.583 97.5054H377.518C377.622 97.5054 377.705 97.5321 377.768 97.5854C377.832 97.6354 377.88 97.6988 377.913 97.7754L379.768 102.47C379.868 102.734 379.96 103.037 380.043 103.38C380.08 103.21 380.118 103.049 380.158 102.895C380.202 102.742 380.248 102.6 380.298 102.47L382.148 97.7754C382.175 97.7088 382.222 97.6471 382.288 97.5904C382.355 97.5338 382.438 97.5054 382.538 97.5054H383.478ZM390.114 103.76L390.109 104.705H385.619V97.5054H390.109V98.4504H386.794V100.62H389.444V101.535H386.794V103.76H390.114ZM396.84 103.725V104.705H392.68V97.5054H393.85V103.725H396.84ZM405.618 101.105C405.618 101.639 405.532 102.13 405.358 102.58C405.185 103.03 404.94 103.419 404.623 103.745C404.31 104.069 403.932 104.322 403.488 104.505C403.048 104.689 402.558 104.78 402.018 104.78C401.482 104.78 400.992 104.689 400.548 104.505C400.108 104.322 399.73 104.069 399.413 103.745C399.097 103.419 398.852 103.03 398.678 102.58C398.505 102.13 398.418 101.639 398.418 101.105C398.418 100.572 398.505 100.08 398.678 99.6304C398.852 99.1804 399.097 98.7921 399.413 98.4654C399.73 98.1388 400.108 97.8838 400.548 97.7004C400.992 97.5171 401.482 97.4254 402.018 97.4254C402.558 97.4254 403.048 97.5171 403.488 97.7004C403.932 97.8838 404.31 98.1388 404.623 98.4654C404.94 98.7921 405.185 99.1804 405.358 99.6304C405.532 100.08 405.618 100.572 405.618 101.105ZM404.423 101.105C404.423 100.692 404.367 100.32 404.253 99.9904C404.143 99.6604 403.983 99.3804 403.773 99.1504C403.567 98.9204 403.315 98.7438 403.018 98.6204C402.722 98.4971 402.388 98.4354 402.018 98.4354C401.652 98.4354 401.32 98.4971 401.023 98.6204C400.727 98.7438 400.473 98.9204 400.263 99.1504C400.053 99.3804 399.892 99.6604 399.778 99.9904C399.665 100.32 399.608 100.692 399.608 101.105C399.608 101.522 399.665 101.895 399.778 102.225C399.892 102.555 400.053 102.835 400.263 103.065C400.473 103.292 400.727 103.467 401.023 103.59C401.32 103.71 401.652 103.77 402.018 103.77C402.388 103.77 402.722 103.71 403.018 103.59C403.315 103.467 403.567 103.292 403.773 103.065C403.983 102.835 404.143 102.555 404.253 102.225C404.367 101.895 404.423 101.522 404.423 101.105ZM410.44 101.175C410.7 101.175 410.929 101.142 411.125 101.075C411.325 101.009 411.49 100.915 411.62 100.795C411.754 100.672 411.854 100.524 411.92 100.35C411.987 100.177 412.02 99.9838 412.02 99.7704C412.02 99.5604 411.987 99.3721 411.92 99.2054C411.857 99.0388 411.76 98.8971 411.63 98.7804C411.5 98.6638 411.335 98.5754 411.135 98.5154C410.939 98.4521 410.707 98.4204 410.44 98.4204H409.37V101.175H410.44ZM410.44 97.5054C410.91 97.5054 411.317 97.5604 411.66 97.6704C412.007 97.7804 412.292 97.9354 412.515 98.1354C412.742 98.3321 412.91 98.5704 413.02 98.8504C413.13 99.1271 413.185 99.4338 413.185 99.7704C413.185 100.114 413.127 100.429 413.01 100.715C412.894 100.999 412.72 101.244 412.49 101.45C412.26 101.654 411.974 101.814 411.63 101.93C411.29 102.044 410.894 102.1 410.44 102.1H409.37V104.705H408.2V97.5054H410.44ZM420.099 103.76L420.094 104.705H415.604V97.5054H420.094V98.4504H416.779V100.62H419.429V101.535H416.779V103.76H420.099ZM424.756 100.955C425.022 100.955 425.256 100.924 425.456 100.86C425.656 100.794 425.822 100.702 425.956 100.585C426.089 100.469 426.189 100.33 426.256 100.17C426.322 100.007 426.356 99.8271 426.356 99.6304C426.356 99.2371 426.226 98.9371 425.966 98.7304C425.706 98.5238 425.312 98.4204 424.786 98.4204H423.836V100.955H424.756ZM428.146 104.705H427.101C426.894 104.705 426.744 104.625 426.651 104.465L424.971 102.04C424.914 101.957 424.852 101.897 424.786 101.86C424.719 101.824 424.619 101.805 424.486 101.805H423.836V104.705H422.666V97.5054H424.786C425.259 97.5054 425.666 97.5538 426.006 97.6504C426.349 97.7471 426.631 97.8854 426.851 98.0654C427.071 98.2421 427.232 98.4554 427.336 98.7054C427.442 98.9554 427.496 99.2338 427.496 99.5404C427.496 99.7904 427.457 100.024 427.381 100.24C427.307 100.457 427.199 100.654 427.056 100.83C426.916 101.007 426.742 101.16 426.536 101.29C426.329 101.42 426.094 101.522 425.831 101.595C425.974 101.682 426.097 101.804 426.201 101.96L428.146 104.705Z" fill="#FEEEEE"/>
<path d="M4.60547 32.3429C1.79101 31.545 0 27.8212 0 23.8315C0 21.9696 0.511719 20.1077 1.2793 18.7778C7.16406 9.73444 21.748 6.54265 35.5644 5.47872C40.4258 4.94676 45.543 4.41479 51.1719 4.41479C51.6836 2.55292 51.9394 0.957024 52.707 0.159077C53.2187 -0.106905 53.9863 -0.106903 55.0098 0.691043C55.7773 1.22301 56.2891 2.28694 55.7773 2.55292C55.5215 2.8189 55.2656 3.61685 55.0098 4.14881H59.6152C65.5 4.14881 71.3848 4.14881 77.2695 4.14881C85.457 4.14881 93.9004 3.88283 102.088 2.55292C107.717 1.75497 103.623 5.74471 99.5293 6.27667C93.1328 7.3406 84.6894 7.3406 75.7344 7.3406C71.6406 7.3406 67.291 7.3406 63.1973 7.3406C60.3828 7.3406 57.8242 7.3406 55.2656 7.3406H54.2422C53.7305 10.0004 52.9629 13.1922 52.707 16.916C51.6836 24.8954 50.916 35.0027 50.1484 45.1101C49.125 55.7494 48.6133 68.5165 48.6133 76.7619V79.9537C48.6133 82.6136 48.6133 85.0074 48.8691 86.8693C48.8691 90.327 49.125 91.391 49.125 91.657L49.3809 92.1889C49.6367 92.7209 49.125 92.7209 48.6133 92.7209C47.8457 92.7209 46.8223 91.9229 46.3105 91.125V90.859C45.7988 89.7951 45.543 87.6672 45.543 85.2734C45.543 83.6775 45.2871 81.8156 45.2871 79.6878C45.2871 78.3578 45.2871 76.762 45.2871 75.1661C45.2871 67.1866 46.0547 54.1535 46.5664 44.0461C47.334 33.9388 48.1016 23.8315 49.125 15.852C49.6367 12.9262 49.8926 10.2664 50.1484 8.13854C44.7754 8.40452 41.1934 8.67051 37.6113 8.93649C23.5391 10.2664 9.21094 12.6602 3.58203 20.6397C2.81445 22.2356 2.30273 23.5655 2.30273 24.6294C2.30273 26.7573 3.83789 28.6192 7.67578 32.0769C7.41992 32.8749 6.14062 32.8749 4.60547 32.3429Z" fill="#FEEEEE"/>
<path d="M66.5231 68.5165V55.2174C66.5231 42.4502 67.0348 31.013 67.5465 19.0438C67.5465 17.7139 71.1286 18.7778 71.1286 20.3737C69.8493 32.3429 69.8493 44.3121 69.5934 57.0793V65.3247C72.4079 62.1329 80.0836 54.6854 85.2008 56.2813C86.4801 56.5473 87.7594 57.8772 88.2711 58.9411C88.527 61.069 87.7594 63.7288 88.527 66.3886C89.5504 66.9206 90.318 66.9206 91.3415 66.9206C95.9469 66.9206 105.67 62.9309 108.484 58.9411C109.252 57.8772 108.74 60.803 107.461 62.9309C105.414 66.1227 98.7614 69.5804 93.1325 69.5804C91.0856 69.5804 89.2946 69.0485 87.2477 67.7186C85.2008 66.1227 84.6891 63.7288 84.6891 61.8669C84.6891 60.537 84.945 59.4731 84.945 58.6752C79.8278 58.4092 70.361 68.2505 70.1051 72.5062C70.1051 73.8361 67.2907 72.7722 67.0348 71.1763C66.5231 71.4423 66.5231 70.3784 66.5231 68.5165Z" fill="#FEEEEE"/>
<path d="M103.623 64.5268C103.623 62.399 104.646 60.5371 106.949 58.9412C109.252 57.3453 112.322 56.5474 115.648 56.5474C118.207 56.5474 120.766 57.0793 122.812 58.1433L124.348 56.0154C124.859 54.9515 127.93 57.0793 127.418 58.1433C126.906 59.4732 126.139 61.3351 125.883 62.931C125.883 64.5269 126.139 66.3887 127.93 66.9207C132.535 67.7186 140.211 63.1969 143.537 59.4732C145.072 57.8773 146.352 60.2711 141.49 65.3248C139.187 67.7186 133.047 70.6445 129.209 69.5805C126.139 68.7826 124.092 67.1867 122.812 63.7289C120.254 66.1227 114.369 70.9104 109.764 70.9104C108.484 70.9104 107.461 70.6444 106.437 69.8465C104.646 68.2506 103.623 66.6547 103.623 64.5268ZM121.277 60.0051C120.51 59.7392 119.23 59.4732 117.695 59.4732C113.09 59.4732 107.205 61.3351 106.437 65.5908C106.182 66.6547 106.693 67.7186 107.973 67.7186C112.322 67.1867 118.207 63.4629 121.277 60.0051Z" fill="#FEEEEE"/>
<path d="M159.401 63.9948C156.842 67.7185 152.748 71.4423 149.678 71.4423C146.608 71.4423 143.793 69.0484 142.77 66.1226C142.258 64.7927 142.002 63.1968 142.002 61.6009C142.002 60.271 142.258 58.9411 142.514 57.8772C142.77 56.8132 143.537 56.0153 144.305 55.7493C144.817 55.4833 145.84 56.0153 146.608 56.8132C147.375 57.6112 147.375 58.4091 146.864 58.6751C146.608 58.6751 146.096 59.2071 145.584 60.271C145.328 61.069 145.072 62.3989 145.072 63.7288C145.328 65.3247 145.328 67.9845 146.864 68.7824C150.701 70.9103 158.633 60.005 158.633 57.0792C158.633 56.8132 158.889 56.8132 158.889 56.8132C158.633 56.8132 158.889 56.8132 158.889 56.5473C158.889 56.2813 159.401 56.2813 159.656 56.2813C160.424 56.2813 161.959 57.3452 162.215 58.4091C162.215 59.2071 162.471 60.271 162.471 61.069C162.983 65.0587 162.983 69.0484 162.983 72.5062V73.5701L162.727 82.3475C161.959 94.0508 159.656 106.818 151.725 108.414C149.422 108.946 145.84 107.35 143.281 104.69C140.979 102.03 139.444 98.8384 139.955 95.3807C141.235 88.1991 148.399 78.8898 157.61 71.9742L159.912 70.3783L159.401 63.9948ZM159.912 74.3681L157.865 76.4959C150.701 83.4115 144.561 90.859 143.537 97.2425C143.026 100.168 144.305 102.562 145.328 103.892C146.608 105.222 148.399 106.02 149.422 105.754C156.33 103.892 159.912 87.4012 159.912 74.3681Z" fill="#FEEEEE"/>
<path d="M166.053 71.9743C166.82 72.2402 167.844 72.2403 169.123 72.2403C171.938 72.2403 175.52 71.7083 177.822 71.1763C175.52 69.8464 172.193 68.2505 170.402 67.1866C168.1 65.8567 165.541 64.7927 165.285 62.1329C164.518 57.0792 174.24 54.1534 178.846 53.6215C180.381 53.3555 182.172 55.2174 181.404 56.0153C178.078 57.3452 169.891 58.6751 168.867 61.335C168.355 62.6649 170.402 63.4628 172.193 64.7927C175.52 66.6546 178.334 68.2505 180.125 69.5804C182.172 71.4423 180.381 73.8361 178.078 74.6341C176.543 75.1661 174.24 75.432 171.682 75.432C169.379 75.432 167.332 75.1661 166.053 74.6341C165.029 73.8361 164.262 71.4423 166.053 71.9743Z" fill="#FEEEEE"/>
<path d="M209.293 72.7723C203.92 72.2403 201.361 65.8568 201.105 65.3248C198.035 67.7186 193.941 71.7084 189.336 71.7084C187.033 71.7084 184.474 70.1125 183.451 68.2506C182.939 67.1867 182.683 66.1228 182.683 65.0588C182.683 63.4629 183.451 61.867 184.986 60.8031C186.777 59.4732 189.592 58.4093 193.174 58.4093C195.22 58.4093 197.779 58.6752 200.082 59.4732L201.361 59.7392C202.64 57.8773 202.896 57.8773 202.896 57.6113C203.408 56.5474 206.478 58.6752 205.967 59.7392L205.711 60.0052C204.687 61.601 204.431 63.1969 204.431 64.7928C204.431 66.9207 205.199 68.5166 207.246 69.3145C210.828 70.6445 215.689 69.5805 215.689 70.1125C215.945 70.6445 212.875 73.3043 209.293 72.7723ZM199.57 61.867L198.547 61.6011C197.267 61.3351 196.244 61.3351 194.965 61.3351C192.406 61.3351 189.847 61.867 187.801 63.4629C186.521 64.2609 185.498 66.1227 185.498 67.4527C185.498 68.5166 186.01 69.3145 187.801 69.3145C191.383 68.7826 197.011 64.7928 199.57 61.867Z" fill="#FEEEEE"/>
<path d="M255.933 52.9024C257.469 49.1343 292.804 48.6633 299.717 48.6633C301.51 48.6633 303.046 48.6633 304.838 48.6633C305.607 48.6633 306.631 49.1343 307.143 49.8408C307.399 50.5473 307.143 51.0183 306.631 51.2538C305.094 51.2538 303.558 51.2538 301.766 51.2538C299.973 51.2538 298.437 51.2538 296.901 51.2538V51.4894C297.413 54.0799 296.901 57.3769 295.365 60.9095C295.109 61.3805 295.109 61.8515 294.852 62.3225C294.596 63.2645 294.084 64.4421 293.06 65.6196C292.292 66.5616 291.78 67.5036 291.012 67.9746L290.5 68.6811C284.611 75.9818 274.113 83.5179 261.31 83.9889C244.155 84.4599 231.609 72.2137 232.377 50.5473C233.145 31.9425 248.252 10.5117 270.528 9.33417C277.697 9.09867 284.355 11.2182 288.707 17.1058C290.244 18.9898 291.012 21.5804 291.012 24.1709C291.012 28.41 288.963 32.8845 284.354 36.1816C281.794 38.0656 279.234 37.3591 280.514 36.4171C285.891 32.649 287.939 27.468 287.939 23.2289C287.939 21.5804 287.683 19.9318 287.171 18.7543C285.123 13.8087 279.234 11.9247 273.344 11.9247C272.32 11.9247 271.552 11.9247 270.784 11.9247C252.348 13.5732 237.242 32.4135 235.961 50.0763C235.961 51.2538 235.961 52.4314 235.961 53.6089C235.961 70.0942 244.923 81.3983 259.774 81.3983C273.6 81.3983 286.659 69.8587 291.78 60.4385L292.292 59.261C292.292 57.848 292.548 56.4349 292.804 55.2574C293.06 53.6089 293.316 52.1959 293.316 51.2538C281.026 51.7249 268.223 53.3734 258.238 55.2574C257.725 55.2574 256.189 55.0219 255.933 54.0799C255.933 54.5509 255.677 53.8444 255.933 52.9024Z" fill="#FEEEEE"/>
<path d="M321.123 61.5316C321.379 62.8615 321.635 64.1914 321.379 65.5214C320.612 70.3091 316.774 72.4369 312.68 72.1709C309.354 71.9049 307.051 68.9791 306.795 66.5853C306.284 62.5955 308.586 58.0738 310.633 57.5419C310.889 57.5419 310.889 57.5419 311.145 57.5419C311.401 56.212 312.168 55.148 313.959 55.414C316.262 55.68 318.309 57.0099 319.588 58.6058C321.891 58.8718 324.194 58.8718 326.241 58.8718C330.334 58.8718 333.916 58.6058 334.684 58.6058C337.243 58.6058 336.731 59.6697 334.428 60.4677C332.381 60.9996 326.752 61.7976 321.123 61.5316ZM309.866 66.3193C310.377 68.9791 311.401 70.0431 312.936 70.0431C316.774 69.7771 318.821 64.4574 317.541 61.2656C315.494 60.9996 313.703 60.2017 312.424 59.4038L312.168 59.6697C311.145 60.4677 309.354 63.6595 309.866 66.3193Z" fill="#FEEEEE"/>
<path d="M335.707 63.6595C335.707 60.7337 335.963 58.0738 336.219 55.68C336.475 54.0841 339.545 56.212 339.289 57.2759C339.289 59.6697 339.033 61.2656 339.033 64.4574C342.104 60.9996 345.174 57.2759 349.012 55.148C349.779 54.8821 351.315 55.68 352.082 56.7439C353.106 59.1378 353.106 60.9996 353.873 64.4574L362.572 57.0099C363.084 56.478 364.875 57.5419 365.643 58.6058C366.41 60.4677 366.922 63.9254 368.713 65.5213C369.736 66.0533 370.76 66.5853 372.039 66.5853C374.854 66.5853 384.576 62.0636 385.856 59.6697C386.111 59.1378 387.391 59.9357 386.111 62.0636C384.832 64.4574 378.947 69.2451 373.83 69.2451C372.039 69.2451 369.736 68.7131 367.945 67.3832C366.666 66.3193 365.643 65.2554 364.875 64.1914C364.363 63.1275 363.852 62.3296 363.596 61.5316C359.502 64.9894 357.199 66.8512 354.897 68.4471C354.129 68.7131 352.594 67.9152 351.826 66.8512C351.059 64.7234 350.291 62.5955 349.524 59.1378C344.918 62.3296 342.36 67.1172 339.033 70.309C338.266 70.841 335.963 68.9791 335.707 67.9152C335.707 66.3193 335.707 64.9894 335.707 63.6595Z" fill="#FEEEEE"/>
<path d="M384.32 66.0533C384.064 65.2553 383.809 64.1914 383.809 63.3935C383.809 59.4037 386.367 55.148 390.973 54.882C393.787 54.882 396.346 57.8078 395.322 60.4677C394.043 63.3935 390.205 65.7873 387.135 65.7873C387.391 67.6492 390.461 70.575 393.787 70.575C402.23 70.575 408.371 63.9254 412.209 59.9357C414.256 57.8078 414 59.9357 412.721 62.3295C410.162 67.6492 404.533 72.1709 398.393 72.7029C393.02 72.9688 386.111 71.9049 384.32 66.0533ZM387.135 63.3935C390.973 61.5316 393.531 59.1377 392.508 58.0738C390.461 56.2119 386.879 60.9996 387.135 63.3935Z" fill="#FEEEEE"/>
<path d="M412.465 69.2451C413.232 69.511 414.256 69.5111 415.535 69.5111C418.35 69.5111 421.932 68.9791 424.234 68.4471C421.932 67.1172 418.605 65.5213 416.814 64.4574C414.512 63.1275 411.953 62.0636 411.697 59.4037C410.93 54.3501 420.652 51.4243 425.258 50.8923C426.793 50.6263 428.584 52.4882 427.816 53.2861C424.49 54.616 416.303 56.2119 415.279 58.6058C414.768 59.9357 416.814 60.7336 418.605 62.0636C421.932 63.9254 424.746 65.5213 426.537 66.8512C428.584 68.7131 426.793 71.1069 424.49 71.9049C422.955 72.4369 420.652 72.7028 418.094 72.7028C415.791 72.7028 413.744 72.4369 412.465 71.9049C411.441 71.1069 410.674 68.7131 412.465 69.2451Z" fill="#FEEEEE"/>
</svg>
